M48
; DRILL file {KiCad (5.1.5)-3} date 11/11/2020 12:05:31 PM
; FORMAT={-:-/ absolute / metric / decimal}
; #@! TF.CreationDate,2020-11-11T12:05:31-06:00
; #@! TF.GenerationSoftware,Kicad,Pcbnew,(5.1.5)-3
; #@! TF.FileFunction,Plated,1,2,PTH
FMAT,2
METRIC
T1C0.400
T2C0.600
T3C0.700
T4C0.800
T5C0.900
T6C1.016
T7C1.100
T8C1.470
T9C1.500
T10C2.200
%
G90
G05
T1
X162.147Y-48.401
X162.179Y-49.403
X162.179Y-50.403
X164.084Y-41.24
X165.227Y-41.24
X167.844Y-38.645
X168.91Y-38.645
X169.926Y-38.608
X170.053Y-37.211
X171.323Y-37.338
X173.99Y-44.45
X173.99Y-45.45
X173.99Y-46.45
X173.99Y-47.45
X173.99Y-48.45
X173.99Y-49.45
X173.99Y-50.45
X197.358Y-37.846
X197.358Y-40.64
X197.395Y-43.561
X201.295Y-48.604
X203.045Y-43.561
X206.883Y-46.228
X206.883Y-53.213
X233.934Y-41.529
X160.532Y-36.525
X160.537Y-37.85
X161.382Y-36.525
X161.387Y-37.85
X162.232Y-36.525
X162.237Y-37.85
X163.082Y-36.525
X163.088Y-37.85
X163.933Y-36.525
X163.938Y-37.85
X164.782Y-36.525
X164.787Y-37.85
X165.632Y-36.525
X165.637Y-37.85
X166.487Y-36.525
X166.487Y-37.85
T2
X173.609Y-39.624
X173.609Y-41.124
T3
X199.898Y-40.64
X204.978Y-40.64
X156.083Y-34.407
X156.083Y-39.507
X199.898Y-51.816
X204.978Y-51.816
X199.898Y-35.052
X204.978Y-35.052
X199.898Y-49.022
X204.978Y-49.022
X199.898Y-37.846
X204.978Y-37.846
X199.898Y-46.228
X204.978Y-46.228
X199.898Y-43.434
X204.978Y-43.434
T4
X103.505Y-44.45
X103.505Y-49.53
X83.185Y-44.323
X83.185Y-49.403
X147.32Y-43.815
X147.32Y-48.895
X151.13Y-45.085
X151.13Y-50.165
X93.345Y-44.45
X93.345Y-49.53
X100.33Y-45.085
X100.33Y-50.165
X157.48Y-43.688
X157.48Y-48.768
X192.532Y-49.022
X197.612Y-49.022
X225.552Y-47.498
X225.552Y-52.498
X73.025Y-44.45
X73.025Y-49.53
X140.97Y-45.085
X140.97Y-50.165
X144.145Y-44.45
X144.145Y-49.53
X110.49Y-45.085
X110.49Y-50.165
X233.934Y-49.911
X238.814Y-49.911
X76.2Y-43.815
X76.2Y-48.895
X228.981Y-48.554
X228.981Y-51.054
X120.65Y-45.085
X120.65Y-50.165
X127.0Y-43.815
X127.0Y-48.895
X133.985Y-44.45
X133.985Y-49.53
X228.934Y-34.163
X233.934Y-34.163
X69.85Y-45.085
X69.85Y-50.165
X86.36Y-43.688
X86.36Y-48.768
X154.305Y-44.323
X154.305Y-49.403
X123.825Y-44.45
X123.825Y-49.53
X116.84Y-43.815
X116.84Y-48.895
X96.52Y-43.815
X96.52Y-48.895
X80.01Y-45.085
X80.01Y-50.165
X90.17Y-45.085
X90.17Y-50.165
X137.16Y-43.815
X137.16Y-48.895
X192.532Y-51.816
X197.612Y-51.816
X106.68Y-43.815
X106.68Y-48.895
X243.713Y-48.554
X243.713Y-51.054
X113.665Y-44.45
X113.665Y-49.53
X130.81Y-45.085
X130.81Y-50.165
X213.582Y-36.83
X213.582Y-44.45
X216.122Y-36.83
X216.122Y-44.45
X218.662Y-36.83
X218.662Y-44.45
X221.202Y-36.83
X221.202Y-44.45
X223.742Y-36.83
X223.742Y-44.45
X226.282Y-36.83
X226.282Y-44.45
X228.822Y-36.83
X228.822Y-44.45
X231.362Y-36.83
X231.362Y-44.45
X233.902Y-36.83
X233.902Y-44.45
X236.442Y-36.83
X236.442Y-44.45
X238.982Y-36.83
X238.982Y-44.45
X241.522Y-36.83
X241.522Y-44.45
X244.062Y-36.83
X244.062Y-44.45
X246.602Y-36.83
X246.602Y-44.45
T5
X172.466Y-34.417
X175.006Y-34.417
T6
X140.589Y-36.703
X140.589Y-39.243
X143.129Y-36.703
X143.129Y-39.243
X145.669Y-36.703
X145.669Y-39.243
T7
X128.12Y-34.743
X128.12Y-39.243
X134.62Y-34.743
X134.62Y-39.243
X116.055Y-34.743
X116.055Y-39.243
X122.555Y-34.743
X122.555Y-39.243
T8
X168.116Y-128.111
X174.466Y-125.571
T9
X231.14Y-82.391
X237.49Y-79.851
X245.427Y-63.341
X251.777Y-60.801
X112.078Y-63.341
X118.427Y-60.801
X88.265Y-101.441
X94.615Y-98.901
X226.377Y-63.341
X232.727Y-60.801
X150.177Y-63.341
X156.528Y-60.801
X169.227Y-63.341
X175.577Y-60.801
X154.94Y-82.391
X161.29Y-79.851
X131.127Y-63.341
X137.477Y-60.801
X202.565Y-101.441
X208.915Y-98.901
X135.89Y-82.391
X142.24Y-79.851
X78.74Y-82.391
X85.09Y-79.851
X97.79Y-82.391
X104.14Y-79.851
X183.515Y-101.441
X189.865Y-98.901
X207.327Y-63.341
X213.677Y-60.801
X73.977Y-63.341
X80.328Y-60.801
X116.84Y-82.391
X123.19Y-79.851
X173.99Y-82.391
X180.34Y-79.851
X164.465Y-101.441
X170.815Y-98.901
X145.415Y-101.441
X151.765Y-98.901
X193.04Y-82.391
X199.39Y-79.851
X188.278Y-63.341
X194.627Y-60.801
X107.315Y-101.441
X113.665Y-98.901
X212.09Y-82.391
X218.44Y-79.851
X93.027Y-63.341
X99.377Y-60.801
X126.365Y-101.441
X132.715Y-98.901
T10
X229.616Y-129.54
X258.191Y-53.181
X163.449Y-74.803
X111.633Y-129.667
X61.722Y-53.086
X61.722Y-34.671
X73.66Y-93.853
X83.185Y-112.903
X158.75Y-123.031
X68.834Y-74.93
X101.6Y-103.981
X196.85Y-103.981
X258.191Y-74.803
X258.191Y-34.671
X229.616Y-114.046
X87.249Y-75.311
X243.967Y-93.853
T2
G00X159.188Y-33.89
M15
G01X159.188Y-33.09
M16
G05
G00X159.188Y-37.62
M15
G01X159.188Y-36.12
M16
G05
G00X167.838Y-33.89
M15
G01X167.838Y-33.09
M16
G05
G00X167.838Y-37.62
M15
G01X167.838Y-36.12
M16
G05
T0
M30
