G04 #@! TF.GenerationSoftware,KiCad,Pcbnew,(5.1.5)-3*
G04 #@! TF.CreationDate,2020-07-10T12:31:20-05:00*
G04 #@! TF.ProjectId,masochist,6d61736f-6368-4697-9374-2e6b69636164,rev?*
G04 #@! TF.SameCoordinates,Original*
G04 #@! TF.FileFunction,Profile,NP*
%FSLAX46Y46*%
G04 Gerber Fmt 4.6, Leading zero omitted, Abs format (unit mm)*
G04 Created by KiCad (PCBNEW (5.1.5)-3) date 2020-07-10 12:31:20*
%MOMM*%
%LPD*%
G04 APERTURE LIST*
%ADD10C,0.050000*%
G04 APERTURE END LIST*
D10*
X62706250Y-57943750D02*
X63500000Y-57943750D01*
X61118750Y-57943750D02*
X62706250Y-57943750D01*
X58737500Y-34131250D02*
X58737500Y-55562500D01*
X61118750Y-57943750D02*
G75*
G02X58737500Y-55562500I0J2381250D01*
G01*
X65881250Y-75406250D02*
X65881250Y-60325000D01*
X63500000Y-57943750D02*
G75*
G02X65881250Y-60325000I0J-2381250D01*
G01*
X68262500Y-77787500D02*
G75*
G02X65881250Y-75406250I0J2381250D01*
G01*
X68262500Y-31750000D02*
X61118750Y-31750000D01*
X58737500Y-34131250D02*
G75*
G02X61118750Y-31750000I2381250J0D01*
G01*
X261143750Y-75406250D02*
X261143750Y-34131250D01*
X249237500Y-77787500D02*
X258762500Y-77787500D01*
X246856250Y-94456250D02*
X246856250Y-80168750D01*
X220662500Y-96837500D02*
X244475000Y-96837500D01*
X218281250Y-108743750D02*
X218281250Y-99218750D01*
X230187500Y-111125000D02*
X220662500Y-111125000D01*
X232568750Y-132556250D02*
X232568750Y-113506250D01*
X111125000Y-134937500D02*
X230187500Y-134937500D01*
X261143750Y-75406250D02*
G75*
G02X258762500Y-77787500I-2381250J0D01*
G01*
X246856250Y-80168750D02*
G75*
G02X249237500Y-77787500I2381250J0D01*
G01*
X246856250Y-94456250D02*
G75*
G02X244475000Y-96837500I-2381250J0D01*
G01*
X218281250Y-99218750D02*
G75*
G02X220662500Y-96837500I2381250J0D01*
G01*
X220662500Y-111125000D02*
G75*
G02X218281250Y-108743750I0J2381250D01*
G01*
X230187500Y-111125000D02*
G75*
G02X232568750Y-113506250I0J-2381250D01*
G01*
X232568750Y-132556250D02*
G75*
G02X230187500Y-134937500I-2381250J0D01*
G01*
X108743750Y-118268750D02*
X108743750Y-132556250D01*
X82550000Y-115887500D02*
X106362500Y-115887500D01*
X80168750Y-99218750D02*
X80168750Y-113506250D01*
X73025000Y-96837500D02*
X77787500Y-96837500D01*
X70643750Y-80168750D02*
X70643750Y-94456250D01*
X111125000Y-134937500D02*
G75*
G02X108743750Y-132556250I0J2381250D01*
G01*
X106362500Y-115887500D02*
G75*
G02X108743750Y-118268750I0J-2381250D01*
G01*
X82550000Y-115887500D02*
G75*
G02X80168750Y-113506250I0J2381250D01*
G01*
X77787500Y-96837500D02*
G75*
G02X80168750Y-99218750I0J-2381250D01*
G01*
X73025000Y-96837500D02*
G75*
G02X70643750Y-94456250I0J2381250D01*
G01*
X68262500Y-77787500D02*
G75*
G02X70643750Y-80168750I0J-2381250D01*
G01*
X258762500Y-31750000D02*
X68262500Y-31750000D01*
X258762500Y-31750000D02*
G75*
G02X261143750Y-34131250I0J-2381250D01*
G01*
M02*
