M48
; DRILL file {KiCad (5.1.5)-3} date 10/14/2020 3:49:56 PM
; FORMAT={-:-/ absolute / metric / decimal}
; #@! TF.CreationDate,2020-10-14T15:49:56-05:00
; #@! TF.GenerationSoftware,Kicad,Pcbnew,(5.1.5)-3
; #@! TF.FileFunction,NonPlated,1,2,NPTH
FMAT,2
METRIC
T1C1.700
T2C1.750
T3C3.048
T4C3.988
T5C4.000
%
G90
G05
T1
X86.995Y-103.981
X97.155Y-103.981
X163.195Y-103.981
X173.355Y-103.981
X91.757Y-65.881
X101.917Y-65.881
X187.007Y-65.881
X197.167Y-65.881
X110.807Y-65.881
X120.968Y-65.881
X182.245Y-103.981
X192.405Y-103.981
X77.47Y-84.931
X87.63Y-84.931
X106.045Y-103.981
X116.205Y-103.981
X225.107Y-65.881
X235.267Y-65.881
X191.77Y-84.931
X201.93Y-84.931
X115.57Y-84.931
X125.73Y-84.931
X96.52Y-84.931
X106.68Y-84.931
X172.72Y-84.931
X182.88Y-84.931
X134.62Y-84.931
X144.78Y-84.931
X167.957Y-65.881
X178.117Y-65.881
X129.857Y-65.881
X140.017Y-65.881
X244.157Y-65.881
X254.317Y-65.881
X206.058Y-65.881
X216.218Y-65.881
X148.907Y-65.881
X159.067Y-65.881
X125.095Y-103.981
X135.255Y-103.981
X72.707Y-65.881
X82.867Y-65.881
X144.145Y-103.981
X154.305Y-103.981
X210.82Y-84.931
X220.98Y-84.931
X229.87Y-84.931
X240.03Y-84.931
X153.67Y-84.931
X163.83Y-84.931
X201.295Y-103.981
X211.455Y-103.981
T2
X165.576Y-123.031
X175.736Y-123.031
T3
X120.656Y-130.016
X220.656Y-130.016
T4
X120.656Y-114.776
X170.656Y-123.031
X220.656Y-114.776
T5
X234.95Y-84.931
X158.75Y-84.931
X206.375Y-103.981
X92.075Y-103.981
X168.275Y-103.981
X96.837Y-65.881
X192.087Y-65.881
X115.887Y-65.881
X187.325Y-103.981
X82.55Y-84.931
X111.125Y-103.981
X230.188Y-65.881
X196.85Y-84.931
X120.65Y-84.931
X101.6Y-84.931
X177.8Y-84.931
X139.7Y-84.931
X173.037Y-65.881
X134.938Y-65.881
X249.237Y-65.881
X211.137Y-65.881
X153.987Y-65.881
X130.175Y-103.981
X77.787Y-65.881
X149.225Y-103.981
X215.9Y-84.931
T0
M30
