G04 #@! TF.GenerationSoftware,KiCad,Pcbnew,(5.1.5)-3*
G04 #@! TF.CreationDate,2020-07-10T12:31:20-05:00*
G04 #@! TF.ProjectId,masochist,6d61736f-6368-4697-9374-2e6b69636164,rev?*
G04 #@! TF.SameCoordinates,Original*
G04 #@! TF.FileFunction,Legend,Bot*
G04 #@! TF.FilePolarity,Positive*
%FSLAX46Y46*%
G04 Gerber Fmt 4.6, Leading zero omitted, Abs format (unit mm)*
G04 Created by KiCad (PCBNEW (5.1.5)-3) date 2020-07-10 12:31:20*
%MOMM*%
%LPD*%
G04 APERTURE LIST*
%ADD10C,0.300000*%
%ADD11C,0.010000*%
G04 APERTURE END LIST*
D10*
X217125857Y-128694571D02*
X217125857Y-127194571D01*
X217125857Y-127766000D02*
X216983000Y-127694571D01*
X216697285Y-127694571D01*
X216554428Y-127766000D01*
X216483000Y-127837428D01*
X216411571Y-127980285D01*
X216411571Y-128408857D01*
X216483000Y-128551714D01*
X216554428Y-128623142D01*
X216697285Y-128694571D01*
X216983000Y-128694571D01*
X217125857Y-128623142D01*
X215911571Y-127694571D02*
X215554428Y-128694571D01*
X215197285Y-127694571D02*
X215554428Y-128694571D01*
X215697285Y-129051714D01*
X215768714Y-129123142D01*
X215911571Y-129194571D01*
X212625857Y-128694571D02*
X213125857Y-127980285D01*
X213483000Y-128694571D02*
X213483000Y-127194571D01*
X212911571Y-127194571D01*
X212768714Y-127266000D01*
X212697285Y-127337428D01*
X212625857Y-127480285D01*
X212625857Y-127694571D01*
X212697285Y-127837428D01*
X212768714Y-127908857D01*
X212911571Y-127980285D01*
X213483000Y-127980285D01*
X211411571Y-128623142D02*
X211554428Y-128694571D01*
X211840142Y-128694571D01*
X211983000Y-128623142D01*
X212054428Y-128480285D01*
X212054428Y-127908857D01*
X211983000Y-127766000D01*
X211840142Y-127694571D01*
X211554428Y-127694571D01*
X211411571Y-127766000D01*
X211340142Y-127908857D01*
X211340142Y-128051714D01*
X212054428Y-128194571D01*
X210697285Y-128694571D02*
X210697285Y-127694571D01*
X210697285Y-127194571D02*
X210768714Y-127266000D01*
X210697285Y-127337428D01*
X210625857Y-127266000D01*
X210697285Y-127194571D01*
X210697285Y-127337428D01*
X209340142Y-128694571D02*
X209340142Y-127194571D01*
X209340142Y-128623142D02*
X209483000Y-128694571D01*
X209768714Y-128694571D01*
X209911571Y-128623142D01*
X209983000Y-128551714D01*
X210054428Y-128408857D01*
X210054428Y-127980285D01*
X209983000Y-127837428D01*
X209911571Y-127766000D01*
X209768714Y-127694571D01*
X209483000Y-127694571D01*
X209340142Y-127766000D01*
D11*
G36*
X192405497Y-118987828D02*
G01*
X192299697Y-119205094D01*
X192278000Y-119399157D01*
X192309927Y-119610160D01*
X192419425Y-119827737D01*
X192534674Y-119985776D01*
X192726181Y-120205036D01*
X192864878Y-120294470D01*
X192973848Y-120260024D01*
X193068150Y-120123161D01*
X193131903Y-119917320D01*
X193165477Y-119644129D01*
X193167000Y-119578973D01*
X193147165Y-119312670D01*
X193071623Y-119133954D01*
X192999687Y-119047479D01*
X192782364Y-118895925D01*
X192575343Y-118880406D01*
X192405497Y-118987828D01*
G37*
X192405497Y-118987828D02*
X192299697Y-119205094D01*
X192278000Y-119399157D01*
X192309927Y-119610160D01*
X192419425Y-119827737D01*
X192534674Y-119985776D01*
X192726181Y-120205036D01*
X192864878Y-120294470D01*
X192973848Y-120260024D01*
X193068150Y-120123161D01*
X193131903Y-119917320D01*
X193165477Y-119644129D01*
X193167000Y-119578973D01*
X193147165Y-119312670D01*
X193071623Y-119133954D01*
X192999687Y-119047479D01*
X192782364Y-118895925D01*
X192575343Y-118880406D01*
X192405497Y-118987828D01*
G36*
X189595894Y-119810115D02*
G01*
X189367346Y-119848925D01*
X189178214Y-119921112D01*
X189147472Y-119939999D01*
X188823693Y-120230143D01*
X188603299Y-120587270D01*
X188494200Y-120993615D01*
X188499024Y-121396352D01*
X188548606Y-121594437D01*
X188653226Y-121805199D01*
X188831851Y-122062686D01*
X188963819Y-122230742D01*
X189385010Y-122753151D01*
X189066692Y-123204409D01*
X188804716Y-123623484D01*
X188653826Y-123984427D01*
X188609596Y-124299474D01*
X188623287Y-124429413D01*
X188677122Y-124551950D01*
X188800555Y-124766615D01*
X188974253Y-125044649D01*
X189178884Y-125357292D01*
X189395113Y-125675786D01*
X189603609Y-125971371D01*
X189785037Y-126215289D01*
X189920065Y-126378781D01*
X189960250Y-126418210D01*
X190037789Y-126394655D01*
X190158944Y-126273014D01*
X190214250Y-126199814D01*
X190411004Y-125992315D01*
X190706744Y-125798102D01*
X190928625Y-125687450D01*
X191163657Y-125568026D01*
X191344116Y-125454609D01*
X191442382Y-125365519D01*
X191452500Y-125340014D01*
X191406631Y-125232109D01*
X191288040Y-125063801D01*
X191166750Y-124921136D01*
X190988227Y-124692642D01*
X190781080Y-124692642D01*
X190755900Y-124746175D01*
X190685846Y-124789721D01*
X190557250Y-124861862D01*
X190350907Y-124980733D01*
X190105102Y-125124228D01*
X190028457Y-125169323D01*
X189739507Y-125326073D01*
X189536168Y-125395377D01*
X189394922Y-125376398D01*
X189292248Y-125268298D01*
X189231456Y-125140959D01*
X189171083Y-124914695D01*
X189190192Y-124697629D01*
X189298054Y-124457198D01*
X189503942Y-124160840D01*
X189514402Y-124147292D01*
X189696574Y-123930497D01*
X189857764Y-123771107D01*
X189966877Y-123699340D01*
X189976765Y-123698000D01*
X190072186Y-123755359D01*
X190225347Y-123907922D01*
X190407884Y-124126422D01*
X190465584Y-124202408D01*
X190646384Y-124448653D01*
X190748062Y-124602766D01*
X190781080Y-124692642D01*
X190988227Y-124692642D01*
X190973216Y-124673430D01*
X190893643Y-124454235D01*
X190925274Y-124225314D01*
X191065353Y-123948429D01*
X191093411Y-123903740D01*
X191284795Y-123580329D01*
X191396671Y-123321445D01*
X191445945Y-123081396D01*
X191452500Y-122933195D01*
X191390534Y-122512973D01*
X191260659Y-122218543D01*
X190976840Y-122218543D01*
X190973433Y-122418190D01*
X190882379Y-122646696D01*
X190695888Y-122929611D01*
X190576620Y-123084167D01*
X190403485Y-123295915D01*
X190266357Y-123452897D01*
X190190466Y-123526477D01*
X190184962Y-123528667D01*
X190126398Y-123472452D01*
X190001590Y-123321997D01*
X189832738Y-123104591D01*
X189745637Y-122988607D01*
X189551663Y-122721951D01*
X189444333Y-122547479D01*
X189419062Y-122439572D01*
X189471266Y-122372609D01*
X189596359Y-122320971D01*
X189624536Y-122311876D01*
X189766238Y-122241514D01*
X189970968Y-122110216D01*
X190190440Y-121949415D01*
X190422481Y-121780695D01*
X190583247Y-121712257D01*
X190705605Y-121747471D01*
X190822425Y-121889708D01*
X190900390Y-122022206D01*
X190976840Y-122218543D01*
X191260659Y-122218543D01*
X191210443Y-122104703D01*
X190955537Y-121765452D01*
X190735110Y-121521226D01*
X190503529Y-121256248D01*
X190407677Y-121143421D01*
X190147268Y-120832509D01*
X189990259Y-120998134D01*
X189671937Y-121277616D01*
X189363062Y-121444755D01*
X189084687Y-121492708D01*
X188857863Y-121414633D01*
X188816687Y-121379587D01*
X188717155Y-121187709D01*
X188695703Y-120921895D01*
X188750183Y-120639475D01*
X188852175Y-120432604D01*
X189067170Y-120177729D01*
X189294839Y-120034073D01*
X189574462Y-119983688D01*
X189813225Y-119993438D01*
X190028661Y-120005399D01*
X190183666Y-119997618D01*
X190245898Y-119971813D01*
X190246000Y-119970421D01*
X190188912Y-119884836D01*
X190039590Y-119828982D01*
X189830946Y-119803772D01*
X189595894Y-119810115D01*
G37*
X189595894Y-119810115D02*
X189367346Y-119848925D01*
X189178214Y-119921112D01*
X189147472Y-119939999D01*
X188823693Y-120230143D01*
X188603299Y-120587270D01*
X188494200Y-120993615D01*
X188499024Y-121396352D01*
X188548606Y-121594437D01*
X188653226Y-121805199D01*
X188831851Y-122062686D01*
X188963819Y-122230742D01*
X189385010Y-122753151D01*
X189066692Y-123204409D01*
X188804716Y-123623484D01*
X188653826Y-123984427D01*
X188609596Y-124299474D01*
X188623287Y-124429413D01*
X188677122Y-124551950D01*
X188800555Y-124766615D01*
X188974253Y-125044649D01*
X189178884Y-125357292D01*
X189395113Y-125675786D01*
X189603609Y-125971371D01*
X189785037Y-126215289D01*
X189920065Y-126378781D01*
X189960250Y-126418210D01*
X190037789Y-126394655D01*
X190158944Y-126273014D01*
X190214250Y-126199814D01*
X190411004Y-125992315D01*
X190706744Y-125798102D01*
X190928625Y-125687450D01*
X191163657Y-125568026D01*
X191344116Y-125454609D01*
X191442382Y-125365519D01*
X191452500Y-125340014D01*
X191406631Y-125232109D01*
X191288040Y-125063801D01*
X191166750Y-124921136D01*
X190988227Y-124692642D01*
X190781080Y-124692642D01*
X190755900Y-124746175D01*
X190685846Y-124789721D01*
X190557250Y-124861862D01*
X190350907Y-124980733D01*
X190105102Y-125124228D01*
X190028457Y-125169323D01*
X189739507Y-125326073D01*
X189536168Y-125395377D01*
X189394922Y-125376398D01*
X189292248Y-125268298D01*
X189231456Y-125140959D01*
X189171083Y-124914695D01*
X189190192Y-124697629D01*
X189298054Y-124457198D01*
X189503942Y-124160840D01*
X189514402Y-124147292D01*
X189696574Y-123930497D01*
X189857764Y-123771107D01*
X189966877Y-123699340D01*
X189976765Y-123698000D01*
X190072186Y-123755359D01*
X190225347Y-123907922D01*
X190407884Y-124126422D01*
X190465584Y-124202408D01*
X190646384Y-124448653D01*
X190748062Y-124602766D01*
X190781080Y-124692642D01*
X190988227Y-124692642D01*
X190973216Y-124673430D01*
X190893643Y-124454235D01*
X190925274Y-124225314D01*
X191065353Y-123948429D01*
X191093411Y-123903740D01*
X191284795Y-123580329D01*
X191396671Y-123321445D01*
X191445945Y-123081396D01*
X191452500Y-122933195D01*
X191390534Y-122512973D01*
X191260659Y-122218543D01*
X190976840Y-122218543D01*
X190973433Y-122418190D01*
X190882379Y-122646696D01*
X190695888Y-122929611D01*
X190576620Y-123084167D01*
X190403485Y-123295915D01*
X190266357Y-123452897D01*
X190190466Y-123526477D01*
X190184962Y-123528667D01*
X190126398Y-123472452D01*
X190001590Y-123321997D01*
X189832738Y-123104591D01*
X189745637Y-122988607D01*
X189551663Y-122721951D01*
X189444333Y-122547479D01*
X189419062Y-122439572D01*
X189471266Y-122372609D01*
X189596359Y-122320971D01*
X189624536Y-122311876D01*
X189766238Y-122241514D01*
X189970968Y-122110216D01*
X190190440Y-121949415D01*
X190422481Y-121780695D01*
X190583247Y-121712257D01*
X190705605Y-121747471D01*
X190822425Y-121889708D01*
X190900390Y-122022206D01*
X190976840Y-122218543D01*
X191260659Y-122218543D01*
X191210443Y-122104703D01*
X190955537Y-121765452D01*
X190735110Y-121521226D01*
X190503529Y-121256248D01*
X190407677Y-121143421D01*
X190147268Y-120832509D01*
X189990259Y-120998134D01*
X189671937Y-121277616D01*
X189363062Y-121444755D01*
X189084687Y-121492708D01*
X188857863Y-121414633D01*
X188816687Y-121379587D01*
X188717155Y-121187709D01*
X188695703Y-120921895D01*
X188750183Y-120639475D01*
X188852175Y-120432604D01*
X189067170Y-120177729D01*
X189294839Y-120034073D01*
X189574462Y-119983688D01*
X189813225Y-119993438D01*
X190028661Y-120005399D01*
X190183666Y-119997618D01*
X190245898Y-119971813D01*
X190246000Y-119970421D01*
X190188912Y-119884836D01*
X190039590Y-119828982D01*
X189830946Y-119803772D01*
X189595894Y-119810115D01*
G36*
X204645394Y-119810115D02*
G01*
X204416846Y-119848925D01*
X204227714Y-119921112D01*
X204196972Y-119939999D01*
X203873193Y-120230143D01*
X203652799Y-120587270D01*
X203543700Y-120993615D01*
X203548524Y-121396352D01*
X203598106Y-121594437D01*
X203702726Y-121805199D01*
X203881351Y-122062686D01*
X204013319Y-122230742D01*
X204434510Y-122753151D01*
X204116192Y-123204409D01*
X203854216Y-123623484D01*
X203703326Y-123984427D01*
X203659096Y-124299474D01*
X203672787Y-124429413D01*
X203726622Y-124551950D01*
X203850055Y-124766615D01*
X204023753Y-125044649D01*
X204228384Y-125357292D01*
X204444613Y-125675786D01*
X204653109Y-125971371D01*
X204834537Y-126215289D01*
X204969565Y-126378781D01*
X205009750Y-126418210D01*
X205087289Y-126394655D01*
X205208444Y-126273014D01*
X205263750Y-126199814D01*
X205460504Y-125992315D01*
X205756244Y-125798102D01*
X205978125Y-125687450D01*
X206213157Y-125568026D01*
X206393616Y-125454609D01*
X206491882Y-125365519D01*
X206502000Y-125340014D01*
X206456131Y-125232109D01*
X206337540Y-125063801D01*
X206216250Y-124921136D01*
X206037727Y-124692642D01*
X205830580Y-124692642D01*
X205805400Y-124746175D01*
X205735346Y-124789721D01*
X205606750Y-124861862D01*
X205400407Y-124980733D01*
X205154602Y-125124228D01*
X205077957Y-125169323D01*
X204789007Y-125326073D01*
X204585668Y-125395377D01*
X204444422Y-125376398D01*
X204341748Y-125268298D01*
X204280956Y-125140959D01*
X204220583Y-124914695D01*
X204239692Y-124697629D01*
X204347554Y-124457198D01*
X204553442Y-124160840D01*
X204563902Y-124147292D01*
X204746074Y-123930497D01*
X204907264Y-123771107D01*
X205016377Y-123699340D01*
X205026265Y-123698000D01*
X205121686Y-123755359D01*
X205274847Y-123907922D01*
X205457384Y-124126422D01*
X205515084Y-124202408D01*
X205695884Y-124448653D01*
X205797562Y-124602766D01*
X205830580Y-124692642D01*
X206037727Y-124692642D01*
X206022716Y-124673430D01*
X205943143Y-124454235D01*
X205974774Y-124225314D01*
X206114853Y-123948429D01*
X206142911Y-123903740D01*
X206334295Y-123580329D01*
X206446171Y-123321445D01*
X206495445Y-123081396D01*
X206502000Y-122933195D01*
X206440034Y-122512973D01*
X206310159Y-122218543D01*
X206026340Y-122218543D01*
X206022933Y-122418190D01*
X205931879Y-122646696D01*
X205745388Y-122929611D01*
X205626120Y-123084167D01*
X205452985Y-123295915D01*
X205315857Y-123452897D01*
X205239966Y-123526477D01*
X205234462Y-123528667D01*
X205175898Y-123472452D01*
X205051090Y-123321997D01*
X204882238Y-123104591D01*
X204795137Y-122988607D01*
X204601163Y-122721951D01*
X204493833Y-122547479D01*
X204468562Y-122439572D01*
X204520766Y-122372609D01*
X204645859Y-122320971D01*
X204674036Y-122311876D01*
X204815738Y-122241514D01*
X205020468Y-122110216D01*
X205239940Y-121949415D01*
X205471981Y-121780695D01*
X205632747Y-121712257D01*
X205755105Y-121747471D01*
X205871925Y-121889708D01*
X205949890Y-122022206D01*
X206026340Y-122218543D01*
X206310159Y-122218543D01*
X206259943Y-122104703D01*
X206005037Y-121765452D01*
X205784610Y-121521226D01*
X205553029Y-121256248D01*
X205457177Y-121143421D01*
X205196768Y-120832509D01*
X205039759Y-120998134D01*
X204721437Y-121277616D01*
X204412562Y-121444755D01*
X204134187Y-121492708D01*
X203907363Y-121414633D01*
X203866187Y-121379587D01*
X203766655Y-121187709D01*
X203745203Y-120921895D01*
X203799683Y-120639475D01*
X203901675Y-120432604D01*
X204116670Y-120177729D01*
X204344339Y-120034073D01*
X204623962Y-119983688D01*
X204862725Y-119993438D01*
X205078161Y-120005399D01*
X205233166Y-119997618D01*
X205295398Y-119971813D01*
X205295500Y-119970421D01*
X205238412Y-119884836D01*
X205089090Y-119828982D01*
X204880446Y-119803772D01*
X204645394Y-119810115D01*
G37*
X204645394Y-119810115D02*
X204416846Y-119848925D01*
X204227714Y-119921112D01*
X204196972Y-119939999D01*
X203873193Y-120230143D01*
X203652799Y-120587270D01*
X203543700Y-120993615D01*
X203548524Y-121396352D01*
X203598106Y-121594437D01*
X203702726Y-121805199D01*
X203881351Y-122062686D01*
X204013319Y-122230742D01*
X204434510Y-122753151D01*
X204116192Y-123204409D01*
X203854216Y-123623484D01*
X203703326Y-123984427D01*
X203659096Y-124299474D01*
X203672787Y-124429413D01*
X203726622Y-124551950D01*
X203850055Y-124766615D01*
X204023753Y-125044649D01*
X204228384Y-125357292D01*
X204444613Y-125675786D01*
X204653109Y-125971371D01*
X204834537Y-126215289D01*
X204969565Y-126378781D01*
X205009750Y-126418210D01*
X205087289Y-126394655D01*
X205208444Y-126273014D01*
X205263750Y-126199814D01*
X205460504Y-125992315D01*
X205756244Y-125798102D01*
X205978125Y-125687450D01*
X206213157Y-125568026D01*
X206393616Y-125454609D01*
X206491882Y-125365519D01*
X206502000Y-125340014D01*
X206456131Y-125232109D01*
X206337540Y-125063801D01*
X206216250Y-124921136D01*
X206037727Y-124692642D01*
X205830580Y-124692642D01*
X205805400Y-124746175D01*
X205735346Y-124789721D01*
X205606750Y-124861862D01*
X205400407Y-124980733D01*
X205154602Y-125124228D01*
X205077957Y-125169323D01*
X204789007Y-125326073D01*
X204585668Y-125395377D01*
X204444422Y-125376398D01*
X204341748Y-125268298D01*
X204280956Y-125140959D01*
X204220583Y-124914695D01*
X204239692Y-124697629D01*
X204347554Y-124457198D01*
X204553442Y-124160840D01*
X204563902Y-124147292D01*
X204746074Y-123930497D01*
X204907264Y-123771107D01*
X205016377Y-123699340D01*
X205026265Y-123698000D01*
X205121686Y-123755359D01*
X205274847Y-123907922D01*
X205457384Y-124126422D01*
X205515084Y-124202408D01*
X205695884Y-124448653D01*
X205797562Y-124602766D01*
X205830580Y-124692642D01*
X206037727Y-124692642D01*
X206022716Y-124673430D01*
X205943143Y-124454235D01*
X205974774Y-124225314D01*
X206114853Y-123948429D01*
X206142911Y-123903740D01*
X206334295Y-123580329D01*
X206446171Y-123321445D01*
X206495445Y-123081396D01*
X206502000Y-122933195D01*
X206440034Y-122512973D01*
X206310159Y-122218543D01*
X206026340Y-122218543D01*
X206022933Y-122418190D01*
X205931879Y-122646696D01*
X205745388Y-122929611D01*
X205626120Y-123084167D01*
X205452985Y-123295915D01*
X205315857Y-123452897D01*
X205239966Y-123526477D01*
X205234462Y-123528667D01*
X205175898Y-123472452D01*
X205051090Y-123321997D01*
X204882238Y-123104591D01*
X204795137Y-122988607D01*
X204601163Y-122721951D01*
X204493833Y-122547479D01*
X204468562Y-122439572D01*
X204520766Y-122372609D01*
X204645859Y-122320971D01*
X204674036Y-122311876D01*
X204815738Y-122241514D01*
X205020468Y-122110216D01*
X205239940Y-121949415D01*
X205471981Y-121780695D01*
X205632747Y-121712257D01*
X205755105Y-121747471D01*
X205871925Y-121889708D01*
X205949890Y-122022206D01*
X206026340Y-122218543D01*
X206310159Y-122218543D01*
X206259943Y-122104703D01*
X206005037Y-121765452D01*
X205784610Y-121521226D01*
X205553029Y-121256248D01*
X205457177Y-121143421D01*
X205196768Y-120832509D01*
X205039759Y-120998134D01*
X204721437Y-121277616D01*
X204412562Y-121444755D01*
X204134187Y-121492708D01*
X203907363Y-121414633D01*
X203866187Y-121379587D01*
X203766655Y-121187709D01*
X203745203Y-120921895D01*
X203799683Y-120639475D01*
X203901675Y-120432604D01*
X204116670Y-120177729D01*
X204344339Y-120034073D01*
X204623962Y-119983688D01*
X204862725Y-119993438D01*
X205078161Y-120005399D01*
X205233166Y-119997618D01*
X205295398Y-119971813D01*
X205295500Y-119970421D01*
X205238412Y-119884836D01*
X205089090Y-119828982D01*
X204880446Y-119803772D01*
X204645394Y-119810115D01*
G36*
X186163345Y-119639695D02*
G01*
X186233033Y-119782167D01*
X186377446Y-120091623D01*
X186521214Y-120459140D01*
X186641327Y-120820684D01*
X186714778Y-121112222D01*
X186718282Y-121132643D01*
X186762211Y-121403619D01*
X186360981Y-121428976D01*
X186143231Y-121446011D01*
X186023229Y-121475705D01*
X185971849Y-121538337D01*
X185959968Y-121654184D01*
X185959750Y-121708334D01*
X185965026Y-121847085D01*
X186000373Y-121925289D01*
X186095078Y-121963547D01*
X186278423Y-121982461D01*
X186356625Y-121987540D01*
X186753500Y-122012747D01*
X186753500Y-123612573D01*
X186752959Y-124170410D01*
X186750007Y-124583315D01*
X186742657Y-124875687D01*
X186728921Y-125071925D01*
X186706809Y-125196430D01*
X186674333Y-125273601D01*
X186629504Y-125327838D01*
X186612371Y-125344199D01*
X186413797Y-125464498D01*
X186249513Y-125427753D01*
X186182000Y-125349000D01*
X186091728Y-125242670D01*
X186049994Y-125222000D01*
X186062974Y-125283774D01*
X186133962Y-125445612D01*
X186244589Y-125672286D01*
X186376489Y-125928569D01*
X186511291Y-126179232D01*
X186630630Y-126389050D01*
X186716136Y-126522794D01*
X186743359Y-126551790D01*
X186809440Y-126509195D01*
X186936245Y-126380987D01*
X187050355Y-126249597D01*
X187252889Y-126044491D01*
X187471977Y-125879871D01*
X187574230Y-125826575D01*
X187757320Y-125738469D01*
X187822524Y-125656746D01*
X187777494Y-125562188D01*
X187706000Y-125495649D01*
X187662732Y-125450811D01*
X187630576Y-125383027D01*
X187607892Y-125269056D01*
X187593037Y-125085660D01*
X187584372Y-124809600D01*
X187580254Y-124417634D01*
X187579042Y-123886526D01*
X187579000Y-123697283D01*
X187579000Y-122004667D01*
X187864750Y-122004667D01*
X188035192Y-121990696D01*
X188137409Y-121955350D01*
X188150500Y-121934353D01*
X188103084Y-121849158D01*
X187981559Y-121707029D01*
X187880625Y-121605028D01*
X187737476Y-121452566D01*
X187528314Y-121210405D01*
X187277576Y-120907710D01*
X187009702Y-120573646D01*
X186912250Y-120449358D01*
X186593413Y-120045882D01*
X186360375Y-119764426D01*
X186211866Y-119603743D01*
X186146613Y-119562582D01*
X186163345Y-119639695D01*
G37*
X186163345Y-119639695D02*
X186233033Y-119782167D01*
X186377446Y-120091623D01*
X186521214Y-120459140D01*
X186641327Y-120820684D01*
X186714778Y-121112222D01*
X186718282Y-121132643D01*
X186762211Y-121403619D01*
X186360981Y-121428976D01*
X186143231Y-121446011D01*
X186023229Y-121475705D01*
X185971849Y-121538337D01*
X185959968Y-121654184D01*
X185959750Y-121708334D01*
X185965026Y-121847085D01*
X186000373Y-121925289D01*
X186095078Y-121963547D01*
X186278423Y-121982461D01*
X186356625Y-121987540D01*
X186753500Y-122012747D01*
X186753500Y-123612573D01*
X186752959Y-124170410D01*
X186750007Y-124583315D01*
X186742657Y-124875687D01*
X186728921Y-125071925D01*
X186706809Y-125196430D01*
X186674333Y-125273601D01*
X186629504Y-125327838D01*
X186612371Y-125344199D01*
X186413797Y-125464498D01*
X186249513Y-125427753D01*
X186182000Y-125349000D01*
X186091728Y-125242670D01*
X186049994Y-125222000D01*
X186062974Y-125283774D01*
X186133962Y-125445612D01*
X186244589Y-125672286D01*
X186376489Y-125928569D01*
X186511291Y-126179232D01*
X186630630Y-126389050D01*
X186716136Y-126522794D01*
X186743359Y-126551790D01*
X186809440Y-126509195D01*
X186936245Y-126380987D01*
X187050355Y-126249597D01*
X187252889Y-126044491D01*
X187471977Y-125879871D01*
X187574230Y-125826575D01*
X187757320Y-125738469D01*
X187822524Y-125656746D01*
X187777494Y-125562188D01*
X187706000Y-125495649D01*
X187662732Y-125450811D01*
X187630576Y-125383027D01*
X187607892Y-125269056D01*
X187593037Y-125085660D01*
X187584372Y-124809600D01*
X187580254Y-124417634D01*
X187579042Y-123886526D01*
X187579000Y-123697283D01*
X187579000Y-122004667D01*
X187864750Y-122004667D01*
X188035192Y-121990696D01*
X188137409Y-121955350D01*
X188150500Y-121934353D01*
X188103084Y-121849158D01*
X187981559Y-121707029D01*
X187880625Y-121605028D01*
X187737476Y-121452566D01*
X187528314Y-121210405D01*
X187277576Y-120907710D01*
X187009702Y-120573646D01*
X186912250Y-120449358D01*
X186593413Y-120045882D01*
X186360375Y-119764426D01*
X186211866Y-119603743D01*
X186146613Y-119562582D01*
X186163345Y-119639695D01*
G36*
X192973463Y-120880626D02*
G01*
X192869923Y-121034513D01*
X192826647Y-121107641D01*
X192658244Y-121345519D01*
X192456548Y-121559026D01*
X192422235Y-121588011D01*
X192270797Y-121710824D01*
X192171941Y-121793535D01*
X192156042Y-121808037D01*
X192176680Y-121880612D01*
X192261901Y-122023290D01*
X192283042Y-122053900D01*
X192342850Y-122147477D01*
X192385410Y-122250904D01*
X192414285Y-122394303D01*
X192433038Y-122607798D01*
X192445233Y-122921512D01*
X192454432Y-123365568D01*
X192457085Y-123525270D01*
X192461263Y-124183783D01*
X192448400Y-124689056D01*
X192416422Y-125056001D01*
X192363251Y-125299531D01*
X192286814Y-125434559D01*
X192185595Y-125476000D01*
X192057835Y-125436690D01*
X192006236Y-125370167D01*
X191950940Y-125312255D01*
X191924907Y-125330438D01*
X191919131Y-125438831D01*
X191971935Y-125623192D01*
X191990843Y-125669105D01*
X192186155Y-126104867D01*
X192328950Y-126395609D01*
X192422795Y-126548236D01*
X192459906Y-126576667D01*
X192542224Y-126532772D01*
X192680820Y-126423630D01*
X192723146Y-126386167D01*
X192870948Y-126246651D01*
X192984625Y-126114214D01*
X193069271Y-125964569D01*
X193129985Y-125773433D01*
X193171861Y-125516520D01*
X193199997Y-125169545D01*
X193219488Y-124708223D01*
X193235431Y-124108269D01*
X193239663Y-123924834D01*
X193252112Y-123389669D01*
X193263672Y-122912164D01*
X193273683Y-122518110D01*
X193281483Y-122233296D01*
X193286411Y-122083513D01*
X193287288Y-122068167D01*
X193341432Y-122006457D01*
X193445643Y-122031511D01*
X193547275Y-122130506D01*
X193548000Y-122131667D01*
X193647101Y-122240879D01*
X193721367Y-122243772D01*
X193738500Y-122182721D01*
X193704816Y-122079891D01*
X193616764Y-121883595D01*
X193493847Y-121631658D01*
X193355568Y-121361906D01*
X193221427Y-121112165D01*
X193110929Y-120920261D01*
X193043574Y-120824019D01*
X193035565Y-120819334D01*
X192973463Y-120880626D01*
G37*
X192973463Y-120880626D02*
X192869923Y-121034513D01*
X192826647Y-121107641D01*
X192658244Y-121345519D01*
X192456548Y-121559026D01*
X192422235Y-121588011D01*
X192270797Y-121710824D01*
X192171941Y-121793535D01*
X192156042Y-121808037D01*
X192176680Y-121880612D01*
X192261901Y-122023290D01*
X192283042Y-122053900D01*
X192342850Y-122147477D01*
X192385410Y-122250904D01*
X192414285Y-122394303D01*
X192433038Y-122607798D01*
X192445233Y-122921512D01*
X192454432Y-123365568D01*
X192457085Y-123525270D01*
X192461263Y-124183783D01*
X192448400Y-124689056D01*
X192416422Y-125056001D01*
X192363251Y-125299531D01*
X192286814Y-125434559D01*
X192185595Y-125476000D01*
X192057835Y-125436690D01*
X192006236Y-125370167D01*
X191950940Y-125312255D01*
X191924907Y-125330438D01*
X191919131Y-125438831D01*
X191971935Y-125623192D01*
X191990843Y-125669105D01*
X192186155Y-126104867D01*
X192328950Y-126395609D01*
X192422795Y-126548236D01*
X192459906Y-126576667D01*
X192542224Y-126532772D01*
X192680820Y-126423630D01*
X192723146Y-126386167D01*
X192870948Y-126246651D01*
X192984625Y-126114214D01*
X193069271Y-125964569D01*
X193129985Y-125773433D01*
X193171861Y-125516520D01*
X193199997Y-125169545D01*
X193219488Y-124708223D01*
X193235431Y-124108269D01*
X193239663Y-123924834D01*
X193252112Y-123389669D01*
X193263672Y-122912164D01*
X193273683Y-122518110D01*
X193281483Y-122233296D01*
X193286411Y-122083513D01*
X193287288Y-122068167D01*
X193341432Y-122006457D01*
X193445643Y-122031511D01*
X193547275Y-122130506D01*
X193548000Y-122131667D01*
X193647101Y-122240879D01*
X193721367Y-122243772D01*
X193738500Y-122182721D01*
X193704816Y-122079891D01*
X193616764Y-121883595D01*
X193493847Y-121631658D01*
X193355568Y-121361906D01*
X193221427Y-121112165D01*
X193110929Y-120920261D01*
X193043574Y-120824019D01*
X193035565Y-120819334D01*
X192973463Y-120880626D01*
G36*
X201044096Y-121023636D02*
G01*
X200968128Y-121197451D01*
X200948700Y-121264005D01*
X200852304Y-121545171D01*
X200721327Y-121831600D01*
X200695253Y-121879070D01*
X200462723Y-122370079D01*
X200297121Y-122895908D01*
X200204135Y-123420757D01*
X200189453Y-123908824D01*
X200258763Y-124324311D01*
X200291907Y-124417667D01*
X200512583Y-124847367D01*
X200816493Y-125281748D01*
X201166970Y-125669662D01*
X201234820Y-125733006D01*
X201441447Y-125941917D01*
X201617274Y-126158107D01*
X201717781Y-126322507D01*
X201801294Y-126488447D01*
X201859419Y-126564273D01*
X201864317Y-126564671D01*
X201925055Y-126502627D01*
X202042168Y-126357791D01*
X202120500Y-126254873D01*
X202288513Y-126072785D01*
X202526333Y-125867692D01*
X202786122Y-125680371D01*
X202819000Y-125659459D01*
X203040846Y-125519707D01*
X203214187Y-125408405D01*
X203310323Y-125344057D01*
X203320121Y-125336375D01*
X203294641Y-125272604D01*
X203198836Y-125153258D01*
X203193121Y-125147055D01*
X203140796Y-125086226D01*
X203102124Y-125016533D01*
X203075042Y-124913494D01*
X203057486Y-124752629D01*
X203047391Y-124509454D01*
X203042693Y-124159487D01*
X203041328Y-123678247D01*
X203041250Y-123345772D01*
X203041250Y-122201568D01*
X202224646Y-122201568D01*
X202222905Y-122536895D01*
X202213778Y-123002806D01*
X202204978Y-123361743D01*
X202164998Y-124930485D01*
X201777624Y-125244934D01*
X201581207Y-125399898D01*
X201428099Y-125512403D01*
X201349325Y-125559734D01*
X201347234Y-125560024D01*
X201282335Y-125500616D01*
X201183281Y-125355562D01*
X201176224Y-125343710D01*
X200996920Y-124903817D01*
X200924296Y-124375008D01*
X200930815Y-124038052D01*
X200992488Y-123574568D01*
X201121653Y-123157035D01*
X201337836Y-122725871D01*
X201389040Y-122639667D01*
X201545928Y-122351962D01*
X201692448Y-122038001D01*
X201731673Y-121941167D01*
X201846589Y-121691693D01*
X201954288Y-121593288D01*
X202076769Y-121632228D01*
X202138843Y-121687167D01*
X202176101Y-121739625D01*
X202202190Y-121826880D01*
X202218056Y-121972879D01*
X202224646Y-122201568D01*
X203041250Y-122201568D01*
X203041250Y-121708334D01*
X202530298Y-121570492D01*
X202217404Y-121470010D01*
X201887178Y-121338778D01*
X201610829Y-121205110D01*
X201609548Y-121204397D01*
X201392277Y-121087712D01*
X201215190Y-121000441D01*
X201116324Y-120961319D01*
X201115887Y-120961239D01*
X201044096Y-121023636D01*
G37*
X201044096Y-121023636D02*
X200968128Y-121197451D01*
X200948700Y-121264005D01*
X200852304Y-121545171D01*
X200721327Y-121831600D01*
X200695253Y-121879070D01*
X200462723Y-122370079D01*
X200297121Y-122895908D01*
X200204135Y-123420757D01*
X200189453Y-123908824D01*
X200258763Y-124324311D01*
X200291907Y-124417667D01*
X200512583Y-124847367D01*
X200816493Y-125281748D01*
X201166970Y-125669662D01*
X201234820Y-125733006D01*
X201441447Y-125941917D01*
X201617274Y-126158107D01*
X201717781Y-126322507D01*
X201801294Y-126488447D01*
X201859419Y-126564273D01*
X201864317Y-126564671D01*
X201925055Y-126502627D01*
X202042168Y-126357791D01*
X202120500Y-126254873D01*
X202288513Y-126072785D01*
X202526333Y-125867692D01*
X202786122Y-125680371D01*
X202819000Y-125659459D01*
X203040846Y-125519707D01*
X203214187Y-125408405D01*
X203310323Y-125344057D01*
X203320121Y-125336375D01*
X203294641Y-125272604D01*
X203198836Y-125153258D01*
X203193121Y-125147055D01*
X203140796Y-125086226D01*
X203102124Y-125016533D01*
X203075042Y-124913494D01*
X203057486Y-124752629D01*
X203047391Y-124509454D01*
X203042693Y-124159487D01*
X203041328Y-123678247D01*
X203041250Y-123345772D01*
X203041250Y-122201568D01*
X202224646Y-122201568D01*
X202222905Y-122536895D01*
X202213778Y-123002806D01*
X202204978Y-123361743D01*
X202164998Y-124930485D01*
X201777624Y-125244934D01*
X201581207Y-125399898D01*
X201428099Y-125512403D01*
X201349325Y-125559734D01*
X201347234Y-125560024D01*
X201282335Y-125500616D01*
X201183281Y-125355562D01*
X201176224Y-125343710D01*
X200996920Y-124903817D01*
X200924296Y-124375008D01*
X200930815Y-124038052D01*
X200992488Y-123574568D01*
X201121653Y-123157035D01*
X201337836Y-122725871D01*
X201389040Y-122639667D01*
X201545928Y-122351962D01*
X201692448Y-122038001D01*
X201731673Y-121941167D01*
X201846589Y-121691693D01*
X201954288Y-121593288D01*
X202076769Y-121632228D01*
X202138843Y-121687167D01*
X202176101Y-121739625D01*
X202202190Y-121826880D01*
X202218056Y-121972879D01*
X202224646Y-122201568D01*
X203041250Y-122201568D01*
X203041250Y-121708334D01*
X202530298Y-121570492D01*
X202217404Y-121470010D01*
X201887178Y-121338778D01*
X201610829Y-121205110D01*
X201609548Y-121204397D01*
X201392277Y-121087712D01*
X201215190Y-121000441D01*
X201116324Y-120961319D01*
X201115887Y-120961239D01*
X201044096Y-121023636D01*
G36*
X214414910Y-118916469D02*
G01*
X214070429Y-119163570D01*
X213861523Y-119405030D01*
X213547927Y-119829805D01*
X213320590Y-119475682D01*
X213069495Y-119144033D01*
X212818813Y-118951863D01*
X212534353Y-118875725D01*
X212440364Y-118872000D01*
X212058002Y-118947547D01*
X211734277Y-119170432D01*
X211473362Y-119535024D01*
X211279429Y-120035690D01*
X211166478Y-120591646D01*
X211062319Y-120928843D01*
X210939210Y-121094401D01*
X210798648Y-121253369D01*
X210768388Y-121358515D01*
X210845831Y-121433558D01*
X210899375Y-121457693D01*
X211185167Y-121631311D01*
X211474763Y-121904151D01*
X211718762Y-122224835D01*
X211822053Y-122417309D01*
X211950632Y-122852640D01*
X212000356Y-123358768D01*
X211976008Y-123889906D01*
X211882375Y-124400270D01*
X211724242Y-124844073D01*
X211537392Y-125141029D01*
X211360524Y-125315068D01*
X211219755Y-125367269D01*
X211160512Y-125356643D01*
X210973222Y-125294531D01*
X210851750Y-125254463D01*
X210735811Y-125232933D01*
X210705879Y-125276787D01*
X210766181Y-125393279D01*
X210920945Y-125589666D01*
X211174399Y-125873203D01*
X211275804Y-125982207D01*
X211858607Y-126604409D01*
X212252872Y-126049539D01*
X212578856Y-125508868D01*
X212799015Y-124959954D01*
X212906021Y-124423039D01*
X212915500Y-124219448D01*
X212862129Y-123825696D01*
X212708674Y-123371607D01*
X212465123Y-122881310D01*
X212170510Y-122419624D01*
X211981862Y-122150565D01*
X211869061Y-121974474D01*
X211820746Y-121861215D01*
X211825559Y-121780654D01*
X211872141Y-121702657D01*
X211890804Y-121677595D01*
X211985012Y-121493578D01*
X212083188Y-121181445D01*
X212189218Y-120726996D01*
X212284766Y-120238101D01*
X212391162Y-119881336D01*
X212550979Y-119617493D01*
X212742095Y-119478320D01*
X212823714Y-119464667D01*
X212988271Y-119526376D01*
X213158908Y-119682401D01*
X213303695Y-119889088D01*
X213390703Y-120102786D01*
X213397363Y-120248950D01*
X213282563Y-120814559D01*
X213209359Y-121271456D01*
X213175900Y-121670046D01*
X213180334Y-122060734D01*
X213220812Y-122493924D01*
X213295482Y-123020020D01*
X213295582Y-123020667D01*
X213468813Y-123850731D01*
X213731283Y-124645088D01*
X214096760Y-125443402D01*
X214210970Y-125657626D01*
X214472920Y-126093750D01*
X214702190Y-126379348D01*
X214909037Y-126523257D01*
X215103719Y-126534311D01*
X215188158Y-126499369D01*
X215375169Y-126355700D01*
X215523797Y-126188859D01*
X215722842Y-126016056D01*
X215951898Y-126002006D01*
X216100114Y-126075527D01*
X216224176Y-126135520D01*
X216259495Y-126077385D01*
X216205870Y-125904383D01*
X216121270Y-125728113D01*
X215856444Y-125286851D01*
X215603113Y-125010357D01*
X215354992Y-124895736D01*
X215105795Y-124940091D01*
X214849239Y-125140526D01*
X214848371Y-125141444D01*
X214609742Y-125341163D01*
X214411042Y-125390174D01*
X214251245Y-125286369D01*
X214129323Y-125027637D01*
X214044248Y-124611870D01*
X213994994Y-124036958D01*
X213980435Y-123359334D01*
X213998987Y-122566608D01*
X214057662Y-121905990D01*
X214161487Y-121346846D01*
X214315488Y-120858544D01*
X214436156Y-120582503D01*
X214589401Y-120297519D01*
X214749764Y-120047944D01*
X214870185Y-119901117D01*
X215105604Y-119757875D01*
X215361311Y-119726955D01*
X215587364Y-119812337D01*
X215621936Y-119841189D01*
X215686286Y-119908742D01*
X215711327Y-119983052D01*
X215692497Y-120102697D01*
X215625232Y-120306254D01*
X215539328Y-120539689D01*
X215327487Y-121267878D01*
X215233433Y-122001343D01*
X215257984Y-122749301D01*
X215401955Y-123520969D01*
X215666164Y-124325565D01*
X215927650Y-124922832D01*
X216208569Y-125447108D01*
X216505667Y-125892652D01*
X216802931Y-126241155D01*
X217084344Y-126474309D01*
X217333891Y-126573805D01*
X217373846Y-126576109D01*
X217530263Y-126529439D01*
X217693874Y-126422018D01*
X217837733Y-126266706D01*
X218008934Y-126042772D01*
X218095697Y-125914576D01*
X218293512Y-125662475D01*
X218468412Y-125568451D01*
X218633169Y-125628069D01*
X218706376Y-125702600D01*
X218823908Y-125791623D01*
X218889590Y-125757081D01*
X218884441Y-125657446D01*
X218796313Y-125496376D01*
X218649767Y-125302504D01*
X218469369Y-125104463D01*
X218279682Y-124930888D01*
X218105271Y-124810412D01*
X218058705Y-124788546D01*
X217803467Y-124731838D01*
X217576989Y-124793804D01*
X217351241Y-124988258D01*
X217166164Y-125228468D01*
X216958151Y-125495522D01*
X216791205Y-125619005D01*
X216642754Y-125601885D01*
X216490230Y-125447132D01*
X216410800Y-125327834D01*
X216202906Y-124872347D01*
X216063642Y-124309748D01*
X215994282Y-123676479D01*
X215996098Y-123008982D01*
X216070364Y-122343701D01*
X216218352Y-121717076D01*
X216278436Y-121539000D01*
X216559162Y-120902856D01*
X216880411Y-120425047D01*
X217245323Y-120102078D01*
X217657038Y-119930453D01*
X217737102Y-119915246D01*
X218103635Y-119925249D01*
X218434852Y-120060522D01*
X218712940Y-120299764D01*
X218920086Y-120621678D01*
X219038477Y-121004963D01*
X219050301Y-121428320D01*
X219044097Y-121478093D01*
X218941040Y-121920653D01*
X218776220Y-122215652D01*
X218547989Y-122364694D01*
X218254700Y-122369378D01*
X218154250Y-122343022D01*
X217920228Y-122290537D01*
X217662158Y-122262170D01*
X217609694Y-122260687D01*
X217335302Y-122321721D01*
X217142381Y-122512123D01*
X217026912Y-122836238D01*
X217014851Y-122903967D01*
X216995445Y-123165248D01*
X217015854Y-123382690D01*
X217063504Y-123530734D01*
X217125820Y-123583824D01*
X217190227Y-123516403D01*
X217235818Y-123353056D01*
X217260677Y-123252042D01*
X217307953Y-123192859D01*
X217405248Y-123166537D01*
X217580164Y-123164101D01*
X217789490Y-123173074D01*
X218207434Y-123156800D01*
X218533815Y-123051072D01*
X218791410Y-122840140D01*
X219002994Y-122508256D01*
X219111839Y-122258667D01*
X219201149Y-121892887D01*
X219235585Y-121436628D01*
X219216188Y-120951451D01*
X219144001Y-120498917D01*
X219078304Y-120275527D01*
X218812055Y-119718600D01*
X218477560Y-119293521D01*
X218090218Y-119004715D01*
X217665427Y-118856612D01*
X217218585Y-118853636D01*
X216765090Y-119000216D01*
X216320341Y-119300778D01*
X216172580Y-119440129D01*
X215881731Y-119736143D01*
X215731052Y-119479434D01*
X215443199Y-119107257D01*
X215117253Y-118888948D01*
X214769171Y-118825140D01*
X214414910Y-118916469D01*
G37*
X214414910Y-118916469D02*
X214070429Y-119163570D01*
X213861523Y-119405030D01*
X213547927Y-119829805D01*
X213320590Y-119475682D01*
X213069495Y-119144033D01*
X212818813Y-118951863D01*
X212534353Y-118875725D01*
X212440364Y-118872000D01*
X212058002Y-118947547D01*
X211734277Y-119170432D01*
X211473362Y-119535024D01*
X211279429Y-120035690D01*
X211166478Y-120591646D01*
X211062319Y-120928843D01*
X210939210Y-121094401D01*
X210798648Y-121253369D01*
X210768388Y-121358515D01*
X210845831Y-121433558D01*
X210899375Y-121457693D01*
X211185167Y-121631311D01*
X211474763Y-121904151D01*
X211718762Y-122224835D01*
X211822053Y-122417309D01*
X211950632Y-122852640D01*
X212000356Y-123358768D01*
X211976008Y-123889906D01*
X211882375Y-124400270D01*
X211724242Y-124844073D01*
X211537392Y-125141029D01*
X211360524Y-125315068D01*
X211219755Y-125367269D01*
X211160512Y-125356643D01*
X210973222Y-125294531D01*
X210851750Y-125254463D01*
X210735811Y-125232933D01*
X210705879Y-125276787D01*
X210766181Y-125393279D01*
X210920945Y-125589666D01*
X211174399Y-125873203D01*
X211275804Y-125982207D01*
X211858607Y-126604409D01*
X212252872Y-126049539D01*
X212578856Y-125508868D01*
X212799015Y-124959954D01*
X212906021Y-124423039D01*
X212915500Y-124219448D01*
X212862129Y-123825696D01*
X212708674Y-123371607D01*
X212465123Y-122881310D01*
X212170510Y-122419624D01*
X211981862Y-122150565D01*
X211869061Y-121974474D01*
X211820746Y-121861215D01*
X211825559Y-121780654D01*
X211872141Y-121702657D01*
X211890804Y-121677595D01*
X211985012Y-121493578D01*
X212083188Y-121181445D01*
X212189218Y-120726996D01*
X212284766Y-120238101D01*
X212391162Y-119881336D01*
X212550979Y-119617493D01*
X212742095Y-119478320D01*
X212823714Y-119464667D01*
X212988271Y-119526376D01*
X213158908Y-119682401D01*
X213303695Y-119889088D01*
X213390703Y-120102786D01*
X213397363Y-120248950D01*
X213282563Y-120814559D01*
X213209359Y-121271456D01*
X213175900Y-121670046D01*
X213180334Y-122060734D01*
X213220812Y-122493924D01*
X213295482Y-123020020D01*
X213295582Y-123020667D01*
X213468813Y-123850731D01*
X213731283Y-124645088D01*
X214096760Y-125443402D01*
X214210970Y-125657626D01*
X214472920Y-126093750D01*
X214702190Y-126379348D01*
X214909037Y-126523257D01*
X215103719Y-126534311D01*
X215188158Y-126499369D01*
X215375169Y-126355700D01*
X215523797Y-126188859D01*
X215722842Y-126016056D01*
X215951898Y-126002006D01*
X216100114Y-126075527D01*
X216224176Y-126135520D01*
X216259495Y-126077385D01*
X216205870Y-125904383D01*
X216121270Y-125728113D01*
X215856444Y-125286851D01*
X215603113Y-125010357D01*
X215354992Y-124895736D01*
X215105795Y-124940091D01*
X214849239Y-125140526D01*
X214848371Y-125141444D01*
X214609742Y-125341163D01*
X214411042Y-125390174D01*
X214251245Y-125286369D01*
X214129323Y-125027637D01*
X214044248Y-124611870D01*
X213994994Y-124036958D01*
X213980435Y-123359334D01*
X213998987Y-122566608D01*
X214057662Y-121905990D01*
X214161487Y-121346846D01*
X214315488Y-120858544D01*
X214436156Y-120582503D01*
X214589401Y-120297519D01*
X214749764Y-120047944D01*
X214870185Y-119901117D01*
X215105604Y-119757875D01*
X215361311Y-119726955D01*
X215587364Y-119812337D01*
X215621936Y-119841189D01*
X215686286Y-119908742D01*
X215711327Y-119983052D01*
X215692497Y-120102697D01*
X215625232Y-120306254D01*
X215539328Y-120539689D01*
X215327487Y-121267878D01*
X215233433Y-122001343D01*
X215257984Y-122749301D01*
X215401955Y-123520969D01*
X215666164Y-124325565D01*
X215927650Y-124922832D01*
X216208569Y-125447108D01*
X216505667Y-125892652D01*
X216802931Y-126241155D01*
X217084344Y-126474309D01*
X217333891Y-126573805D01*
X217373846Y-126576109D01*
X217530263Y-126529439D01*
X217693874Y-126422018D01*
X217837733Y-126266706D01*
X218008934Y-126042772D01*
X218095697Y-125914576D01*
X218293512Y-125662475D01*
X218468412Y-125568451D01*
X218633169Y-125628069D01*
X218706376Y-125702600D01*
X218823908Y-125791623D01*
X218889590Y-125757081D01*
X218884441Y-125657446D01*
X218796313Y-125496376D01*
X218649767Y-125302504D01*
X218469369Y-125104463D01*
X218279682Y-124930888D01*
X218105271Y-124810412D01*
X218058705Y-124788546D01*
X217803467Y-124731838D01*
X217576989Y-124793804D01*
X217351241Y-124988258D01*
X217166164Y-125228468D01*
X216958151Y-125495522D01*
X216791205Y-125619005D01*
X216642754Y-125601885D01*
X216490230Y-125447132D01*
X216410800Y-125327834D01*
X216202906Y-124872347D01*
X216063642Y-124309748D01*
X215994282Y-123676479D01*
X215996098Y-123008982D01*
X216070364Y-122343701D01*
X216218352Y-121717076D01*
X216278436Y-121539000D01*
X216559162Y-120902856D01*
X216880411Y-120425047D01*
X217245323Y-120102078D01*
X217657038Y-119930453D01*
X217737102Y-119915246D01*
X218103635Y-119925249D01*
X218434852Y-120060522D01*
X218712940Y-120299764D01*
X218920086Y-120621678D01*
X219038477Y-121004963D01*
X219050301Y-121428320D01*
X219044097Y-121478093D01*
X218941040Y-121920653D01*
X218776220Y-122215652D01*
X218547989Y-122364694D01*
X218254700Y-122369378D01*
X218154250Y-122343022D01*
X217920228Y-122290537D01*
X217662158Y-122262170D01*
X217609694Y-122260687D01*
X217335302Y-122321721D01*
X217142381Y-122512123D01*
X217026912Y-122836238D01*
X217014851Y-122903967D01*
X216995445Y-123165248D01*
X217015854Y-123382690D01*
X217063504Y-123530734D01*
X217125820Y-123583824D01*
X217190227Y-123516403D01*
X217235818Y-123353056D01*
X217260677Y-123252042D01*
X217307953Y-123192859D01*
X217405248Y-123166537D01*
X217580164Y-123164101D01*
X217789490Y-123173074D01*
X218207434Y-123156800D01*
X218533815Y-123051072D01*
X218791410Y-122840140D01*
X219002994Y-122508256D01*
X219111839Y-122258667D01*
X219201149Y-121892887D01*
X219235585Y-121436628D01*
X219216188Y-120951451D01*
X219144001Y-120498917D01*
X219078304Y-120275527D01*
X218812055Y-119718600D01*
X218477560Y-119293521D01*
X218090218Y-119004715D01*
X217665427Y-118856612D01*
X217218585Y-118853636D01*
X216765090Y-119000216D01*
X216320341Y-119300778D01*
X216172580Y-119440129D01*
X215881731Y-119736143D01*
X215731052Y-119479434D01*
X215443199Y-119107257D01*
X215117253Y-118888948D01*
X214769171Y-118825140D01*
X214414910Y-118916469D01*
G36*
X208321959Y-121296482D02*
G01*
X208096665Y-121536940D01*
X207841964Y-121761348D01*
X207591606Y-121944326D01*
X207379344Y-122060488D01*
X207268807Y-122088506D01*
X207230504Y-122126116D01*
X207290158Y-122246713D01*
X207319132Y-122289123D01*
X207375081Y-122371614D01*
X207416191Y-122454259D01*
X207444477Y-122562475D01*
X207461952Y-122721682D01*
X207470629Y-122957299D01*
X207472521Y-123294744D01*
X207469641Y-123759436D01*
X207466133Y-124145157D01*
X207459771Y-124639260D01*
X207449872Y-124989403D01*
X207434193Y-125220950D01*
X207410494Y-125359266D01*
X207376531Y-125429716D01*
X207350839Y-125449686D01*
X207217757Y-125450367D01*
X207122405Y-125398829D01*
X206997847Y-125334194D01*
X206952095Y-125394121D01*
X206996781Y-125559466D01*
X207008870Y-125585684D01*
X207091022Y-125760794D01*
X207208532Y-126015199D01*
X207296926Y-126208297D01*
X207495670Y-126644261D01*
X207770076Y-126460051D01*
X207991659Y-126258697D01*
X208149019Y-126015030D01*
X208157267Y-125995442D01*
X208239360Y-125800923D01*
X208297581Y-125679803D01*
X208303927Y-125669876D01*
X208365487Y-125697839D01*
X208500909Y-125811166D01*
X208685506Y-125988410D01*
X208769277Y-126074162D01*
X209020335Y-126335586D01*
X209187863Y-126507800D01*
X209288708Y-126605338D01*
X209339713Y-126642733D01*
X209357724Y-126634518D01*
X209359586Y-126595229D01*
X209359500Y-126583407D01*
X209400038Y-126474050D01*
X209505742Y-126286664D01*
X209637159Y-126086206D01*
X209919892Y-125622554D01*
X210102827Y-125167360D01*
X210204028Y-124666008D01*
X210235036Y-124278559D01*
X210234947Y-123803748D01*
X210216920Y-123671835D01*
X209473685Y-123671835D01*
X209420191Y-124172509D01*
X209316093Y-124650167D01*
X209171595Y-125065336D01*
X208996895Y-125378542D01*
X208865228Y-125513740D01*
X208695920Y-125618026D01*
X208573762Y-125624447D01*
X208442247Y-125532976D01*
X208421130Y-125513533D01*
X208369577Y-125458363D01*
X208332395Y-125386684D01*
X208307239Y-125272482D01*
X208291765Y-125089745D01*
X208283631Y-124812461D01*
X208280492Y-124414616D01*
X208280000Y-123947199D01*
X208282000Y-123402188D01*
X208288769Y-123006622D01*
X208301467Y-122740680D01*
X208321252Y-122584542D01*
X208349282Y-122518387D01*
X208363821Y-122512667D01*
X208455797Y-122460886D01*
X208602891Y-122327743D01*
X208714559Y-122208037D01*
X208895708Y-122030154D01*
X209034338Y-121950363D01*
X209078478Y-121953037D01*
X209174196Y-122073881D01*
X209276036Y-122315908D01*
X209369571Y-122633197D01*
X209440374Y-122979830D01*
X209466376Y-123187616D01*
X209473685Y-123671835D01*
X210216920Y-123671835D01*
X210179448Y-123397643D01*
X210055698Y-123025326D01*
X209850857Y-122651879D01*
X209552082Y-122242384D01*
X209432074Y-122095060D01*
X209203869Y-121808833D01*
X208999289Y-121531537D01*
X208845189Y-121300684D01*
X208781399Y-121186092D01*
X208649667Y-120901895D01*
X208321959Y-121296482D01*
G37*
X208321959Y-121296482D02*
X208096665Y-121536940D01*
X207841964Y-121761348D01*
X207591606Y-121944326D01*
X207379344Y-122060488D01*
X207268807Y-122088506D01*
X207230504Y-122126116D01*
X207290158Y-122246713D01*
X207319132Y-122289123D01*
X207375081Y-122371614D01*
X207416191Y-122454259D01*
X207444477Y-122562475D01*
X207461952Y-122721682D01*
X207470629Y-122957299D01*
X207472521Y-123294744D01*
X207469641Y-123759436D01*
X207466133Y-124145157D01*
X207459771Y-124639260D01*
X207449872Y-124989403D01*
X207434193Y-125220950D01*
X207410494Y-125359266D01*
X207376531Y-125429716D01*
X207350839Y-125449686D01*
X207217757Y-125450367D01*
X207122405Y-125398829D01*
X206997847Y-125334194D01*
X206952095Y-125394121D01*
X206996781Y-125559466D01*
X207008870Y-125585684D01*
X207091022Y-125760794D01*
X207208532Y-126015199D01*
X207296926Y-126208297D01*
X207495670Y-126644261D01*
X207770076Y-126460051D01*
X207991659Y-126258697D01*
X208149019Y-126015030D01*
X208157267Y-125995442D01*
X208239360Y-125800923D01*
X208297581Y-125679803D01*
X208303927Y-125669876D01*
X208365487Y-125697839D01*
X208500909Y-125811166D01*
X208685506Y-125988410D01*
X208769277Y-126074162D01*
X209020335Y-126335586D01*
X209187863Y-126507800D01*
X209288708Y-126605338D01*
X209339713Y-126642733D01*
X209357724Y-126634518D01*
X209359586Y-126595229D01*
X209359500Y-126583407D01*
X209400038Y-126474050D01*
X209505742Y-126286664D01*
X209637159Y-126086206D01*
X209919892Y-125622554D01*
X210102827Y-125167360D01*
X210204028Y-124666008D01*
X210235036Y-124278559D01*
X210234947Y-123803748D01*
X210216920Y-123671835D01*
X209473685Y-123671835D01*
X209420191Y-124172509D01*
X209316093Y-124650167D01*
X209171595Y-125065336D01*
X208996895Y-125378542D01*
X208865228Y-125513740D01*
X208695920Y-125618026D01*
X208573762Y-125624447D01*
X208442247Y-125532976D01*
X208421130Y-125513533D01*
X208369577Y-125458363D01*
X208332395Y-125386684D01*
X208307239Y-125272482D01*
X208291765Y-125089745D01*
X208283631Y-124812461D01*
X208280492Y-124414616D01*
X208280000Y-123947199D01*
X208282000Y-123402188D01*
X208288769Y-123006622D01*
X208301467Y-122740680D01*
X208321252Y-122584542D01*
X208349282Y-122518387D01*
X208363821Y-122512667D01*
X208455797Y-122460886D01*
X208602891Y-122327743D01*
X208714559Y-122208037D01*
X208895708Y-122030154D01*
X209034338Y-121950363D01*
X209078478Y-121953037D01*
X209174196Y-122073881D01*
X209276036Y-122315908D01*
X209369571Y-122633197D01*
X209440374Y-122979830D01*
X209466376Y-123187616D01*
X209473685Y-123671835D01*
X210216920Y-123671835D01*
X210179448Y-123397643D01*
X210055698Y-123025326D01*
X209850857Y-122651879D01*
X209552082Y-122242384D01*
X209432074Y-122095060D01*
X209203869Y-121808833D01*
X208999289Y-121531537D01*
X208845189Y-121300684D01*
X208781399Y-121186092D01*
X208649667Y-120901895D01*
X208321959Y-121296482D01*
G36*
X194998006Y-118770097D02*
G01*
X194863840Y-118809720D01*
X194835197Y-118866682D01*
X194918521Y-118926265D01*
X195120259Y-118973754D01*
X195137713Y-118976083D01*
X195477806Y-119082547D01*
X195724229Y-119302364D01*
X195876141Y-119634777D01*
X195878041Y-119641930D01*
X195912023Y-119846437D01*
X195936806Y-120140632D01*
X195952057Y-120484671D01*
X195957440Y-120838708D01*
X195952621Y-121162898D01*
X195937264Y-121417396D01*
X195911034Y-121562358D01*
X195894347Y-121581334D01*
X195752840Y-121526035D01*
X195548871Y-121375159D01*
X195310987Y-121151237D01*
X195203637Y-121036165D01*
X195011371Y-120835249D01*
X194892860Y-120750400D01*
X194833343Y-120776253D01*
X194818000Y-120895990D01*
X194779027Y-121048246D01*
X194678901Y-121266595D01*
X194590732Y-121420010D01*
X194421727Y-121720994D01*
X194255336Y-122065674D01*
X194193857Y-122211187D01*
X194119489Y-122413038D01*
X194070635Y-122598623D01*
X194042016Y-122811654D01*
X194028350Y-123095842D01*
X194024356Y-123494897D01*
X194024250Y-123615114D01*
X194026152Y-124042909D01*
X194036248Y-124349064D01*
X194061125Y-124581256D01*
X194107368Y-124787166D01*
X194181565Y-125014471D01*
X194239541Y-125173651D01*
X194476414Y-125694291D01*
X194813340Y-126253869D01*
X194938041Y-126434140D01*
X195202141Y-126789939D01*
X195475175Y-127132761D01*
X195742184Y-127446685D01*
X195988207Y-127715788D01*
X196198284Y-127924149D01*
X196357455Y-128055846D01*
X196450759Y-128094958D01*
X196469000Y-128063488D01*
X196425958Y-127994484D01*
X196307568Y-127829788D01*
X196129939Y-127591200D01*
X195909177Y-127300522D01*
X195808425Y-127169389D01*
X195483004Y-126731939D01*
X195247329Y-126377975D01*
X195089793Y-126088941D01*
X195015201Y-125901335D01*
X194874764Y-125312138D01*
X194802039Y-124656773D01*
X194795018Y-123976741D01*
X194851694Y-123313538D01*
X194970058Y-122708662D01*
X195148104Y-122203613D01*
X195198988Y-122102792D01*
X195402084Y-121814532D01*
X195606947Y-121690926D01*
X195809794Y-121734117D01*
X195828086Y-121746446D01*
X195881990Y-121795416D01*
X195918973Y-121871214D01*
X195942201Y-122002935D01*
X195954837Y-122219677D01*
X195960046Y-122550534D01*
X195961000Y-122968538D01*
X195957651Y-123463512D01*
X195948543Y-123967887D01*
X195935085Y-124421210D01*
X195919445Y-124751250D01*
X195896893Y-125079599D01*
X195873544Y-125272059D01*
X195838402Y-125361526D01*
X195780472Y-125380897D01*
X195713070Y-125368665D01*
X195535699Y-125311934D01*
X195426664Y-125261897D01*
X195412853Y-125290949D01*
X195471672Y-125423710D01*
X195591586Y-125637083D01*
X195708767Y-125826855D01*
X196112457Y-126460532D01*
X196506495Y-126062870D01*
X196705630Y-125867631D01*
X196872905Y-125713968D01*
X196976912Y-125630522D01*
X196986392Y-125625215D01*
X197018301Y-125563893D01*
X196944175Y-125445985D01*
X196913500Y-125411250D01*
X196859835Y-125348723D01*
X196819597Y-125279166D01*
X196790523Y-125178635D01*
X196770347Y-125023185D01*
X196756807Y-124788870D01*
X196747637Y-124451745D01*
X196740575Y-123987864D01*
X196735092Y-123524418D01*
X196731420Y-122942555D01*
X196734354Y-122452165D01*
X196743436Y-122073115D01*
X196758212Y-121825272D01*
X196776286Y-121730420D01*
X196838013Y-121754114D01*
X196947915Y-121877150D01*
X197080393Y-122061043D01*
X197209843Y-122267305D01*
X197310667Y-122457448D01*
X197357261Y-122592985D01*
X197358000Y-122604936D01*
X197394829Y-122675864D01*
X197495984Y-122629560D01*
X197647466Y-122482088D01*
X197835276Y-122249513D01*
X198045417Y-121947899D01*
X198263891Y-121593309D01*
X198310500Y-121511880D01*
X198454211Y-121319888D01*
X198579821Y-121292587D01*
X198692864Y-121431640D01*
X198774304Y-121651367D01*
X198879823Y-122162838D01*
X198917913Y-122727885D01*
X198894039Y-123312431D01*
X198813664Y-123882398D01*
X198682254Y-124403707D01*
X198505274Y-124842282D01*
X198288187Y-125164043D01*
X198197614Y-125247586D01*
X197909846Y-125387654D01*
X197577777Y-125418790D01*
X197336805Y-125366773D01*
X197214858Y-125339929D01*
X197195508Y-125380536D01*
X197270275Y-125473947D01*
X197430680Y-125605516D01*
X197505184Y-125657665D01*
X197710684Y-125808116D01*
X197954111Y-126002600D01*
X198104427Y-126130621D01*
X198438104Y-126424333D01*
X198608920Y-126225333D01*
X198967833Y-125785003D01*
X199231998Y-125396931D01*
X199414914Y-125024812D01*
X199530077Y-124632341D01*
X199590985Y-124183211D01*
X199611136Y-123641117D01*
X199611475Y-123528667D01*
X199584309Y-122904244D01*
X199496231Y-122395982D01*
X199335690Y-121964023D01*
X199091135Y-121568508D01*
X199014834Y-121469802D01*
X198794702Y-121241779D01*
X198525397Y-121029345D01*
X198247150Y-120858486D01*
X198000188Y-120755184D01*
X197879493Y-120736475D01*
X197781417Y-120802353D01*
X197654853Y-120967733D01*
X197590330Y-121078253D01*
X197449389Y-121311955D01*
X197305856Y-121502109D01*
X197256955Y-121551849D01*
X197137354Y-121636202D01*
X197038962Y-121619770D01*
X196938604Y-121540979D01*
X196852882Y-121454697D01*
X196805569Y-121353715D01*
X196787981Y-121192240D01*
X196791432Y-120924481D01*
X196796261Y-120790408D01*
X196839034Y-120299730D01*
X196936347Y-119877928D01*
X196993408Y-119710228D01*
X197084552Y-119453811D01*
X197147573Y-119260833D01*
X197167500Y-119181061D01*
X197139404Y-119120233D01*
X197061677Y-119197328D01*
X196944160Y-119400649D01*
X196890115Y-119510692D01*
X196707979Y-119895081D01*
X196491604Y-119558034D01*
X196175497Y-119186300D01*
X195786186Y-118917432D01*
X195363231Y-118776399D01*
X195231248Y-118762529D01*
X194998006Y-118770097D01*
G37*
X194998006Y-118770097D02*
X194863840Y-118809720D01*
X194835197Y-118866682D01*
X194918521Y-118926265D01*
X195120259Y-118973754D01*
X195137713Y-118976083D01*
X195477806Y-119082547D01*
X195724229Y-119302364D01*
X195876141Y-119634777D01*
X195878041Y-119641930D01*
X195912023Y-119846437D01*
X195936806Y-120140632D01*
X195952057Y-120484671D01*
X195957440Y-120838708D01*
X195952621Y-121162898D01*
X195937264Y-121417396D01*
X195911034Y-121562358D01*
X195894347Y-121581334D01*
X195752840Y-121526035D01*
X195548871Y-121375159D01*
X195310987Y-121151237D01*
X195203637Y-121036165D01*
X195011371Y-120835249D01*
X194892860Y-120750400D01*
X194833343Y-120776253D01*
X194818000Y-120895990D01*
X194779027Y-121048246D01*
X194678901Y-121266595D01*
X194590732Y-121420010D01*
X194421727Y-121720994D01*
X194255336Y-122065674D01*
X194193857Y-122211187D01*
X194119489Y-122413038D01*
X194070635Y-122598623D01*
X194042016Y-122811654D01*
X194028350Y-123095842D01*
X194024356Y-123494897D01*
X194024250Y-123615114D01*
X194026152Y-124042909D01*
X194036248Y-124349064D01*
X194061125Y-124581256D01*
X194107368Y-124787166D01*
X194181565Y-125014471D01*
X194239541Y-125173651D01*
X194476414Y-125694291D01*
X194813340Y-126253869D01*
X194938041Y-126434140D01*
X195202141Y-126789939D01*
X195475175Y-127132761D01*
X195742184Y-127446685D01*
X195988207Y-127715788D01*
X196198284Y-127924149D01*
X196357455Y-128055846D01*
X196450759Y-128094958D01*
X196469000Y-128063488D01*
X196425958Y-127994484D01*
X196307568Y-127829788D01*
X196129939Y-127591200D01*
X195909177Y-127300522D01*
X195808425Y-127169389D01*
X195483004Y-126731939D01*
X195247329Y-126377975D01*
X195089793Y-126088941D01*
X195015201Y-125901335D01*
X194874764Y-125312138D01*
X194802039Y-124656773D01*
X194795018Y-123976741D01*
X194851694Y-123313538D01*
X194970058Y-122708662D01*
X195148104Y-122203613D01*
X195198988Y-122102792D01*
X195402084Y-121814532D01*
X195606947Y-121690926D01*
X195809794Y-121734117D01*
X195828086Y-121746446D01*
X195881990Y-121795416D01*
X195918973Y-121871214D01*
X195942201Y-122002935D01*
X195954837Y-122219677D01*
X195960046Y-122550534D01*
X195961000Y-122968538D01*
X195957651Y-123463512D01*
X195948543Y-123967887D01*
X195935085Y-124421210D01*
X195919445Y-124751250D01*
X195896893Y-125079599D01*
X195873544Y-125272059D01*
X195838402Y-125361526D01*
X195780472Y-125380897D01*
X195713070Y-125368665D01*
X195535699Y-125311934D01*
X195426664Y-125261897D01*
X195412853Y-125290949D01*
X195471672Y-125423710D01*
X195591586Y-125637083D01*
X195708767Y-125826855D01*
X196112457Y-126460532D01*
X196506495Y-126062870D01*
X196705630Y-125867631D01*
X196872905Y-125713968D01*
X196976912Y-125630522D01*
X196986392Y-125625215D01*
X197018301Y-125563893D01*
X196944175Y-125445985D01*
X196913500Y-125411250D01*
X196859835Y-125348723D01*
X196819597Y-125279166D01*
X196790523Y-125178635D01*
X196770347Y-125023185D01*
X196756807Y-124788870D01*
X196747637Y-124451745D01*
X196740575Y-123987864D01*
X196735092Y-123524418D01*
X196731420Y-122942555D01*
X196734354Y-122452165D01*
X196743436Y-122073115D01*
X196758212Y-121825272D01*
X196776286Y-121730420D01*
X196838013Y-121754114D01*
X196947915Y-121877150D01*
X197080393Y-122061043D01*
X197209843Y-122267305D01*
X197310667Y-122457448D01*
X197357261Y-122592985D01*
X197358000Y-122604936D01*
X197394829Y-122675864D01*
X197495984Y-122629560D01*
X197647466Y-122482088D01*
X197835276Y-122249513D01*
X198045417Y-121947899D01*
X198263891Y-121593309D01*
X198310500Y-121511880D01*
X198454211Y-121319888D01*
X198579821Y-121292587D01*
X198692864Y-121431640D01*
X198774304Y-121651367D01*
X198879823Y-122162838D01*
X198917913Y-122727885D01*
X198894039Y-123312431D01*
X198813664Y-123882398D01*
X198682254Y-124403707D01*
X198505274Y-124842282D01*
X198288187Y-125164043D01*
X198197614Y-125247586D01*
X197909846Y-125387654D01*
X197577777Y-125418790D01*
X197336805Y-125366773D01*
X197214858Y-125339929D01*
X197195508Y-125380536D01*
X197270275Y-125473947D01*
X197430680Y-125605516D01*
X197505184Y-125657665D01*
X197710684Y-125808116D01*
X197954111Y-126002600D01*
X198104427Y-126130621D01*
X198438104Y-126424333D01*
X198608920Y-126225333D01*
X198967833Y-125785003D01*
X199231998Y-125396931D01*
X199414914Y-125024812D01*
X199530077Y-124632341D01*
X199590985Y-124183211D01*
X199611136Y-123641117D01*
X199611475Y-123528667D01*
X199584309Y-122904244D01*
X199496231Y-122395982D01*
X199335690Y-121964023D01*
X199091135Y-121568508D01*
X199014834Y-121469802D01*
X198794702Y-121241779D01*
X198525397Y-121029345D01*
X198247150Y-120858486D01*
X198000188Y-120755184D01*
X197879493Y-120736475D01*
X197781417Y-120802353D01*
X197654853Y-120967733D01*
X197590330Y-121078253D01*
X197449389Y-121311955D01*
X197305856Y-121502109D01*
X197256955Y-121551849D01*
X197137354Y-121636202D01*
X197038962Y-121619770D01*
X196938604Y-121540979D01*
X196852882Y-121454697D01*
X196805569Y-121353715D01*
X196787981Y-121192240D01*
X196791432Y-120924481D01*
X196796261Y-120790408D01*
X196839034Y-120299730D01*
X196936347Y-119877928D01*
X196993408Y-119710228D01*
X197084552Y-119453811D01*
X197147573Y-119260833D01*
X197167500Y-119181061D01*
X197139404Y-119120233D01*
X197061677Y-119197328D01*
X196944160Y-119400649D01*
X196890115Y-119510692D01*
X196707979Y-119895081D01*
X196491604Y-119558034D01*
X196175497Y-119186300D01*
X195786186Y-118917432D01*
X195363231Y-118776399D01*
X195231248Y-118762529D01*
X194998006Y-118770097D01*
M02*
