G04 #@! TF.GenerationSoftware,KiCad,Pcbnew,(5.1.5)-3*
G04 #@! TF.CreationDate,2020-08-02T14:39:13-05:00*
G04 #@! TF.ProjectId,masochist,6d61736f-6368-4697-9374-2e6b69636164,rev?*
G04 #@! TF.SameCoordinates,Original*
G04 #@! TF.FileFunction,Legend,Top*
G04 #@! TF.FilePolarity,Positive*
%FSLAX46Y46*%
G04 Gerber Fmt 4.6, Leading zero omitted, Abs format (unit mm)*
G04 Created by KiCad (PCBNEW (5.1.5)-3) date 2020-08-02 14:39:13*
%MOMM*%
%LPD*%
G04 APERTURE LIST*
%ADD10C,0.120000*%
%ADD11C,0.200000*%
%ADD12C,0.203200*%
%ADD13C,0.150000*%
G04 APERTURE END LIST*
D10*
X233174000Y-47386000D02*
X239574000Y-47386000D01*
X233174000Y-52436000D02*
X239574000Y-52436000D01*
X233174000Y-52436000D02*
G75*
G02X233174000Y-47386000I0J2525000D01*
G01*
X239574000Y-52436000D02*
G75*
G03X239574000Y-47386000I0J2525000D01*
G01*
X212252250Y-37990000D02*
X212252250Y-39640000D01*
X247932250Y-37990000D02*
X212252250Y-37990000D01*
X247932250Y-43290000D02*
X247932250Y-37990000D01*
X212252250Y-43290000D02*
X247932250Y-43290000D01*
X212252250Y-41640000D02*
X212252250Y-43290000D01*
X212252250Y-39640000D02*
G75*
G02X212252250Y-41640000I0J-1000000D01*
G01*
X127870000Y-36243000D02*
X127870000Y-37743000D01*
X129120000Y-40243000D02*
X133620000Y-40243000D01*
X134870000Y-37743000D02*
X134870000Y-36243000D01*
X133620000Y-33743000D02*
X129120000Y-33743000D01*
X115805000Y-36243000D02*
X115805000Y-37743000D01*
X117055000Y-40243000D02*
X121555000Y-40243000D01*
X122805000Y-37743000D02*
X122805000Y-36243000D01*
X121555000Y-33743000D02*
X117055000Y-33743000D01*
X204358000Y-49942000D02*
X200518000Y-49942000D01*
X204358000Y-48102000D02*
X200518000Y-48102000D01*
X204358000Y-50896000D02*
X200518000Y-50896000D01*
X204358000Y-52736000D02*
X200518000Y-52736000D01*
X200518000Y-47148000D02*
X204358000Y-47148000D01*
X200518000Y-45308000D02*
X204358000Y-45308000D01*
X200518000Y-44354000D02*
X204358000Y-44354000D01*
X200518000Y-42514000D02*
X204358000Y-42514000D01*
X204358000Y-36926000D02*
X200518000Y-36926000D01*
X204358000Y-38766000D02*
X200518000Y-38766000D01*
X204358000Y-39720000D02*
X200518000Y-39720000D01*
X204358000Y-41560000D02*
X200518000Y-41560000D01*
X200518000Y-35972000D02*
X204358000Y-35972000D01*
X200518000Y-34132000D02*
X204358000Y-34132000D01*
X175296000Y-33337000D02*
X175296000Y-33181000D01*
X175296000Y-35653000D02*
X175296000Y-35497000D01*
X172694870Y-33337163D02*
G75*
G02X174776961Y-33337000I1041130J-1079837D01*
G01*
X172694870Y-35496837D02*
G75*
G03X174776961Y-35497000I1041130J1079837D01*
G01*
X172063665Y-33338392D02*
G75*
G02X175296000Y-33181484I1672335J-1078608D01*
G01*
X172063665Y-35495608D02*
G75*
G03X175296000Y-35652516I1672335J1078608D01*
G01*
D11*
X144379000Y-35423000D02*
X144379000Y-34623000D01*
X144379000Y-34623000D02*
X141829000Y-34623000D01*
X141829000Y-34623000D02*
X141829000Y-35423000D01*
D12*
X139319000Y-35433000D02*
X146939000Y-35433000D01*
X146939000Y-40513000D02*
X139319000Y-40513000D01*
X139319000Y-40513000D02*
X139319000Y-35433000D01*
X146939000Y-35433000D02*
X146939000Y-40513000D01*
D13*
X168137500Y-31750000D02*
X158887500Y-31750000D01*
X167987500Y-38410000D02*
X159037500Y-38410000D01*
X159032500Y-30000000D02*
X159037500Y-29240000D01*
X167987500Y-29240000D02*
X159037500Y-29240000D01*
X167987500Y-29240000D02*
X167992500Y-30000000D01*
X163512500Y-31750000D02*
X163512500Y-33020000D01*
D10*
X196542000Y-50816000D02*
X193572000Y-50816000D01*
X196552000Y-52816000D02*
X193562000Y-52806000D01*
X193562000Y-50816000D02*
X193562000Y-52806000D01*
X193352000Y-51826000D02*
X194472000Y-51826000D01*
X196812000Y-51826000D02*
X195532000Y-51826000D01*
X196552000Y-50816000D02*
X196552000Y-52816000D01*
X195422000Y-51826000D02*
X194472000Y-52366000D01*
X195412000Y-51816000D02*
X194502000Y-51286000D01*
X194472000Y-51286000D02*
X194472000Y-52366000D01*
X195522000Y-51286000D02*
X195522000Y-52366000D01*
X196542000Y-48022000D02*
X193572000Y-48022000D01*
X196552000Y-50022000D02*
X193562000Y-50012000D01*
X193562000Y-48022000D02*
X193562000Y-50012000D01*
X193352000Y-49032000D02*
X194472000Y-49032000D01*
X196812000Y-49032000D02*
X195532000Y-49032000D01*
X196552000Y-48022000D02*
X196552000Y-50022000D01*
X195422000Y-49032000D02*
X194472000Y-49572000D01*
X195412000Y-49022000D02*
X194502000Y-48492000D01*
X194472000Y-48492000D02*
X194472000Y-49572000D01*
X195522000Y-48492000D02*
X195522000Y-49572000D01*
X156480000Y-44758000D02*
X156480000Y-47728000D01*
X158480000Y-44748000D02*
X158470000Y-47738000D01*
X156480000Y-47738000D02*
X158470000Y-47738000D01*
X157490000Y-47948000D02*
X157490000Y-46828000D01*
X157490000Y-44488000D02*
X157490000Y-45768000D01*
X156480000Y-44748000D02*
X158480000Y-44748000D01*
X157490000Y-45878000D02*
X158030000Y-46828000D01*
X157480000Y-45888000D02*
X156950000Y-46798000D01*
X156950000Y-46828000D02*
X158030000Y-46828000D01*
X156950000Y-45778000D02*
X158030000Y-45778000D01*
X150130000Y-46155000D02*
X150130000Y-49125000D01*
X152130000Y-46145000D02*
X152120000Y-49135000D01*
X150130000Y-49135000D02*
X152120000Y-49135000D01*
X151140000Y-49345000D02*
X151140000Y-48225000D01*
X151140000Y-45885000D02*
X151140000Y-47165000D01*
X150130000Y-46145000D02*
X152130000Y-46145000D01*
X151140000Y-47275000D02*
X151680000Y-48225000D01*
X151130000Y-47285000D02*
X150600000Y-48195000D01*
X150600000Y-48225000D02*
X151680000Y-48225000D01*
X150600000Y-47175000D02*
X151680000Y-47175000D01*
X153305000Y-45393000D02*
X153305000Y-48363000D01*
X155305000Y-45383000D02*
X155295000Y-48373000D01*
X153305000Y-48373000D02*
X155295000Y-48373000D01*
X154315000Y-48583000D02*
X154315000Y-47463000D01*
X154315000Y-45123000D02*
X154315000Y-46403000D01*
X153305000Y-45383000D02*
X155305000Y-45383000D01*
X154315000Y-46513000D02*
X154855000Y-47463000D01*
X154305000Y-46523000D02*
X153775000Y-47433000D01*
X153775000Y-47463000D02*
X154855000Y-47463000D01*
X153775000Y-46413000D02*
X154855000Y-46413000D01*
X129810000Y-46155000D02*
X129810000Y-49125000D01*
X131810000Y-46145000D02*
X131800000Y-49135000D01*
X129810000Y-49135000D02*
X131800000Y-49135000D01*
X130820000Y-49345000D02*
X130820000Y-48225000D01*
X130820000Y-45885000D02*
X130820000Y-47165000D01*
X129810000Y-46145000D02*
X131810000Y-46145000D01*
X130820000Y-47275000D02*
X131360000Y-48225000D01*
X130810000Y-47285000D02*
X130280000Y-48195000D01*
X130280000Y-48225000D02*
X131360000Y-48225000D01*
X130280000Y-47175000D02*
X131360000Y-47175000D01*
X143145000Y-45520000D02*
X143145000Y-48490000D01*
X145145000Y-45510000D02*
X145135000Y-48500000D01*
X143145000Y-48500000D02*
X145135000Y-48500000D01*
X144155000Y-48710000D02*
X144155000Y-47590000D01*
X144155000Y-45250000D02*
X144155000Y-46530000D01*
X143145000Y-45510000D02*
X145145000Y-45510000D01*
X144155000Y-46640000D02*
X144695000Y-47590000D01*
X144145000Y-46650000D02*
X143615000Y-47560000D01*
X143615000Y-47590000D02*
X144695000Y-47590000D01*
X143615000Y-46540000D02*
X144695000Y-46540000D01*
X146320000Y-44885000D02*
X146320000Y-47855000D01*
X148320000Y-44875000D02*
X148310000Y-47865000D01*
X146320000Y-47865000D02*
X148310000Y-47865000D01*
X147330000Y-48075000D02*
X147330000Y-46955000D01*
X147330000Y-44615000D02*
X147330000Y-45895000D01*
X146320000Y-44875000D02*
X148320000Y-44875000D01*
X147330000Y-46005000D02*
X147870000Y-46955000D01*
X147320000Y-46015000D02*
X146790000Y-46925000D01*
X146790000Y-46955000D02*
X147870000Y-46955000D01*
X146790000Y-45905000D02*
X147870000Y-45905000D01*
X119650000Y-46155000D02*
X119650000Y-49125000D01*
X121650000Y-46145000D02*
X121640000Y-49135000D01*
X119650000Y-49135000D02*
X121640000Y-49135000D01*
X120660000Y-49345000D02*
X120660000Y-48225000D01*
X120660000Y-45885000D02*
X120660000Y-47165000D01*
X119650000Y-46145000D02*
X121650000Y-46145000D01*
X120660000Y-47275000D02*
X121200000Y-48225000D01*
X120650000Y-47285000D02*
X120120000Y-48195000D01*
X120120000Y-48225000D02*
X121200000Y-48225000D01*
X120120000Y-47175000D02*
X121200000Y-47175000D01*
X132985000Y-45520000D02*
X132985000Y-48490000D01*
X134985000Y-45510000D02*
X134975000Y-48500000D01*
X132985000Y-48500000D02*
X134975000Y-48500000D01*
X133995000Y-48710000D02*
X133995000Y-47590000D01*
X133995000Y-45250000D02*
X133995000Y-46530000D01*
X132985000Y-45510000D02*
X134985000Y-45510000D01*
X133995000Y-46640000D02*
X134535000Y-47590000D01*
X133985000Y-46650000D02*
X133455000Y-47560000D01*
X133455000Y-47590000D02*
X134535000Y-47590000D01*
X133455000Y-46540000D02*
X134535000Y-46540000D01*
X136160000Y-44885000D02*
X136160000Y-47855000D01*
X138160000Y-44875000D02*
X138150000Y-47865000D01*
X136160000Y-47865000D02*
X138150000Y-47865000D01*
X137170000Y-48075000D02*
X137170000Y-46955000D01*
X137170000Y-44615000D02*
X137170000Y-45895000D01*
X136160000Y-44875000D02*
X138160000Y-44875000D01*
X137170000Y-46005000D02*
X137710000Y-46955000D01*
X137160000Y-46015000D02*
X136630000Y-46925000D01*
X136630000Y-46955000D02*
X137710000Y-46955000D01*
X136630000Y-45905000D02*
X137710000Y-45905000D01*
X139970000Y-46155000D02*
X139970000Y-49125000D01*
X141970000Y-46145000D02*
X141960000Y-49135000D01*
X139970000Y-49135000D02*
X141960000Y-49135000D01*
X140980000Y-49345000D02*
X140980000Y-48225000D01*
X140980000Y-45885000D02*
X140980000Y-47165000D01*
X139970000Y-46145000D02*
X141970000Y-46145000D01*
X140980000Y-47275000D02*
X141520000Y-48225000D01*
X140970000Y-47285000D02*
X140440000Y-48195000D01*
X140440000Y-48225000D02*
X141520000Y-48225000D01*
X140440000Y-47175000D02*
X141520000Y-47175000D01*
X109490000Y-46155000D02*
X109490000Y-49125000D01*
X111490000Y-46145000D02*
X111480000Y-49135000D01*
X109490000Y-49135000D02*
X111480000Y-49135000D01*
X110500000Y-49345000D02*
X110500000Y-48225000D01*
X110500000Y-45885000D02*
X110500000Y-47165000D01*
X109490000Y-46145000D02*
X111490000Y-46145000D01*
X110500000Y-47275000D02*
X111040000Y-48225000D01*
X110490000Y-47285000D02*
X109960000Y-48195000D01*
X109960000Y-48225000D02*
X111040000Y-48225000D01*
X109960000Y-47175000D02*
X111040000Y-47175000D01*
X122825000Y-45520000D02*
X122825000Y-48490000D01*
X124825000Y-45510000D02*
X124815000Y-48500000D01*
X122825000Y-48500000D02*
X124815000Y-48500000D01*
X123835000Y-48710000D02*
X123835000Y-47590000D01*
X123835000Y-45250000D02*
X123835000Y-46530000D01*
X122825000Y-45510000D02*
X124825000Y-45510000D01*
X123835000Y-46640000D02*
X124375000Y-47590000D01*
X123825000Y-46650000D02*
X123295000Y-47560000D01*
X123295000Y-47590000D02*
X124375000Y-47590000D01*
X123295000Y-46540000D02*
X124375000Y-46540000D01*
X126000000Y-44885000D02*
X126000000Y-47855000D01*
X128000000Y-44875000D02*
X127990000Y-47865000D01*
X126000000Y-47865000D02*
X127990000Y-47865000D01*
X127010000Y-48075000D02*
X127010000Y-46955000D01*
X127010000Y-44615000D02*
X127010000Y-45895000D01*
X126000000Y-44875000D02*
X128000000Y-44875000D01*
X127010000Y-46005000D02*
X127550000Y-46955000D01*
X127000000Y-46015000D02*
X126470000Y-46925000D01*
X126470000Y-46955000D02*
X127550000Y-46955000D01*
X126470000Y-45905000D02*
X127550000Y-45905000D01*
X99330000Y-46155000D02*
X99330000Y-49125000D01*
X101330000Y-46145000D02*
X101320000Y-49135000D01*
X99330000Y-49135000D02*
X101320000Y-49135000D01*
X100340000Y-49345000D02*
X100340000Y-48225000D01*
X100340000Y-45885000D02*
X100340000Y-47165000D01*
X99330000Y-46145000D02*
X101330000Y-46145000D01*
X100340000Y-47275000D02*
X100880000Y-48225000D01*
X100330000Y-47285000D02*
X99800000Y-48195000D01*
X99800000Y-48225000D02*
X100880000Y-48225000D01*
X99800000Y-47175000D02*
X100880000Y-47175000D01*
X112665000Y-45520000D02*
X112665000Y-48490000D01*
X114665000Y-45510000D02*
X114655000Y-48500000D01*
X112665000Y-48500000D02*
X114655000Y-48500000D01*
X113675000Y-48710000D02*
X113675000Y-47590000D01*
X113675000Y-45250000D02*
X113675000Y-46530000D01*
X112665000Y-45510000D02*
X114665000Y-45510000D01*
X113675000Y-46640000D02*
X114215000Y-47590000D01*
X113665000Y-46650000D02*
X113135000Y-47560000D01*
X113135000Y-47590000D02*
X114215000Y-47590000D01*
X113135000Y-46540000D02*
X114215000Y-46540000D01*
X115840000Y-44885000D02*
X115840000Y-47855000D01*
X117840000Y-44875000D02*
X117830000Y-47865000D01*
X115840000Y-47865000D02*
X117830000Y-47865000D01*
X116850000Y-48075000D02*
X116850000Y-46955000D01*
X116850000Y-44615000D02*
X116850000Y-45895000D01*
X115840000Y-44875000D02*
X117840000Y-44875000D01*
X116850000Y-46005000D02*
X117390000Y-46955000D01*
X116840000Y-46015000D02*
X116310000Y-46925000D01*
X116310000Y-46955000D02*
X117390000Y-46955000D01*
X116310000Y-45905000D02*
X117390000Y-45905000D01*
X89640000Y-47175000D02*
X90720000Y-47175000D01*
X89640000Y-48225000D02*
X90720000Y-48225000D01*
X90170000Y-47285000D02*
X89640000Y-48195000D01*
X90180000Y-47275000D02*
X90720000Y-48225000D01*
X89170000Y-46145000D02*
X91170000Y-46145000D01*
X90180000Y-45885000D02*
X90180000Y-47165000D01*
X90180000Y-49345000D02*
X90180000Y-48225000D01*
X89170000Y-49135000D02*
X91160000Y-49135000D01*
X91170000Y-46145000D02*
X91160000Y-49135000D01*
X89170000Y-46155000D02*
X89170000Y-49125000D01*
X102505000Y-45520000D02*
X102505000Y-48490000D01*
X104505000Y-45510000D02*
X104495000Y-48500000D01*
X102505000Y-48500000D02*
X104495000Y-48500000D01*
X103515000Y-48710000D02*
X103515000Y-47590000D01*
X103515000Y-45250000D02*
X103515000Y-46530000D01*
X102505000Y-45510000D02*
X104505000Y-45510000D01*
X103515000Y-46640000D02*
X104055000Y-47590000D01*
X103505000Y-46650000D02*
X102975000Y-47560000D01*
X102975000Y-47590000D02*
X104055000Y-47590000D01*
X102975000Y-46540000D02*
X104055000Y-46540000D01*
X105680000Y-44885000D02*
X105680000Y-47855000D01*
X107680000Y-44875000D02*
X107670000Y-47865000D01*
X105680000Y-47865000D02*
X107670000Y-47865000D01*
X106690000Y-48075000D02*
X106690000Y-46955000D01*
X106690000Y-44615000D02*
X106690000Y-45895000D01*
X105680000Y-44875000D02*
X107680000Y-44875000D01*
X106690000Y-46005000D02*
X107230000Y-46955000D01*
X106680000Y-46015000D02*
X106150000Y-46925000D01*
X106150000Y-46955000D02*
X107230000Y-46955000D01*
X106150000Y-45905000D02*
X107230000Y-45905000D01*
X79010000Y-46155000D02*
X79010000Y-49125000D01*
X81010000Y-46145000D02*
X81000000Y-49135000D01*
X79010000Y-49135000D02*
X81000000Y-49135000D01*
X80020000Y-49345000D02*
X80020000Y-48225000D01*
X80020000Y-45885000D02*
X80020000Y-47165000D01*
X79010000Y-46145000D02*
X81010000Y-46145000D01*
X80020000Y-47275000D02*
X80560000Y-48225000D01*
X80010000Y-47285000D02*
X79480000Y-48195000D01*
X79480000Y-48225000D02*
X80560000Y-48225000D01*
X79480000Y-47175000D02*
X80560000Y-47175000D01*
X92815000Y-46540000D02*
X93895000Y-46540000D01*
X92815000Y-47590000D02*
X93895000Y-47590000D01*
X93345000Y-46650000D02*
X92815000Y-47560000D01*
X93355000Y-46640000D02*
X93895000Y-47590000D01*
X92345000Y-45510000D02*
X94345000Y-45510000D01*
X93355000Y-45250000D02*
X93355000Y-46530000D01*
X93355000Y-48710000D02*
X93355000Y-47590000D01*
X92345000Y-48500000D02*
X94335000Y-48500000D01*
X94345000Y-45510000D02*
X94335000Y-48500000D01*
X92345000Y-45520000D02*
X92345000Y-48490000D01*
X95990000Y-45905000D02*
X97070000Y-45905000D01*
X95990000Y-46955000D02*
X97070000Y-46955000D01*
X96520000Y-46015000D02*
X95990000Y-46925000D01*
X96530000Y-46005000D02*
X97070000Y-46955000D01*
X95520000Y-44875000D02*
X97520000Y-44875000D01*
X96530000Y-44615000D02*
X96530000Y-45895000D01*
X96530000Y-48075000D02*
X96530000Y-46955000D01*
X95520000Y-47865000D02*
X97510000Y-47865000D01*
X97520000Y-44875000D02*
X97510000Y-47865000D01*
X95520000Y-44885000D02*
X95520000Y-47855000D01*
X68850000Y-46155000D02*
X68850000Y-49125000D01*
X70850000Y-46145000D02*
X70840000Y-49135000D01*
X68850000Y-49135000D02*
X70840000Y-49135000D01*
X69860000Y-49345000D02*
X69860000Y-48225000D01*
X69860000Y-45885000D02*
X69860000Y-47165000D01*
X68850000Y-46145000D02*
X70850000Y-46145000D01*
X69860000Y-47275000D02*
X70400000Y-48225000D01*
X69850000Y-47285000D02*
X69320000Y-48195000D01*
X69320000Y-48225000D02*
X70400000Y-48225000D01*
X69320000Y-47175000D02*
X70400000Y-47175000D01*
X82185000Y-45393000D02*
X82185000Y-48363000D01*
X84185000Y-45383000D02*
X84175000Y-48373000D01*
X82185000Y-48373000D02*
X84175000Y-48373000D01*
X83195000Y-48583000D02*
X83195000Y-47463000D01*
X83195000Y-45123000D02*
X83195000Y-46403000D01*
X82185000Y-45383000D02*
X84185000Y-45383000D01*
X83195000Y-46513000D02*
X83735000Y-47463000D01*
X83185000Y-46523000D02*
X82655000Y-47433000D01*
X82655000Y-47463000D02*
X83735000Y-47463000D01*
X82655000Y-46413000D02*
X83735000Y-46413000D01*
X85360000Y-44758000D02*
X85360000Y-47728000D01*
X87360000Y-44748000D02*
X87350000Y-47738000D01*
X85360000Y-47738000D02*
X87350000Y-47738000D01*
X86370000Y-47948000D02*
X86370000Y-46828000D01*
X86370000Y-44488000D02*
X86370000Y-45768000D01*
X85360000Y-44748000D02*
X87360000Y-44748000D01*
X86370000Y-45878000D02*
X86910000Y-46828000D01*
X86360000Y-45888000D02*
X85830000Y-46798000D01*
X85830000Y-46828000D02*
X86910000Y-46828000D01*
X85830000Y-45778000D02*
X86910000Y-45778000D01*
X72025000Y-45520000D02*
X72025000Y-48490000D01*
X74025000Y-45510000D02*
X74015000Y-48500000D01*
X72025000Y-48500000D02*
X74015000Y-48500000D01*
X73035000Y-48710000D02*
X73035000Y-47590000D01*
X73035000Y-45250000D02*
X73035000Y-46530000D01*
X72025000Y-45510000D02*
X74025000Y-45510000D01*
X73035000Y-46640000D02*
X73575000Y-47590000D01*
X73025000Y-46650000D02*
X72495000Y-47560000D01*
X72495000Y-47590000D02*
X73575000Y-47590000D01*
X72495000Y-46540000D02*
X73575000Y-46540000D01*
X75200000Y-44885000D02*
X75200000Y-47855000D01*
X77200000Y-44875000D02*
X77190000Y-47865000D01*
X75200000Y-47865000D02*
X77190000Y-47865000D01*
X76210000Y-48075000D02*
X76210000Y-46955000D01*
X76210000Y-44615000D02*
X76210000Y-45895000D01*
X75200000Y-44875000D02*
X77200000Y-44875000D01*
X76210000Y-46005000D02*
X76750000Y-46955000D01*
X76200000Y-46015000D02*
X75670000Y-46925000D01*
X75670000Y-46955000D02*
X76750000Y-46955000D01*
X75670000Y-45905000D02*
X76750000Y-45905000D01*
X229164000Y-33108000D02*
X229164000Y-33093000D01*
X229164000Y-35233000D02*
X229164000Y-35218000D01*
X233704000Y-33108000D02*
X233704000Y-33093000D01*
X233704000Y-35233000D02*
X233704000Y-35218000D01*
X233704000Y-33093000D02*
X229164000Y-33093000D01*
X233704000Y-35233000D02*
X229164000Y-35233000D01*
X224497000Y-52268000D02*
X224482000Y-52268000D01*
X226622000Y-52268000D02*
X226607000Y-52268000D01*
X224497000Y-47728000D02*
X224482000Y-47728000D01*
X226622000Y-47728000D02*
X226607000Y-47728000D01*
X224482000Y-47728000D02*
X224482000Y-52268000D01*
X226622000Y-47728000D02*
X226622000Y-52268000D01*
X175729000Y-40374000D02*
G75*
G03X175729000Y-40374000I-2120000J0D01*
G01*
X172769000Y-40374000D02*
X171529000Y-40374000D01*
X175689000Y-40374000D02*
X174449000Y-40374000D01*
X172769000Y-40414000D02*
X171529000Y-40414000D01*
X175689000Y-40414000D02*
X174449000Y-40414000D01*
X172769000Y-40454000D02*
X171530000Y-40454000D01*
X175688000Y-40454000D02*
X174449000Y-40454000D01*
X175686000Y-40494000D02*
X174449000Y-40494000D01*
X172769000Y-40494000D02*
X171532000Y-40494000D01*
X175683000Y-40534000D02*
X174449000Y-40534000D01*
X172769000Y-40534000D02*
X171535000Y-40534000D01*
X175680000Y-40574000D02*
X174449000Y-40574000D01*
X172769000Y-40574000D02*
X171538000Y-40574000D01*
X175676000Y-40614000D02*
X174449000Y-40614000D01*
X172769000Y-40614000D02*
X171542000Y-40614000D01*
X175671000Y-40654000D02*
X174449000Y-40654000D01*
X172769000Y-40654000D02*
X171547000Y-40654000D01*
X175665000Y-40694000D02*
X174449000Y-40694000D01*
X172769000Y-40694000D02*
X171553000Y-40694000D01*
X175659000Y-40734000D02*
X174449000Y-40734000D01*
X172769000Y-40734000D02*
X171559000Y-40734000D01*
X175651000Y-40774000D02*
X174449000Y-40774000D01*
X172769000Y-40774000D02*
X171567000Y-40774000D01*
X175643000Y-40814000D02*
X174449000Y-40814000D01*
X172769000Y-40814000D02*
X171575000Y-40814000D01*
X175634000Y-40854000D02*
X174449000Y-40854000D01*
X172769000Y-40854000D02*
X171584000Y-40854000D01*
X175625000Y-40894000D02*
X174449000Y-40894000D01*
X172769000Y-40894000D02*
X171593000Y-40894000D01*
X175614000Y-40934000D02*
X174449000Y-40934000D01*
X172769000Y-40934000D02*
X171604000Y-40934000D01*
X175603000Y-40974000D02*
X174449000Y-40974000D01*
X172769000Y-40974000D02*
X171615000Y-40974000D01*
X175591000Y-41014000D02*
X174449000Y-41014000D01*
X172769000Y-41014000D02*
X171627000Y-41014000D01*
X175577000Y-41054000D02*
X174449000Y-41054000D01*
X172769000Y-41054000D02*
X171641000Y-41054000D01*
X175563000Y-41095000D02*
X174449000Y-41095000D01*
X172769000Y-41095000D02*
X171655000Y-41095000D01*
X175549000Y-41135000D02*
X174449000Y-41135000D01*
X172769000Y-41135000D02*
X171669000Y-41135000D01*
X175533000Y-41175000D02*
X174449000Y-41175000D01*
X172769000Y-41175000D02*
X171685000Y-41175000D01*
X175516000Y-41215000D02*
X174449000Y-41215000D01*
X172769000Y-41215000D02*
X171702000Y-41215000D01*
X175498000Y-41255000D02*
X174449000Y-41255000D01*
X172769000Y-41255000D02*
X171720000Y-41255000D01*
X175479000Y-41295000D02*
X174449000Y-41295000D01*
X172769000Y-41295000D02*
X171739000Y-41295000D01*
X175460000Y-41335000D02*
X174449000Y-41335000D01*
X172769000Y-41335000D02*
X171758000Y-41335000D01*
X175439000Y-41375000D02*
X174449000Y-41375000D01*
X172769000Y-41375000D02*
X171779000Y-41375000D01*
X175417000Y-41415000D02*
X174449000Y-41415000D01*
X172769000Y-41415000D02*
X171801000Y-41415000D01*
X175394000Y-41455000D02*
X174449000Y-41455000D01*
X172769000Y-41455000D02*
X171824000Y-41455000D01*
X175369000Y-41495000D02*
X174449000Y-41495000D01*
X172769000Y-41495000D02*
X171849000Y-41495000D01*
X175344000Y-41535000D02*
X174449000Y-41535000D01*
X172769000Y-41535000D02*
X171874000Y-41535000D01*
X175317000Y-41575000D02*
X174449000Y-41575000D01*
X172769000Y-41575000D02*
X171901000Y-41575000D01*
X175289000Y-41615000D02*
X174449000Y-41615000D01*
X172769000Y-41615000D02*
X171929000Y-41615000D01*
X175259000Y-41655000D02*
X174449000Y-41655000D01*
X172769000Y-41655000D02*
X171959000Y-41655000D01*
X175228000Y-41695000D02*
X174449000Y-41695000D01*
X172769000Y-41695000D02*
X171990000Y-41695000D01*
X175196000Y-41735000D02*
X174449000Y-41735000D01*
X172769000Y-41735000D02*
X172022000Y-41735000D01*
X175161000Y-41775000D02*
X174449000Y-41775000D01*
X172769000Y-41775000D02*
X172057000Y-41775000D01*
X175125000Y-41815000D02*
X174449000Y-41815000D01*
X172769000Y-41815000D02*
X172093000Y-41815000D01*
X175087000Y-41855000D02*
X174449000Y-41855000D01*
X172769000Y-41855000D02*
X172131000Y-41855000D01*
X175047000Y-41895000D02*
X174449000Y-41895000D01*
X172769000Y-41895000D02*
X172171000Y-41895000D01*
X175005000Y-41935000D02*
X174449000Y-41935000D01*
X172769000Y-41935000D02*
X172213000Y-41935000D01*
X174960000Y-41975000D02*
X172258000Y-41975000D01*
X174913000Y-42015000D02*
X172305000Y-42015000D01*
X174863000Y-42055000D02*
X172355000Y-42055000D01*
X174809000Y-42095000D02*
X172409000Y-42095000D01*
X174751000Y-42135000D02*
X172467000Y-42135000D01*
X174689000Y-42175000D02*
X172529000Y-42175000D01*
X174622000Y-42215000D02*
X172596000Y-42215000D01*
X174549000Y-42255000D02*
X172669000Y-42255000D01*
X174468000Y-42295000D02*
X172750000Y-42295000D01*
X174377000Y-42335000D02*
X172841000Y-42335000D01*
X174273000Y-42375000D02*
X172945000Y-42375000D01*
X174146000Y-42415000D02*
X173072000Y-42415000D01*
X173979000Y-42455000D02*
X173239000Y-42455000D01*
X174804000Y-38104199D02*
X174804000Y-38504199D01*
X175004000Y-38304199D02*
X174604000Y-38304199D01*
X244633000Y-50433000D02*
X244633000Y-49175000D01*
X242793000Y-50433000D02*
X242793000Y-49175000D01*
X229901000Y-50433000D02*
X229901000Y-49175000D01*
X228061000Y-50433000D02*
X228061000Y-49175000D01*
D13*
X235897809Y-49906126D02*
X235897809Y-50382316D01*
X235564476Y-49382316D02*
X235897809Y-49906126D01*
X236231142Y-49382316D01*
X237088285Y-50382316D02*
X236516857Y-50382316D01*
X236802571Y-50382316D02*
X236802571Y-49382316D01*
X236707333Y-49525174D01*
X236612095Y-49620412D01*
X236516857Y-49668031D01*
X210704630Y-41401904D02*
X211514154Y-41401904D01*
X211609392Y-41354285D01*
X211657011Y-41306666D01*
X211704630Y-41211428D01*
X211704630Y-41020952D01*
X211657011Y-40925714D01*
X211609392Y-40878095D01*
X211514154Y-40830476D01*
X210704630Y-40830476D01*
X211704630Y-39830476D02*
X211704630Y-40401904D01*
X211704630Y-40116190D02*
X210704630Y-40116190D01*
X210847488Y-40211428D01*
X210942726Y-40306666D01*
X210990345Y-40401904D01*
X202398333Y-49474380D02*
X202065000Y-48998190D01*
X201826904Y-49474380D02*
X201826904Y-48474380D01*
X202207857Y-48474380D01*
X202303095Y-48522000D01*
X202350714Y-48569619D01*
X202398333Y-48664857D01*
X202398333Y-48807714D01*
X202350714Y-48902952D01*
X202303095Y-48950571D01*
X202207857Y-48998190D01*
X201826904Y-48998190D01*
X202731666Y-48474380D02*
X203398333Y-48474380D01*
X202969761Y-49474380D01*
X202271333Y-52268380D02*
X201938000Y-51792190D01*
X201699904Y-52268380D02*
X201699904Y-51268380D01*
X202080857Y-51268380D01*
X202176095Y-51316000D01*
X202223714Y-51363619D01*
X202271333Y-51458857D01*
X202271333Y-51601714D01*
X202223714Y-51696952D01*
X202176095Y-51744571D01*
X202080857Y-51792190D01*
X201699904Y-51792190D01*
X203128476Y-51268380D02*
X202938000Y-51268380D01*
X202842761Y-51316000D01*
X202795142Y-51363619D01*
X202699904Y-51506476D01*
X202652285Y-51696952D01*
X202652285Y-52077904D01*
X202699904Y-52173142D01*
X202747523Y-52220761D01*
X202842761Y-52268380D01*
X203033238Y-52268380D01*
X203128476Y-52220761D01*
X203176095Y-52173142D01*
X203223714Y-52077904D01*
X203223714Y-51839809D01*
X203176095Y-51744571D01*
X203128476Y-51696952D01*
X203033238Y-51649333D01*
X202842761Y-51649333D01*
X202747523Y-51696952D01*
X202699904Y-51744571D01*
X202652285Y-51839809D01*
X202271333Y-46807380D02*
X201938000Y-46331190D01*
X201699904Y-46807380D02*
X201699904Y-45807380D01*
X202080857Y-45807380D01*
X202176095Y-45855000D01*
X202223714Y-45902619D01*
X202271333Y-45997857D01*
X202271333Y-46140714D01*
X202223714Y-46235952D01*
X202176095Y-46283571D01*
X202080857Y-46331190D01*
X201699904Y-46331190D01*
X203176095Y-45807380D02*
X202699904Y-45807380D01*
X202652285Y-46283571D01*
X202699904Y-46235952D01*
X202795142Y-46188333D01*
X203033238Y-46188333D01*
X203128476Y-46235952D01*
X203176095Y-46283571D01*
X203223714Y-46378809D01*
X203223714Y-46616904D01*
X203176095Y-46712142D01*
X203128476Y-46759761D01*
X203033238Y-46807380D01*
X202795142Y-46807380D01*
X202699904Y-46759761D01*
X202652285Y-46712142D01*
X201509333Y-43886380D02*
X201176000Y-43410190D01*
X200937904Y-43886380D02*
X200937904Y-42886380D01*
X201318857Y-42886380D01*
X201414095Y-42934000D01*
X201461714Y-42981619D01*
X201509333Y-43076857D01*
X201509333Y-43219714D01*
X201461714Y-43314952D01*
X201414095Y-43362571D01*
X201318857Y-43410190D01*
X200937904Y-43410190D01*
X202366476Y-43219714D02*
X202366476Y-43886380D01*
X202128380Y-42838761D02*
X201890285Y-43553047D01*
X202509333Y-43553047D01*
X202271333Y-38298380D02*
X201938000Y-37822190D01*
X201699904Y-38298380D02*
X201699904Y-37298380D01*
X202080857Y-37298380D01*
X202176095Y-37346000D01*
X202223714Y-37393619D01*
X202271333Y-37488857D01*
X202271333Y-37631714D01*
X202223714Y-37726952D01*
X202176095Y-37774571D01*
X202080857Y-37822190D01*
X201699904Y-37822190D01*
X202604666Y-37298380D02*
X203223714Y-37298380D01*
X202890380Y-37679333D01*
X203033238Y-37679333D01*
X203128476Y-37726952D01*
X203176095Y-37774571D01*
X203223714Y-37869809D01*
X203223714Y-38107904D01*
X203176095Y-38203142D01*
X203128476Y-38250761D01*
X203033238Y-38298380D01*
X202747523Y-38298380D01*
X202652285Y-38250761D01*
X202604666Y-38203142D01*
X202271333Y-41092380D02*
X201938000Y-40616190D01*
X201699904Y-41092380D02*
X201699904Y-40092380D01*
X202080857Y-40092380D01*
X202176095Y-40140000D01*
X202223714Y-40187619D01*
X202271333Y-40282857D01*
X202271333Y-40425714D01*
X202223714Y-40520952D01*
X202176095Y-40568571D01*
X202080857Y-40616190D01*
X201699904Y-40616190D01*
X202652285Y-40187619D02*
X202699904Y-40140000D01*
X202795142Y-40092380D01*
X203033238Y-40092380D01*
X203128476Y-40140000D01*
X203176095Y-40187619D01*
X203223714Y-40282857D01*
X203223714Y-40378095D01*
X203176095Y-40520952D01*
X202604666Y-41092380D01*
X203223714Y-41092380D01*
X202271333Y-35504380D02*
X201938000Y-35028190D01*
X201699904Y-35504380D02*
X201699904Y-34504380D01*
X202080857Y-34504380D01*
X202176095Y-34552000D01*
X202223714Y-34599619D01*
X202271333Y-34694857D01*
X202271333Y-34837714D01*
X202223714Y-34932952D01*
X202176095Y-34980571D01*
X202080857Y-35028190D01*
X201699904Y-35028190D01*
X203223714Y-35504380D02*
X202652285Y-35504380D01*
X202938000Y-35504380D02*
X202938000Y-34504380D01*
X202842761Y-34647238D01*
X202747523Y-34742476D01*
X202652285Y-34790095D01*
X163196664Y-30065010D02*
X163196664Y-30779296D01*
X163149045Y-30922153D01*
X163053807Y-31017391D01*
X162910950Y-31065010D01*
X162815712Y-31065010D01*
X164196664Y-31065010D02*
X163625236Y-31065010D01*
X163910950Y-31065010D02*
X163910950Y-30065010D01*
X163815712Y-30207868D01*
X163720474Y-30303106D01*
X163625236Y-30350725D01*
X155981571Y-38286523D02*
X155981571Y-38619857D01*
X156505380Y-38619857D02*
X155505380Y-38619857D01*
X155505380Y-38143666D01*
X155505380Y-37762714D02*
X156314904Y-37762714D01*
X156410142Y-37715095D01*
X156457761Y-37667476D01*
X156505380Y-37572238D01*
X156505380Y-37381761D01*
X156457761Y-37286523D01*
X156410142Y-37238904D01*
X156314904Y-37191285D01*
X155505380Y-37191285D01*
X156457761Y-36762714D02*
X156505380Y-36619857D01*
X156505380Y-36381761D01*
X156457761Y-36286523D01*
X156410142Y-36238904D01*
X156314904Y-36191285D01*
X156219666Y-36191285D01*
X156124428Y-36238904D01*
X156076809Y-36286523D01*
X156029190Y-36381761D01*
X155981571Y-36572238D01*
X155933952Y-36667476D01*
X155886333Y-36715095D01*
X155791095Y-36762714D01*
X155695857Y-36762714D01*
X155600619Y-36715095D01*
X155553000Y-36667476D01*
X155505380Y-36572238D01*
X155505380Y-36334142D01*
X155553000Y-36191285D01*
X155981571Y-35762714D02*
X155981571Y-35429380D01*
X156505380Y-35286523D02*
X156505380Y-35762714D01*
X155505380Y-35762714D01*
X155505380Y-35286523D01*
X189140571Y-52177904D02*
X189140571Y-51377904D01*
X189331047Y-51377904D01*
X189445333Y-51416000D01*
X189521523Y-51492190D01*
X189559619Y-51568380D01*
X189597714Y-51720761D01*
X189597714Y-51835047D01*
X189559619Y-51987428D01*
X189521523Y-52063619D01*
X189445333Y-52139809D01*
X189331047Y-52177904D01*
X189140571Y-52177904D01*
X189864380Y-51377904D02*
X190397714Y-51377904D01*
X189864380Y-52177904D01*
X190397714Y-52177904D01*
X190664380Y-51454095D02*
X190702476Y-51416000D01*
X190778666Y-51377904D01*
X190969142Y-51377904D01*
X191045333Y-51416000D01*
X191083428Y-51454095D01*
X191121523Y-51530285D01*
X191121523Y-51606476D01*
X191083428Y-51720761D01*
X190626285Y-52177904D01*
X191121523Y-52177904D01*
X189140571Y-49383904D02*
X189140571Y-48583904D01*
X189331047Y-48583904D01*
X189445333Y-48622000D01*
X189521523Y-48698190D01*
X189559619Y-48774380D01*
X189597714Y-48926761D01*
X189597714Y-49041047D01*
X189559619Y-49193428D01*
X189521523Y-49269619D01*
X189445333Y-49345809D01*
X189331047Y-49383904D01*
X189140571Y-49383904D01*
X189864380Y-48583904D02*
X190397714Y-48583904D01*
X189864380Y-49383904D01*
X190397714Y-49383904D01*
X191121523Y-49383904D02*
X190664380Y-49383904D01*
X190892952Y-49383904D02*
X190892952Y-48583904D01*
X190816761Y-48698190D01*
X190740571Y-48774380D01*
X190664380Y-48812476D01*
X157841904Y-52159428D02*
X157041904Y-52159428D01*
X157041904Y-51968952D01*
X157080000Y-51854666D01*
X157156190Y-51778476D01*
X157232380Y-51740380D01*
X157384761Y-51702285D01*
X157499047Y-51702285D01*
X157651428Y-51740380D01*
X157727619Y-51778476D01*
X157803809Y-51854666D01*
X157841904Y-51968952D01*
X157841904Y-52159428D01*
X157118095Y-51397523D02*
X157080000Y-51359428D01*
X157041904Y-51283238D01*
X157041904Y-51092761D01*
X157080000Y-51016571D01*
X157118095Y-50978476D01*
X157194285Y-50940380D01*
X157270476Y-50940380D01*
X157384761Y-50978476D01*
X157841904Y-51435619D01*
X157841904Y-50940380D01*
X157041904Y-50673714D02*
X157041904Y-50140380D01*
X157841904Y-50483238D01*
X151491904Y-53556428D02*
X150691904Y-53556428D01*
X150691904Y-53365952D01*
X150730000Y-53251666D01*
X150806190Y-53175476D01*
X150882380Y-53137380D01*
X151034761Y-53099285D01*
X151149047Y-53099285D01*
X151301428Y-53137380D01*
X151377619Y-53175476D01*
X151453809Y-53251666D01*
X151491904Y-53365952D01*
X151491904Y-53556428D01*
X150768095Y-52794523D02*
X150730000Y-52756428D01*
X150691904Y-52680238D01*
X150691904Y-52489761D01*
X150730000Y-52413571D01*
X150768095Y-52375476D01*
X150844285Y-52337380D01*
X150920476Y-52337380D01*
X151034761Y-52375476D01*
X151491904Y-52832619D01*
X151491904Y-52337380D01*
X150691904Y-51651666D02*
X150691904Y-51804047D01*
X150730000Y-51880238D01*
X150768095Y-51918333D01*
X150882380Y-51994523D01*
X151034761Y-52032619D01*
X151339523Y-52032619D01*
X151415714Y-51994523D01*
X151453809Y-51956428D01*
X151491904Y-51880238D01*
X151491904Y-51727857D01*
X151453809Y-51651666D01*
X151415714Y-51613571D01*
X151339523Y-51575476D01*
X151149047Y-51575476D01*
X151072857Y-51613571D01*
X151034761Y-51651666D01*
X150996666Y-51727857D01*
X150996666Y-51880238D01*
X151034761Y-51956428D01*
X151072857Y-51994523D01*
X151149047Y-52032619D01*
X154666904Y-52794428D02*
X153866904Y-52794428D01*
X153866904Y-52603952D01*
X153905000Y-52489666D01*
X153981190Y-52413476D01*
X154057380Y-52375380D01*
X154209761Y-52337285D01*
X154324047Y-52337285D01*
X154476428Y-52375380D01*
X154552619Y-52413476D01*
X154628809Y-52489666D01*
X154666904Y-52603952D01*
X154666904Y-52794428D01*
X153943095Y-52032523D02*
X153905000Y-51994428D01*
X153866904Y-51918238D01*
X153866904Y-51727761D01*
X153905000Y-51651571D01*
X153943095Y-51613476D01*
X154019285Y-51575380D01*
X154095476Y-51575380D01*
X154209761Y-51613476D01*
X154666904Y-52070619D01*
X154666904Y-51575380D01*
X153866904Y-50851571D02*
X153866904Y-51232523D01*
X154247857Y-51270619D01*
X154209761Y-51232523D01*
X154171666Y-51156333D01*
X154171666Y-50965857D01*
X154209761Y-50889666D01*
X154247857Y-50851571D01*
X154324047Y-50813476D01*
X154514523Y-50813476D01*
X154590714Y-50851571D01*
X154628809Y-50889666D01*
X154666904Y-50965857D01*
X154666904Y-51156333D01*
X154628809Y-51232523D01*
X154590714Y-51270619D01*
X131171904Y-53556428D02*
X130371904Y-53556428D01*
X130371904Y-53365952D01*
X130410000Y-53251666D01*
X130486190Y-53175476D01*
X130562380Y-53137380D01*
X130714761Y-53099285D01*
X130829047Y-53099285D01*
X130981428Y-53137380D01*
X131057619Y-53175476D01*
X131133809Y-53251666D01*
X131171904Y-53365952D01*
X131171904Y-53556428D01*
X130448095Y-52794523D02*
X130410000Y-52756428D01*
X130371904Y-52680238D01*
X130371904Y-52489761D01*
X130410000Y-52413571D01*
X130448095Y-52375476D01*
X130524285Y-52337380D01*
X130600476Y-52337380D01*
X130714761Y-52375476D01*
X131171904Y-52832619D01*
X131171904Y-52337380D01*
X130638571Y-51651666D02*
X131171904Y-51651666D01*
X130333809Y-51842142D02*
X130905238Y-52032619D01*
X130905238Y-51537380D01*
X144506904Y-52921428D02*
X143706904Y-52921428D01*
X143706904Y-52730952D01*
X143745000Y-52616666D01*
X143821190Y-52540476D01*
X143897380Y-52502380D01*
X144049761Y-52464285D01*
X144164047Y-52464285D01*
X144316428Y-52502380D01*
X144392619Y-52540476D01*
X144468809Y-52616666D01*
X144506904Y-52730952D01*
X144506904Y-52921428D01*
X143783095Y-52159523D02*
X143745000Y-52121428D01*
X143706904Y-52045238D01*
X143706904Y-51854761D01*
X143745000Y-51778571D01*
X143783095Y-51740476D01*
X143859285Y-51702380D01*
X143935476Y-51702380D01*
X144049761Y-51740476D01*
X144506904Y-52197619D01*
X144506904Y-51702380D01*
X143706904Y-51435714D02*
X143706904Y-50940476D01*
X144011666Y-51207142D01*
X144011666Y-51092857D01*
X144049761Y-51016666D01*
X144087857Y-50978571D01*
X144164047Y-50940476D01*
X144354523Y-50940476D01*
X144430714Y-50978571D01*
X144468809Y-51016666D01*
X144506904Y-51092857D01*
X144506904Y-51321428D01*
X144468809Y-51397619D01*
X144430714Y-51435714D01*
X147681904Y-52286428D02*
X146881904Y-52286428D01*
X146881904Y-52095952D01*
X146920000Y-51981666D01*
X146996190Y-51905476D01*
X147072380Y-51867380D01*
X147224761Y-51829285D01*
X147339047Y-51829285D01*
X147491428Y-51867380D01*
X147567619Y-51905476D01*
X147643809Y-51981666D01*
X147681904Y-52095952D01*
X147681904Y-52286428D01*
X146958095Y-51524523D02*
X146920000Y-51486428D01*
X146881904Y-51410238D01*
X146881904Y-51219761D01*
X146920000Y-51143571D01*
X146958095Y-51105476D01*
X147034285Y-51067380D01*
X147110476Y-51067380D01*
X147224761Y-51105476D01*
X147681904Y-51562619D01*
X147681904Y-51067380D01*
X146958095Y-50762619D02*
X146920000Y-50724523D01*
X146881904Y-50648333D01*
X146881904Y-50457857D01*
X146920000Y-50381666D01*
X146958095Y-50343571D01*
X147034285Y-50305476D01*
X147110476Y-50305476D01*
X147224761Y-50343571D01*
X147681904Y-50800714D01*
X147681904Y-50305476D01*
X121011904Y-53556428D02*
X120211904Y-53556428D01*
X120211904Y-53365952D01*
X120250000Y-53251666D01*
X120326190Y-53175476D01*
X120402380Y-53137380D01*
X120554761Y-53099285D01*
X120669047Y-53099285D01*
X120821428Y-53137380D01*
X120897619Y-53175476D01*
X120973809Y-53251666D01*
X121011904Y-53365952D01*
X121011904Y-53556428D01*
X120288095Y-52794523D02*
X120250000Y-52756428D01*
X120211904Y-52680238D01*
X120211904Y-52489761D01*
X120250000Y-52413571D01*
X120288095Y-52375476D01*
X120364285Y-52337380D01*
X120440476Y-52337380D01*
X120554761Y-52375476D01*
X121011904Y-52832619D01*
X121011904Y-52337380D01*
X121011904Y-51575476D02*
X121011904Y-52032619D01*
X121011904Y-51804047D02*
X120211904Y-51804047D01*
X120326190Y-51880238D01*
X120402380Y-51956428D01*
X120440476Y-52032619D01*
X134346904Y-52921428D02*
X133546904Y-52921428D01*
X133546904Y-52730952D01*
X133585000Y-52616666D01*
X133661190Y-52540476D01*
X133737380Y-52502380D01*
X133889761Y-52464285D01*
X134004047Y-52464285D01*
X134156428Y-52502380D01*
X134232619Y-52540476D01*
X134308809Y-52616666D01*
X134346904Y-52730952D01*
X134346904Y-52921428D01*
X133623095Y-52159523D02*
X133585000Y-52121428D01*
X133546904Y-52045238D01*
X133546904Y-51854761D01*
X133585000Y-51778571D01*
X133623095Y-51740476D01*
X133699285Y-51702380D01*
X133775476Y-51702380D01*
X133889761Y-51740476D01*
X134346904Y-52197619D01*
X134346904Y-51702380D01*
X133546904Y-51207142D02*
X133546904Y-51130952D01*
X133585000Y-51054761D01*
X133623095Y-51016666D01*
X133699285Y-50978571D01*
X133851666Y-50940476D01*
X134042142Y-50940476D01*
X134194523Y-50978571D01*
X134270714Y-51016666D01*
X134308809Y-51054761D01*
X134346904Y-51130952D01*
X134346904Y-51207142D01*
X134308809Y-51283333D01*
X134270714Y-51321428D01*
X134194523Y-51359523D01*
X134042142Y-51397619D01*
X133851666Y-51397619D01*
X133699285Y-51359523D01*
X133623095Y-51321428D01*
X133585000Y-51283333D01*
X133546904Y-51207142D01*
X137521904Y-52286428D02*
X136721904Y-52286428D01*
X136721904Y-52095952D01*
X136760000Y-51981666D01*
X136836190Y-51905476D01*
X136912380Y-51867380D01*
X137064761Y-51829285D01*
X137179047Y-51829285D01*
X137331428Y-51867380D01*
X137407619Y-51905476D01*
X137483809Y-51981666D01*
X137521904Y-52095952D01*
X137521904Y-52286428D01*
X137521904Y-51067380D02*
X137521904Y-51524523D01*
X137521904Y-51295952D02*
X136721904Y-51295952D01*
X136836190Y-51372142D01*
X136912380Y-51448333D01*
X136950476Y-51524523D01*
X137521904Y-50686428D02*
X137521904Y-50534047D01*
X137483809Y-50457857D01*
X137445714Y-50419761D01*
X137331428Y-50343571D01*
X137179047Y-50305476D01*
X136874285Y-50305476D01*
X136798095Y-50343571D01*
X136760000Y-50381666D01*
X136721904Y-50457857D01*
X136721904Y-50610238D01*
X136760000Y-50686428D01*
X136798095Y-50724523D01*
X136874285Y-50762619D01*
X137064761Y-50762619D01*
X137140952Y-50724523D01*
X137179047Y-50686428D01*
X137217142Y-50610238D01*
X137217142Y-50457857D01*
X137179047Y-50381666D01*
X137140952Y-50343571D01*
X137064761Y-50305476D01*
X141331904Y-53556428D02*
X140531904Y-53556428D01*
X140531904Y-53365952D01*
X140570000Y-53251666D01*
X140646190Y-53175476D01*
X140722380Y-53137380D01*
X140874761Y-53099285D01*
X140989047Y-53099285D01*
X141141428Y-53137380D01*
X141217619Y-53175476D01*
X141293809Y-53251666D01*
X141331904Y-53365952D01*
X141331904Y-53556428D01*
X141331904Y-52337380D02*
X141331904Y-52794523D01*
X141331904Y-52565952D02*
X140531904Y-52565952D01*
X140646190Y-52642142D01*
X140722380Y-52718333D01*
X140760476Y-52794523D01*
X140874761Y-51880238D02*
X140836666Y-51956428D01*
X140798571Y-51994523D01*
X140722380Y-52032619D01*
X140684285Y-52032619D01*
X140608095Y-51994523D01*
X140570000Y-51956428D01*
X140531904Y-51880238D01*
X140531904Y-51727857D01*
X140570000Y-51651666D01*
X140608095Y-51613571D01*
X140684285Y-51575476D01*
X140722380Y-51575476D01*
X140798571Y-51613571D01*
X140836666Y-51651666D01*
X140874761Y-51727857D01*
X140874761Y-51880238D01*
X140912857Y-51956428D01*
X140950952Y-51994523D01*
X141027142Y-52032619D01*
X141179523Y-52032619D01*
X141255714Y-51994523D01*
X141293809Y-51956428D01*
X141331904Y-51880238D01*
X141331904Y-51727857D01*
X141293809Y-51651666D01*
X141255714Y-51613571D01*
X141179523Y-51575476D01*
X141027142Y-51575476D01*
X140950952Y-51613571D01*
X140912857Y-51651666D01*
X140874761Y-51727857D01*
X110851904Y-53556428D02*
X110051904Y-53556428D01*
X110051904Y-53365952D01*
X110090000Y-53251666D01*
X110166190Y-53175476D01*
X110242380Y-53137380D01*
X110394761Y-53099285D01*
X110509047Y-53099285D01*
X110661428Y-53137380D01*
X110737619Y-53175476D01*
X110813809Y-53251666D01*
X110851904Y-53365952D01*
X110851904Y-53556428D01*
X110851904Y-52337380D02*
X110851904Y-52794523D01*
X110851904Y-52565952D02*
X110051904Y-52565952D01*
X110166190Y-52642142D01*
X110242380Y-52718333D01*
X110280476Y-52794523D01*
X110051904Y-52070714D02*
X110051904Y-51537380D01*
X110851904Y-51880238D01*
X124186904Y-52921428D02*
X123386904Y-52921428D01*
X123386904Y-52730952D01*
X123425000Y-52616666D01*
X123501190Y-52540476D01*
X123577380Y-52502380D01*
X123729761Y-52464285D01*
X123844047Y-52464285D01*
X123996428Y-52502380D01*
X124072619Y-52540476D01*
X124148809Y-52616666D01*
X124186904Y-52730952D01*
X124186904Y-52921428D01*
X124186904Y-51702380D02*
X124186904Y-52159523D01*
X124186904Y-51930952D02*
X123386904Y-51930952D01*
X123501190Y-52007142D01*
X123577380Y-52083333D01*
X123615476Y-52159523D01*
X123386904Y-51016666D02*
X123386904Y-51169047D01*
X123425000Y-51245238D01*
X123463095Y-51283333D01*
X123577380Y-51359523D01*
X123729761Y-51397619D01*
X124034523Y-51397619D01*
X124110714Y-51359523D01*
X124148809Y-51321428D01*
X124186904Y-51245238D01*
X124186904Y-51092857D01*
X124148809Y-51016666D01*
X124110714Y-50978571D01*
X124034523Y-50940476D01*
X123844047Y-50940476D01*
X123767857Y-50978571D01*
X123729761Y-51016666D01*
X123691666Y-51092857D01*
X123691666Y-51245238D01*
X123729761Y-51321428D01*
X123767857Y-51359523D01*
X123844047Y-51397619D01*
X127361904Y-52286428D02*
X126561904Y-52286428D01*
X126561904Y-52095952D01*
X126600000Y-51981666D01*
X126676190Y-51905476D01*
X126752380Y-51867380D01*
X126904761Y-51829285D01*
X127019047Y-51829285D01*
X127171428Y-51867380D01*
X127247619Y-51905476D01*
X127323809Y-51981666D01*
X127361904Y-52095952D01*
X127361904Y-52286428D01*
X127361904Y-51067380D02*
X127361904Y-51524523D01*
X127361904Y-51295952D02*
X126561904Y-51295952D01*
X126676190Y-51372142D01*
X126752380Y-51448333D01*
X126790476Y-51524523D01*
X126561904Y-50343571D02*
X126561904Y-50724523D01*
X126942857Y-50762619D01*
X126904761Y-50724523D01*
X126866666Y-50648333D01*
X126866666Y-50457857D01*
X126904761Y-50381666D01*
X126942857Y-50343571D01*
X127019047Y-50305476D01*
X127209523Y-50305476D01*
X127285714Y-50343571D01*
X127323809Y-50381666D01*
X127361904Y-50457857D01*
X127361904Y-50648333D01*
X127323809Y-50724523D01*
X127285714Y-50762619D01*
X100691904Y-53556428D02*
X99891904Y-53556428D01*
X99891904Y-53365952D01*
X99930000Y-53251666D01*
X100006190Y-53175476D01*
X100082380Y-53137380D01*
X100234761Y-53099285D01*
X100349047Y-53099285D01*
X100501428Y-53137380D01*
X100577619Y-53175476D01*
X100653809Y-53251666D01*
X100691904Y-53365952D01*
X100691904Y-53556428D01*
X100691904Y-52337380D02*
X100691904Y-52794523D01*
X100691904Y-52565952D02*
X99891904Y-52565952D01*
X100006190Y-52642142D01*
X100082380Y-52718333D01*
X100120476Y-52794523D01*
X100158571Y-51651666D02*
X100691904Y-51651666D01*
X99853809Y-51842142D02*
X100425238Y-52032619D01*
X100425238Y-51537380D01*
X114026904Y-52921428D02*
X113226904Y-52921428D01*
X113226904Y-52730952D01*
X113265000Y-52616666D01*
X113341190Y-52540476D01*
X113417380Y-52502380D01*
X113569761Y-52464285D01*
X113684047Y-52464285D01*
X113836428Y-52502380D01*
X113912619Y-52540476D01*
X113988809Y-52616666D01*
X114026904Y-52730952D01*
X114026904Y-52921428D01*
X114026904Y-51702380D02*
X114026904Y-52159523D01*
X114026904Y-51930952D02*
X113226904Y-51930952D01*
X113341190Y-52007142D01*
X113417380Y-52083333D01*
X113455476Y-52159523D01*
X113226904Y-51435714D02*
X113226904Y-50940476D01*
X113531666Y-51207142D01*
X113531666Y-51092857D01*
X113569761Y-51016666D01*
X113607857Y-50978571D01*
X113684047Y-50940476D01*
X113874523Y-50940476D01*
X113950714Y-50978571D01*
X113988809Y-51016666D01*
X114026904Y-51092857D01*
X114026904Y-51321428D01*
X113988809Y-51397619D01*
X113950714Y-51435714D01*
X117201904Y-52286428D02*
X116401904Y-52286428D01*
X116401904Y-52095952D01*
X116440000Y-51981666D01*
X116516190Y-51905476D01*
X116592380Y-51867380D01*
X116744761Y-51829285D01*
X116859047Y-51829285D01*
X117011428Y-51867380D01*
X117087619Y-51905476D01*
X117163809Y-51981666D01*
X117201904Y-52095952D01*
X117201904Y-52286428D01*
X117201904Y-51067380D02*
X117201904Y-51524523D01*
X117201904Y-51295952D02*
X116401904Y-51295952D01*
X116516190Y-51372142D01*
X116592380Y-51448333D01*
X116630476Y-51524523D01*
X116478095Y-50762619D02*
X116440000Y-50724523D01*
X116401904Y-50648333D01*
X116401904Y-50457857D01*
X116440000Y-50381666D01*
X116478095Y-50343571D01*
X116554285Y-50305476D01*
X116630476Y-50305476D01*
X116744761Y-50343571D01*
X117201904Y-50800714D01*
X117201904Y-50305476D01*
X90531904Y-53556428D02*
X89731904Y-53556428D01*
X89731904Y-53365952D01*
X89770000Y-53251666D01*
X89846190Y-53175476D01*
X89922380Y-53137380D01*
X90074761Y-53099285D01*
X90189047Y-53099285D01*
X90341428Y-53137380D01*
X90417619Y-53175476D01*
X90493809Y-53251666D01*
X90531904Y-53365952D01*
X90531904Y-53556428D01*
X90531904Y-52337380D02*
X90531904Y-52794523D01*
X90531904Y-52565952D02*
X89731904Y-52565952D01*
X89846190Y-52642142D01*
X89922380Y-52718333D01*
X89960476Y-52794523D01*
X90531904Y-51575476D02*
X90531904Y-52032619D01*
X90531904Y-51804047D02*
X89731904Y-51804047D01*
X89846190Y-51880238D01*
X89922380Y-51956428D01*
X89960476Y-52032619D01*
X103866904Y-52921428D02*
X103066904Y-52921428D01*
X103066904Y-52730952D01*
X103105000Y-52616666D01*
X103181190Y-52540476D01*
X103257380Y-52502380D01*
X103409761Y-52464285D01*
X103524047Y-52464285D01*
X103676428Y-52502380D01*
X103752619Y-52540476D01*
X103828809Y-52616666D01*
X103866904Y-52730952D01*
X103866904Y-52921428D01*
X103866904Y-51702380D02*
X103866904Y-52159523D01*
X103866904Y-51930952D02*
X103066904Y-51930952D01*
X103181190Y-52007142D01*
X103257380Y-52083333D01*
X103295476Y-52159523D01*
X103066904Y-51207142D02*
X103066904Y-51130952D01*
X103105000Y-51054761D01*
X103143095Y-51016666D01*
X103219285Y-50978571D01*
X103371666Y-50940476D01*
X103562142Y-50940476D01*
X103714523Y-50978571D01*
X103790714Y-51016666D01*
X103828809Y-51054761D01*
X103866904Y-51130952D01*
X103866904Y-51207142D01*
X103828809Y-51283333D01*
X103790714Y-51321428D01*
X103714523Y-51359523D01*
X103562142Y-51397619D01*
X103371666Y-51397619D01*
X103219285Y-51359523D01*
X103143095Y-51321428D01*
X103105000Y-51283333D01*
X103066904Y-51207142D01*
X107041904Y-51905476D02*
X106241904Y-51905476D01*
X106241904Y-51715000D01*
X106280000Y-51600714D01*
X106356190Y-51524523D01*
X106432380Y-51486428D01*
X106584761Y-51448333D01*
X106699047Y-51448333D01*
X106851428Y-51486428D01*
X106927619Y-51524523D01*
X107003809Y-51600714D01*
X107041904Y-51715000D01*
X107041904Y-51905476D01*
X107041904Y-51067380D02*
X107041904Y-50915000D01*
X107003809Y-50838809D01*
X106965714Y-50800714D01*
X106851428Y-50724523D01*
X106699047Y-50686428D01*
X106394285Y-50686428D01*
X106318095Y-50724523D01*
X106280000Y-50762619D01*
X106241904Y-50838809D01*
X106241904Y-50991190D01*
X106280000Y-51067380D01*
X106318095Y-51105476D01*
X106394285Y-51143571D01*
X106584761Y-51143571D01*
X106660952Y-51105476D01*
X106699047Y-51067380D01*
X106737142Y-50991190D01*
X106737142Y-50838809D01*
X106699047Y-50762619D01*
X106660952Y-50724523D01*
X106584761Y-50686428D01*
X80371904Y-53175476D02*
X79571904Y-53175476D01*
X79571904Y-52985000D01*
X79610000Y-52870714D01*
X79686190Y-52794523D01*
X79762380Y-52756428D01*
X79914761Y-52718333D01*
X80029047Y-52718333D01*
X80181428Y-52756428D01*
X80257619Y-52794523D01*
X80333809Y-52870714D01*
X80371904Y-52985000D01*
X80371904Y-53175476D01*
X79914761Y-52261190D02*
X79876666Y-52337380D01*
X79838571Y-52375476D01*
X79762380Y-52413571D01*
X79724285Y-52413571D01*
X79648095Y-52375476D01*
X79610000Y-52337380D01*
X79571904Y-52261190D01*
X79571904Y-52108809D01*
X79610000Y-52032619D01*
X79648095Y-51994523D01*
X79724285Y-51956428D01*
X79762380Y-51956428D01*
X79838571Y-51994523D01*
X79876666Y-52032619D01*
X79914761Y-52108809D01*
X79914761Y-52261190D01*
X79952857Y-52337380D01*
X79990952Y-52375476D01*
X80067142Y-52413571D01*
X80219523Y-52413571D01*
X80295714Y-52375476D01*
X80333809Y-52337380D01*
X80371904Y-52261190D01*
X80371904Y-52108809D01*
X80333809Y-52032619D01*
X80295714Y-51994523D01*
X80219523Y-51956428D01*
X80067142Y-51956428D01*
X79990952Y-51994523D01*
X79952857Y-52032619D01*
X79914761Y-52108809D01*
X93706904Y-52540476D02*
X92906904Y-52540476D01*
X92906904Y-52350000D01*
X92945000Y-52235714D01*
X93021190Y-52159523D01*
X93097380Y-52121428D01*
X93249761Y-52083333D01*
X93364047Y-52083333D01*
X93516428Y-52121428D01*
X93592619Y-52159523D01*
X93668809Y-52235714D01*
X93706904Y-52350000D01*
X93706904Y-52540476D01*
X92906904Y-51816666D02*
X92906904Y-51283333D01*
X93706904Y-51626190D01*
X96881904Y-51905476D02*
X96081904Y-51905476D01*
X96081904Y-51715000D01*
X96120000Y-51600714D01*
X96196190Y-51524523D01*
X96272380Y-51486428D01*
X96424761Y-51448333D01*
X96539047Y-51448333D01*
X96691428Y-51486428D01*
X96767619Y-51524523D01*
X96843809Y-51600714D01*
X96881904Y-51715000D01*
X96881904Y-51905476D01*
X96081904Y-50762619D02*
X96081904Y-50915000D01*
X96120000Y-50991190D01*
X96158095Y-51029285D01*
X96272380Y-51105476D01*
X96424761Y-51143571D01*
X96729523Y-51143571D01*
X96805714Y-51105476D01*
X96843809Y-51067380D01*
X96881904Y-50991190D01*
X96881904Y-50838809D01*
X96843809Y-50762619D01*
X96805714Y-50724523D01*
X96729523Y-50686428D01*
X96539047Y-50686428D01*
X96462857Y-50724523D01*
X96424761Y-50762619D01*
X96386666Y-50838809D01*
X96386666Y-50991190D01*
X96424761Y-51067380D01*
X96462857Y-51105476D01*
X96539047Y-51143571D01*
X70211904Y-53175476D02*
X69411904Y-53175476D01*
X69411904Y-52985000D01*
X69450000Y-52870714D01*
X69526190Y-52794523D01*
X69602380Y-52756428D01*
X69754761Y-52718333D01*
X69869047Y-52718333D01*
X70021428Y-52756428D01*
X70097619Y-52794523D01*
X70173809Y-52870714D01*
X70211904Y-52985000D01*
X70211904Y-53175476D01*
X69411904Y-51994523D02*
X69411904Y-52375476D01*
X69792857Y-52413571D01*
X69754761Y-52375476D01*
X69716666Y-52299285D01*
X69716666Y-52108809D01*
X69754761Y-52032619D01*
X69792857Y-51994523D01*
X69869047Y-51956428D01*
X70059523Y-51956428D01*
X70135714Y-51994523D01*
X70173809Y-52032619D01*
X70211904Y-52108809D01*
X70211904Y-52299285D01*
X70173809Y-52375476D01*
X70135714Y-52413571D01*
X83546904Y-52413476D02*
X82746904Y-52413476D01*
X82746904Y-52223000D01*
X82785000Y-52108714D01*
X82861190Y-52032523D01*
X82937380Y-51994428D01*
X83089761Y-51956333D01*
X83204047Y-51956333D01*
X83356428Y-51994428D01*
X83432619Y-52032523D01*
X83508809Y-52108714D01*
X83546904Y-52223000D01*
X83546904Y-52413476D01*
X83013571Y-51270619D02*
X83546904Y-51270619D01*
X82708809Y-51461095D02*
X83280238Y-51651571D01*
X83280238Y-51156333D01*
X86721904Y-51778476D02*
X85921904Y-51778476D01*
X85921904Y-51588000D01*
X85960000Y-51473714D01*
X86036190Y-51397523D01*
X86112380Y-51359428D01*
X86264761Y-51321333D01*
X86379047Y-51321333D01*
X86531428Y-51359428D01*
X86607619Y-51397523D01*
X86683809Y-51473714D01*
X86721904Y-51588000D01*
X86721904Y-51778476D01*
X85921904Y-51054666D02*
X85921904Y-50559428D01*
X86226666Y-50826095D01*
X86226666Y-50711809D01*
X86264761Y-50635619D01*
X86302857Y-50597523D01*
X86379047Y-50559428D01*
X86569523Y-50559428D01*
X86645714Y-50597523D01*
X86683809Y-50635619D01*
X86721904Y-50711809D01*
X86721904Y-50940380D01*
X86683809Y-51016571D01*
X86645714Y-51054666D01*
X73386904Y-52540476D02*
X72586904Y-52540476D01*
X72586904Y-52350000D01*
X72625000Y-52235714D01*
X72701190Y-52159523D01*
X72777380Y-52121428D01*
X72929761Y-52083333D01*
X73044047Y-52083333D01*
X73196428Y-52121428D01*
X73272619Y-52159523D01*
X73348809Y-52235714D01*
X73386904Y-52350000D01*
X73386904Y-52540476D01*
X72663095Y-51778571D02*
X72625000Y-51740476D01*
X72586904Y-51664285D01*
X72586904Y-51473809D01*
X72625000Y-51397619D01*
X72663095Y-51359523D01*
X72739285Y-51321428D01*
X72815476Y-51321428D01*
X72929761Y-51359523D01*
X73386904Y-51816666D01*
X73386904Y-51321428D01*
X76561904Y-51905476D02*
X75761904Y-51905476D01*
X75761904Y-51715000D01*
X75800000Y-51600714D01*
X75876190Y-51524523D01*
X75952380Y-51486428D01*
X76104761Y-51448333D01*
X76219047Y-51448333D01*
X76371428Y-51486428D01*
X76447619Y-51524523D01*
X76523809Y-51600714D01*
X76561904Y-51715000D01*
X76561904Y-51905476D01*
X76561904Y-50686428D02*
X76561904Y-51143571D01*
X76561904Y-50915000D02*
X75761904Y-50915000D01*
X75876190Y-50991190D01*
X75952380Y-51067380D01*
X75990476Y-51143571D01*
X231265119Y-34537640D02*
X231217500Y-34585259D01*
X231074643Y-34632878D01*
X230979405Y-34632878D01*
X230836547Y-34585259D01*
X230741309Y-34490021D01*
X230693690Y-34394783D01*
X230646071Y-34204307D01*
X230646071Y-34061450D01*
X230693690Y-33870974D01*
X230741309Y-33775736D01*
X230836547Y-33680498D01*
X230979405Y-33632878D01*
X231074643Y-33632878D01*
X231217500Y-33680498D01*
X231265119Y-33728117D01*
X232169881Y-33632878D02*
X231693690Y-33632878D01*
X231646071Y-34109069D01*
X231693690Y-34061450D01*
X231788928Y-34013831D01*
X232027024Y-34013831D01*
X232122262Y-34061450D01*
X232169881Y-34109069D01*
X232217500Y-34204307D01*
X232217500Y-34442402D01*
X232169881Y-34537640D01*
X232122262Y-34585259D01*
X232027024Y-34632878D01*
X231788928Y-34632878D01*
X231693690Y-34585259D01*
X231646071Y-34537640D01*
X235513714Y-33615380D02*
X235608952Y-33615380D01*
X235704190Y-33663000D01*
X235751809Y-33710619D01*
X235799428Y-33805857D01*
X235847047Y-33996333D01*
X235847047Y-34234428D01*
X235799428Y-34424904D01*
X235751809Y-34520142D01*
X235704190Y-34567761D01*
X235608952Y-34615380D01*
X235513714Y-34615380D01*
X235418476Y-34567761D01*
X235370857Y-34520142D01*
X235323238Y-34424904D01*
X235275619Y-34234428D01*
X235275619Y-33996333D01*
X235323238Y-33805857D01*
X235370857Y-33710619D01*
X235418476Y-33663000D01*
X235513714Y-33615380D01*
X236275619Y-34520142D02*
X236323238Y-34567761D01*
X236275619Y-34615380D01*
X236228000Y-34567761D01*
X236275619Y-34520142D01*
X236275619Y-34615380D01*
X237275619Y-34615380D02*
X236704190Y-34615380D01*
X236989904Y-34615380D02*
X236989904Y-33615380D01*
X236894666Y-33758238D01*
X236799428Y-33853476D01*
X236704190Y-33901095D01*
X238132761Y-33948714D02*
X238132761Y-34615380D01*
X237704190Y-33948714D02*
X237704190Y-34472523D01*
X237751809Y-34567761D01*
X237847047Y-34615380D01*
X237989904Y-34615380D01*
X238085142Y-34567761D01*
X238132761Y-34520142D01*
X225926640Y-50166880D02*
X225974259Y-50214499D01*
X226021878Y-50357356D01*
X226021878Y-50452594D01*
X225974259Y-50595452D01*
X225879021Y-50690690D01*
X225783783Y-50738309D01*
X225593307Y-50785928D01*
X225450450Y-50785928D01*
X225259974Y-50738309D01*
X225164736Y-50690690D01*
X225069498Y-50595452D01*
X225021878Y-50452594D01*
X225021878Y-50357356D01*
X225069498Y-50214499D01*
X225117117Y-50166880D01*
X225355212Y-49309737D02*
X226021878Y-49309737D01*
X224974259Y-49547833D02*
X225688545Y-49785928D01*
X225688545Y-49166880D01*
X223011055Y-51383194D02*
X223011055Y-51287956D01*
X223058675Y-51192718D01*
X223106294Y-51145099D01*
X223201532Y-51097480D01*
X223392008Y-51049861D01*
X223630103Y-51049861D01*
X223820579Y-51097480D01*
X223915817Y-51145099D01*
X223963436Y-51192718D01*
X224011055Y-51287956D01*
X224011055Y-51383194D01*
X223963436Y-51478432D01*
X223915817Y-51526051D01*
X223820579Y-51573670D01*
X223630103Y-51621289D01*
X223392008Y-51621289D01*
X223201532Y-51573670D01*
X223106294Y-51526051D01*
X223058675Y-51478432D01*
X223011055Y-51383194D01*
X223915817Y-50621289D02*
X223963436Y-50573670D01*
X224011055Y-50621289D01*
X223963436Y-50668909D01*
X223915817Y-50621289D01*
X224011055Y-50621289D01*
X224011055Y-49621289D02*
X224011055Y-50192718D01*
X224011055Y-49907004D02*
X223011055Y-49907004D01*
X223153913Y-50002242D01*
X223249151Y-50097480D01*
X223296770Y-50192718D01*
X223344389Y-48764147D02*
X224011055Y-48764147D01*
X223344389Y-49192718D02*
X223868198Y-49192718D01*
X223963436Y-49145099D01*
X224011055Y-49049861D01*
X224011055Y-48907004D01*
X223963436Y-48811766D01*
X223915817Y-48764147D01*
X173529823Y-43655722D02*
X173482204Y-43703341D01*
X173339347Y-43750960D01*
X173244109Y-43750960D01*
X173101251Y-43703341D01*
X173006013Y-43608103D01*
X172958394Y-43512865D01*
X172910775Y-43322389D01*
X172910775Y-43179532D01*
X172958394Y-42989056D01*
X173006013Y-42893818D01*
X173101251Y-42798580D01*
X173244109Y-42750960D01*
X173339347Y-42750960D01*
X173482204Y-42798580D01*
X173529823Y-42846199D01*
X173863156Y-42750960D02*
X174482204Y-42750960D01*
X174148870Y-43131913D01*
X174291728Y-43131913D01*
X174386966Y-43179532D01*
X174434585Y-43227151D01*
X174482204Y-43322389D01*
X174482204Y-43560484D01*
X174434585Y-43655722D01*
X174386966Y-43703341D01*
X174291728Y-43750960D01*
X174006013Y-43750960D01*
X173910775Y-43703341D01*
X173863156Y-43655722D01*
X243598827Y-53230934D02*
X243551208Y-53278553D01*
X243408351Y-53326172D01*
X243313113Y-53326172D01*
X243170255Y-53278553D01*
X243075017Y-53183315D01*
X243027398Y-53088077D01*
X242979779Y-52897601D01*
X242979779Y-52754744D01*
X243027398Y-52564268D01*
X243075017Y-52469030D01*
X243170255Y-52373792D01*
X243313113Y-52326172D01*
X243408351Y-52326172D01*
X243551208Y-52373792D01*
X243598827Y-52421411D01*
X243979779Y-52421411D02*
X244027398Y-52373792D01*
X244122636Y-52326172D01*
X244360732Y-52326172D01*
X244455970Y-52373792D01*
X244503589Y-52421411D01*
X244551208Y-52516649D01*
X244551208Y-52611887D01*
X244503589Y-52754744D01*
X243932160Y-53326172D01*
X244551208Y-53326172D01*
X242684817Y-53767225D02*
X242732436Y-53719606D01*
X242827674Y-53671986D01*
X243065769Y-53671986D01*
X243161007Y-53719606D01*
X243208626Y-53767225D01*
X243256245Y-53862463D01*
X243256245Y-53957701D01*
X243208626Y-54100558D01*
X242637198Y-54671986D01*
X243256245Y-54671986D01*
X243637198Y-53767225D02*
X243684817Y-53719606D01*
X243780055Y-53671986D01*
X244018150Y-53671986D01*
X244113388Y-53719606D01*
X244161007Y-53767225D01*
X244208626Y-53862463D01*
X244208626Y-53957701D01*
X244161007Y-54100558D01*
X243589579Y-54671986D01*
X244208626Y-54671986D01*
X244637198Y-54005320D02*
X244637198Y-55005320D01*
X244637198Y-54052939D02*
X244732436Y-54005320D01*
X244922912Y-54005320D01*
X245018150Y-54052939D01*
X245065769Y-54100558D01*
X245113388Y-54195796D01*
X245113388Y-54481510D01*
X245065769Y-54576748D01*
X245018150Y-54624367D01*
X244922912Y-54671986D01*
X244732436Y-54671986D01*
X244637198Y-54624367D01*
X228866827Y-53230934D02*
X228819208Y-53278553D01*
X228676351Y-53326172D01*
X228581113Y-53326172D01*
X228438255Y-53278553D01*
X228343017Y-53183315D01*
X228295398Y-53088077D01*
X228247779Y-52897601D01*
X228247779Y-52754744D01*
X228295398Y-52564268D01*
X228343017Y-52469030D01*
X228438255Y-52373792D01*
X228581113Y-52326172D01*
X228676351Y-52326172D01*
X228819208Y-52373792D01*
X228866827Y-52421411D01*
X229819208Y-53326172D02*
X229247779Y-53326172D01*
X229533494Y-53326172D02*
X229533494Y-52326172D01*
X229438255Y-52469030D01*
X229343017Y-52564268D01*
X229247779Y-52611887D01*
X227952817Y-53767225D02*
X228000436Y-53719606D01*
X228095674Y-53671986D01*
X228333769Y-53671986D01*
X228429007Y-53719606D01*
X228476626Y-53767225D01*
X228524245Y-53862463D01*
X228524245Y-53957701D01*
X228476626Y-54100558D01*
X227905198Y-54671986D01*
X228524245Y-54671986D01*
X228905198Y-53767225D02*
X228952817Y-53719606D01*
X229048055Y-53671986D01*
X229286150Y-53671986D01*
X229381388Y-53719606D01*
X229429007Y-53767225D01*
X229476626Y-53862463D01*
X229476626Y-53957701D01*
X229429007Y-54100558D01*
X228857579Y-54671986D01*
X229476626Y-54671986D01*
X229905198Y-54005320D02*
X229905198Y-55005320D01*
X229905198Y-54052939D02*
X230000436Y-54005320D01*
X230190912Y-54005320D01*
X230286150Y-54052939D01*
X230333769Y-54100558D01*
X230381388Y-54195796D01*
X230381388Y-54481510D01*
X230333769Y-54576748D01*
X230286150Y-54624367D01*
X230190912Y-54671986D01*
X230000436Y-54671986D01*
X229905198Y-54624367D01*
M02*
