G04 #@! TF.GenerationSoftware,KiCad,Pcbnew,(5.1.5)-3*
G04 #@! TF.CreationDate,2020-10-14T15:57:11-05:00*
G04 #@! TF.ProjectId,masochist,6d61736f-6368-4697-9374-2e6b69636164,rev?*
G04 #@! TF.SameCoordinates,Original*
G04 #@! TF.FileFunction,Copper,L1,Top*
G04 #@! TF.FilePolarity,Positive*
%FSLAX46Y46*%
G04 Gerber Fmt 4.6, Leading zero omitted, Abs format (unit mm)*
G04 Created by KiCad (PCBNEW (5.1.5)-3) date 2020-10-14 15:57:11*
%MOMM*%
%LPD*%
G04 APERTURE LIST*
%ADD10C,4.400000*%
%ADD11C,1.500000*%
%ADD12O,1.600000X1.600000*%
%ADD13R,1.600000X1.600000*%
%ADD14C,2.200000*%
%ADD15C,2.250000*%
%ADD16C,2.000000*%
%ADD17C,1.400000*%
%ADD18O,1.400000X1.400000*%
%ADD19C,1.800000*%
%ADD20R,1.800000X1.800000*%
%ADD21R,1.700000X1.700000*%
%ADD22C,1.700000*%
%ADD23O,0.650000X1.000000*%
%ADD24O,0.900000X2.400000*%
%ADD25O,0.900000X1.700000*%
%ADD26C,1.600000*%
%ADD27R,1.200000X1.200000*%
%ADD28C,1.200000*%
%ADD29C,0.800000*%
%ADD30C,0.250000*%
%ADD31C,0.380000*%
G04 APERTURE END LIST*
D10*
X68834000Y-74930000D03*
X73660000Y-93853000D03*
X83185000Y-112903000D03*
X111633000Y-129667000D03*
X229616000Y-129540000D03*
X229616000Y-114046000D03*
X243967000Y-93853000D03*
X158750000Y-123031250D03*
X61722000Y-53086000D03*
X61722000Y-34671000D03*
X258191000Y-53181250D03*
X258191000Y-34671000D03*
X163449000Y-74803000D03*
X258191000Y-74803000D03*
X196850000Y-103981250D03*
X101600000Y-103981250D03*
X87249000Y-75311000D03*
D11*
X233934000Y-49911000D03*
X238814000Y-49911000D03*
D12*
X213582250Y-36830000D03*
X246602250Y-44450000D03*
X216122250Y-36830000D03*
X244062250Y-44450000D03*
X218662250Y-36830000D03*
X241522250Y-44450000D03*
X221202250Y-36830000D03*
X238982250Y-44450000D03*
X223742250Y-36830000D03*
X236442250Y-44450000D03*
X226282250Y-36830000D03*
X233902250Y-44450000D03*
X228822250Y-36830000D03*
X231362250Y-44450000D03*
X231362250Y-36830000D03*
X228822250Y-44450000D03*
X233902250Y-36830000D03*
X226282250Y-44450000D03*
X236442250Y-36830000D03*
X223742250Y-44450000D03*
X238982250Y-36830000D03*
X221202250Y-44450000D03*
X241522250Y-36830000D03*
X218662250Y-44450000D03*
X244062250Y-36830000D03*
X216122250Y-44450000D03*
X246602250Y-36830000D03*
D13*
X213582250Y-44450000D03*
D14*
X213677500Y-60801250D03*
X207327500Y-63341250D03*
X80327500Y-60801250D03*
X73977500Y-63341250D03*
D15*
X168116250Y-128111250D03*
X174466250Y-125571250D03*
D16*
X128120000Y-39243000D03*
X128120000Y-34743000D03*
X134620000Y-39243000D03*
X134620000Y-34743000D03*
X116055000Y-39243000D03*
X116055000Y-34743000D03*
X122555000Y-39243000D03*
X122555000Y-34743000D03*
D17*
X204978000Y-49022000D03*
D18*
X199898000Y-49022000D03*
X199898000Y-51816000D03*
D17*
X204978000Y-51816000D03*
D18*
X204978000Y-46228000D03*
D17*
X199898000Y-46228000D03*
D18*
X204978000Y-43434000D03*
D17*
X199898000Y-43434000D03*
D18*
X199898000Y-37846000D03*
D17*
X204978000Y-37846000D03*
D18*
X199898000Y-40640000D03*
D17*
X204978000Y-40640000D03*
D18*
X204978000Y-35052000D03*
D17*
X199898000Y-35052000D03*
D19*
X172466000Y-34417000D03*
D20*
X175006000Y-34417000D03*
D14*
X94615000Y-98901250D03*
X88265000Y-101441250D03*
X175577500Y-60801250D03*
X169227500Y-63341250D03*
X113665000Y-98901250D03*
X107315000Y-101441250D03*
X99377500Y-60801250D03*
X93027500Y-63341250D03*
X151765000Y-98901250D03*
X145415000Y-101441250D03*
X194627500Y-60801250D03*
X188277500Y-63341250D03*
X156527500Y-60801250D03*
X150177500Y-63341250D03*
X104140000Y-79851250D03*
X97790000Y-82391250D03*
X137477500Y-60801250D03*
X131127500Y-63341250D03*
X251777500Y-60801250D03*
X245427500Y-63341250D03*
X232727500Y-60801250D03*
X226377500Y-63341250D03*
X189865000Y-98901250D03*
X183515000Y-101441250D03*
X208915000Y-98901250D03*
X202565000Y-101441250D03*
X237490000Y-79851250D03*
X231140000Y-82391250D03*
X218440000Y-79851250D03*
X212090000Y-82391250D03*
X199390000Y-79851250D03*
X193040000Y-82391250D03*
X180340000Y-79851250D03*
X173990000Y-82391250D03*
X161290000Y-79851250D03*
X154940000Y-82391250D03*
X142240000Y-79851250D03*
X135890000Y-82391250D03*
X118427500Y-60801250D03*
X112077500Y-63341250D03*
X123190000Y-79851250D03*
X116840000Y-82391250D03*
X132715000Y-98901250D03*
X126365000Y-101441250D03*
X170815000Y-98901250D03*
X164465000Y-101441250D03*
X85090000Y-79851250D03*
X78740000Y-82391250D03*
D21*
X145669000Y-36703000D03*
D22*
X145669000Y-39243000D03*
X143129000Y-36703000D03*
X143129000Y-39243000D03*
X140589000Y-36703000D03*
X140589000Y-39243000D03*
D23*
X164787500Y-37850000D03*
X166487500Y-37850000D03*
X165637500Y-37850000D03*
X163937500Y-37850000D03*
X163087500Y-37850000D03*
X162237500Y-37850000D03*
X161387500Y-37850000D03*
X160537500Y-37850000D03*
X166487500Y-36525000D03*
X165632500Y-36525000D03*
X164782500Y-36525000D03*
X163932500Y-36525000D03*
X163082500Y-36525000D03*
X162232500Y-36525000D03*
X161382500Y-36525000D03*
X160532500Y-36525000D03*
D24*
X167837500Y-36870000D03*
X159187500Y-36870000D03*
D25*
X167837500Y-33490000D03*
X159187500Y-33490000D03*
D17*
X156083000Y-39507000D03*
X156083000Y-34407000D03*
D12*
X192532000Y-51816000D03*
D13*
X197612000Y-51816000D03*
D12*
X192532000Y-49022000D03*
D13*
X197612000Y-49022000D03*
D12*
X157480000Y-48768000D03*
D13*
X157480000Y-43688000D03*
D12*
X151130000Y-50165000D03*
D13*
X151130000Y-45085000D03*
D12*
X154305000Y-49403000D03*
D13*
X154305000Y-44323000D03*
D12*
X130810000Y-50165000D03*
D13*
X130810000Y-45085000D03*
D12*
X144145000Y-49530000D03*
D13*
X144145000Y-44450000D03*
D12*
X147320000Y-48895000D03*
D13*
X147320000Y-43815000D03*
D12*
X120650000Y-50165000D03*
D13*
X120650000Y-45085000D03*
D12*
X133985000Y-49530000D03*
D13*
X133985000Y-44450000D03*
D12*
X137160000Y-48895000D03*
D13*
X137160000Y-43815000D03*
D12*
X140970000Y-50165000D03*
D13*
X140970000Y-45085000D03*
D12*
X110490000Y-50165000D03*
D13*
X110490000Y-45085000D03*
D12*
X123825000Y-49530000D03*
D13*
X123825000Y-44450000D03*
D12*
X127000000Y-48895000D03*
D13*
X127000000Y-43815000D03*
D12*
X100330000Y-50165000D03*
D13*
X100330000Y-45085000D03*
D12*
X113665000Y-49530000D03*
D13*
X113665000Y-44450000D03*
D12*
X116840000Y-48895000D03*
D13*
X116840000Y-43815000D03*
X90170000Y-45085000D03*
D12*
X90170000Y-50165000D03*
X103505000Y-49530000D03*
D13*
X103505000Y-44450000D03*
D12*
X106680000Y-48895000D03*
D13*
X106680000Y-43815000D03*
D12*
X80010000Y-50165000D03*
D13*
X80010000Y-45085000D03*
X93345000Y-44450000D03*
D12*
X93345000Y-49530000D03*
D13*
X96520000Y-43815000D03*
D12*
X96520000Y-48895000D03*
X69850000Y-50165000D03*
D13*
X69850000Y-45085000D03*
D12*
X83185000Y-49403000D03*
D13*
X83185000Y-44323000D03*
D12*
X86360000Y-48768000D03*
D13*
X86360000Y-43688000D03*
D12*
X73025000Y-49530000D03*
D13*
X73025000Y-44450000D03*
D12*
X76200000Y-48895000D03*
D13*
X76200000Y-43815000D03*
D26*
X228934000Y-34163000D03*
X233934000Y-34163000D03*
X225552000Y-52498000D03*
X225552000Y-47498000D03*
D27*
X173609000Y-39624000D03*
D28*
X173609000Y-41124000D03*
D26*
X243713000Y-48554000D03*
X243713000Y-51054000D03*
X228981000Y-48554000D03*
X228981000Y-51054000D03*
D29*
X206883000Y-53213000D03*
X167844347Y-38645000D03*
X170053000Y-37211000D03*
X233934000Y-41529000D03*
X197395000Y-43561000D03*
X173990000Y-44450000D03*
X173990000Y-45450003D03*
X173990000Y-47450009D03*
X173990000Y-46450006D03*
X169926000Y-38608000D03*
X165227000Y-41239990D03*
X201295000Y-48604000D03*
X203045000Y-43561000D03*
X168910000Y-38645000D03*
X164084000Y-41239990D03*
X197358000Y-40640000D03*
X171323000Y-37338000D03*
X197358000Y-37846000D03*
X162179000Y-50403003D03*
X173990000Y-50450018D03*
X206883000Y-46228000D03*
X162179000Y-49403000D03*
X173990000Y-49450015D03*
X162147153Y-48400587D03*
X173990000Y-48450012D03*
D30*
X231362250Y-44450000D02*
X231394000Y-44450000D01*
D31*
X116055000Y-39243000D02*
X122555000Y-39243000D01*
X123969213Y-39243000D02*
X128120000Y-39243000D01*
X122555000Y-39243000D02*
X123969213Y-39243000D01*
X129534213Y-39243000D02*
X134620000Y-39243000D01*
X128120000Y-39243000D02*
X129534213Y-39243000D01*
X136034213Y-39243000D02*
X140589000Y-39243000D01*
X134620000Y-39243000D02*
X136034213Y-39243000D01*
X225552000Y-52498000D02*
X224752001Y-53297999D01*
X206967999Y-53297999D02*
X206883000Y-53213000D01*
X224752001Y-53297999D02*
X206967999Y-53297999D01*
X168712662Y-37211000D02*
X170053000Y-37211000D01*
X167844347Y-38645000D02*
X167844347Y-38079315D01*
X167844347Y-38079315D02*
X168712662Y-37211000D01*
X171193208Y-34417000D02*
X172466000Y-34417000D01*
X157395959Y-34730010D02*
X170880198Y-34730010D01*
X157072949Y-34407000D02*
X157395959Y-34730010D01*
X170880198Y-34730010D02*
X171193208Y-34417000D01*
X156083000Y-34407000D02*
X157072949Y-34407000D01*
X172629000Y-39624000D02*
X173609000Y-39624000D01*
X172466000Y-39461000D02*
X172629000Y-39624000D01*
X172466000Y-34417000D02*
X172466000Y-39461000D01*
X228822250Y-44450000D02*
X231743250Y-41529000D01*
X231743250Y-41529000D02*
X233934000Y-41529000D01*
X200987052Y-32972999D02*
X232743999Y-32972999D01*
X233134001Y-33363001D02*
X233934000Y-34163000D01*
X199898000Y-34062051D02*
X200987052Y-32972999D01*
X232743999Y-32972999D02*
X233134001Y-33363001D01*
X199898000Y-35052000D02*
X199898000Y-34062051D01*
X199771000Y-43561000D02*
X199898000Y-43434000D01*
X197395000Y-43561000D02*
X199771000Y-43561000D01*
D30*
X73660000Y-56388000D02*
X73660000Y-63023750D01*
X73660000Y-63023750D02*
X73977500Y-63341250D01*
X76200000Y-49530000D02*
X76200000Y-53848000D01*
X76200000Y-53848000D02*
X73660000Y-56388000D01*
X236941249Y-38871001D02*
X238982250Y-36830000D01*
X198999999Y-38871001D02*
X236941249Y-38871001D01*
X198999999Y-38871001D02*
X196850000Y-38871001D01*
X196850000Y-38871001D02*
X196850000Y-38862000D01*
X196182989Y-41160369D02*
X192893358Y-44450000D01*
X192893358Y-44450000D02*
X173990000Y-44450000D01*
X196182989Y-39400601D02*
X196182989Y-41160369D01*
X196850000Y-38871001D02*
X196712588Y-38871002D01*
X196712588Y-38871002D02*
X196182989Y-39400601D01*
X73025000Y-53848000D02*
X73025000Y-50165000D01*
X77640001Y-81291251D02*
X77608251Y-81291251D01*
X78740000Y-82391250D02*
X77640001Y-81291251D01*
X73475010Y-77158010D02*
X73475009Y-74616599D01*
X77608251Y-81291251D02*
X73475010Y-77158010D01*
X73475009Y-74616599D02*
X70300010Y-71441600D01*
X70300010Y-56572990D02*
X73025000Y-53848000D01*
X70300010Y-71441600D02*
X70300010Y-56572990D01*
X151130000Y-44035000D02*
X147989000Y-40894000D01*
X151130000Y-45085000D02*
X151130000Y-44035000D01*
X145580998Y-40894000D02*
X144399000Y-39712002D01*
X147989000Y-40894000D02*
X145580998Y-40894000D01*
X144399000Y-39712002D02*
X144399000Y-37973000D01*
X144399000Y-37973000D02*
X145669000Y-36703000D01*
X199186399Y-39321011D02*
X199214011Y-39321011D01*
X239031239Y-39321011D02*
X241522250Y-36830000D01*
X199186399Y-39321011D02*
X239031239Y-39321011D01*
X199186399Y-39321011D02*
X196898989Y-39321011D01*
X173990000Y-45450003D02*
X192529765Y-45450003D01*
X196632999Y-39587001D02*
X196632999Y-41346769D01*
X196898989Y-39321011D02*
X196632999Y-39587001D01*
X196632999Y-41346769D02*
X192529765Y-45450003D01*
X88276020Y-58589770D02*
X88276020Y-56399020D01*
X86360000Y-54226180D02*
X86360000Y-49403000D01*
X93027500Y-63341250D02*
X88276020Y-58589770D01*
X88276020Y-56399020D02*
X88276018Y-56399018D01*
X88276018Y-56399018D02*
X88276018Y-56142198D01*
X88276018Y-56142198D02*
X86360000Y-54226180D01*
X87826009Y-56328599D02*
X83185000Y-51687590D01*
X98012250Y-82391250D02*
X92583000Y-76962000D01*
X92583000Y-75309590D02*
X87826010Y-70552600D01*
X97790000Y-82391250D02*
X98012250Y-82391250D01*
X92583000Y-76962000D02*
X92583000Y-75309590D01*
X87826010Y-70552600D02*
X87826009Y-56328599D01*
X83185000Y-51687590D02*
X83185000Y-49403000D01*
X69850000Y-71628000D02*
X69850000Y-50165000D01*
X88265000Y-101441250D02*
X87165001Y-100341251D01*
X87133251Y-100341251D02*
X73025000Y-86233000D01*
X73025000Y-74803000D02*
X69850000Y-71628000D01*
X87165001Y-100341251D02*
X87133251Y-100341251D01*
X73025000Y-86233000D02*
X73025000Y-74803000D01*
X141351000Y-41021000D02*
X143129000Y-39243000D01*
X130810000Y-45085000D02*
X134874000Y-41021000D01*
X134874000Y-41021000D02*
X141351000Y-41021000D01*
X207772000Y-42164000D02*
X209714969Y-40221031D01*
X191802579Y-47450009D02*
X194744597Y-44507991D01*
X197104000Y-42164000D02*
X207772000Y-42164000D01*
X173990000Y-47450009D02*
X191802579Y-47450009D01*
X209714969Y-40221031D02*
X243211219Y-40221031D01*
X194760009Y-44507991D02*
X197104000Y-42164000D01*
X243211219Y-40221031D02*
X246602250Y-36830000D01*
X194744597Y-44507991D02*
X194760009Y-44507991D01*
X96520000Y-54864000D02*
X96520000Y-49530000D01*
X107199020Y-58462770D02*
X107199020Y-56015200D01*
X112077500Y-63341250D02*
X107199020Y-58462770D01*
X107199020Y-56015200D02*
X106290800Y-55106980D01*
X106290800Y-55106980D02*
X96762980Y-55106980D01*
X96762980Y-55106980D02*
X96520000Y-54864000D01*
X106104400Y-55556990D02*
X93529990Y-55556990D01*
X106749010Y-70298600D02*
X106749009Y-56201599D01*
X111606760Y-77189760D02*
X111606759Y-75156349D01*
X93345000Y-55372000D02*
X93345000Y-50165000D01*
X116840000Y-82391250D02*
X115740001Y-81291251D01*
X93529990Y-55556990D02*
X93345000Y-55372000D01*
X106749009Y-56201599D02*
X106104400Y-55556990D01*
X111606759Y-75156349D02*
X106749010Y-70298600D01*
X115740001Y-81291251D02*
X115708251Y-81291251D01*
X115708251Y-81291251D02*
X111606760Y-77189760D01*
X92106750Y-86233000D02*
X92106750Y-75469750D01*
X107315000Y-101441250D02*
X92106750Y-86233000D01*
X92106750Y-75469750D02*
X87376000Y-70739000D01*
X87376000Y-70739000D02*
X87376000Y-56515000D01*
X87376000Y-56515000D02*
X82734991Y-51873991D01*
X81718991Y-51873991D02*
X80010000Y-50165000D01*
X82734991Y-51873991D02*
X81718991Y-51873991D01*
X106680000Y-53586950D02*
X106680000Y-49530000D01*
X110223570Y-55229750D02*
X108322800Y-55229750D01*
X125467800Y-55233980D02*
X110227800Y-55233980D01*
X108322800Y-55229750D02*
X106680000Y-53586950D01*
X130027501Y-62209501D02*
X126249020Y-58431020D01*
X110227800Y-55233980D02*
X110223570Y-55229750D01*
X126249020Y-58431020D02*
X126249020Y-56015200D01*
X130027501Y-62241251D02*
X130027501Y-62209501D01*
X131127500Y-63341250D02*
X130027501Y-62241251D01*
X126249020Y-56015200D02*
X125467800Y-55233980D01*
X103505000Y-53975000D02*
X103505000Y-50165000D01*
X106663601Y-54206961D02*
X103736961Y-54206961D01*
X130625009Y-75251599D02*
X125799010Y-70425600D01*
X135890000Y-82391250D02*
X130714750Y-77216000D01*
X130625010Y-77158010D02*
X130625009Y-75251599D01*
X110041400Y-55683990D02*
X110037170Y-55679760D01*
X130683000Y-77216000D02*
X130625010Y-77158010D01*
X130714750Y-77216000D02*
X130683000Y-77216000D01*
X103736961Y-54206961D02*
X103505000Y-53975000D01*
X125799010Y-70425600D02*
X125799009Y-56201599D01*
X125281400Y-55683990D02*
X110041400Y-55683990D01*
X110037170Y-55679760D02*
X108136400Y-55679760D01*
X125799009Y-56201599D02*
X125281400Y-55683990D01*
X108136400Y-55679760D02*
X106663601Y-54206961D01*
X90170000Y-55753000D02*
X90170000Y-50800000D01*
X90424000Y-56007000D02*
X90170000Y-55753000D01*
X105918000Y-56007000D02*
X90424000Y-56007000D01*
X111156750Y-86233000D02*
X111156750Y-75342750D01*
X126365000Y-101441250D02*
X111156750Y-86233000D01*
X111156750Y-75342750D02*
X106299000Y-70485000D01*
X106299000Y-70485000D02*
X106299000Y-56388000D01*
X106299000Y-56388000D02*
X105918000Y-56007000D01*
X116840000Y-53721000D02*
X116840000Y-49530000D01*
X145299020Y-58431020D02*
X145299020Y-56015200D01*
X148082000Y-61214000D02*
X145299020Y-58431020D01*
X117002951Y-53883951D02*
X116840000Y-53721000D01*
X150177500Y-63341250D02*
X148082000Y-61245750D01*
X123884400Y-53883951D02*
X117002951Y-53883951D01*
X145299020Y-56015200D02*
X144517800Y-55233980D01*
X148082000Y-61245750D02*
X148082000Y-61214000D01*
X144517800Y-55233980D02*
X127377028Y-55233980D01*
X127377028Y-55233980D02*
X126026999Y-53883953D01*
X126026999Y-53883953D02*
X123884402Y-53883953D01*
X123884402Y-53883953D02*
X123884400Y-53883951D01*
X113665000Y-54102000D02*
X113665000Y-50165000D01*
X113896961Y-54333961D02*
X113665000Y-54102000D01*
X123698000Y-54333961D02*
X113896961Y-54333961D01*
X125840600Y-54333962D02*
X123698000Y-54333961D01*
X127190630Y-55683990D02*
X125840600Y-54333962D01*
X144331400Y-55683990D02*
X127190630Y-55683990D01*
X149675010Y-77126260D02*
X149675009Y-75251599D01*
X154940000Y-82391250D02*
X149675010Y-77126260D01*
X149675009Y-75251599D02*
X144849010Y-70425600D01*
X144849010Y-70425600D02*
X144849009Y-56201599D01*
X144849009Y-56201599D02*
X144331400Y-55683990D01*
X100330000Y-50800000D02*
X100330000Y-54102000D01*
X100330000Y-54102000D02*
X100330000Y-54483000D01*
X100330000Y-54483000D02*
X100503970Y-54656970D01*
X100503970Y-54656970D02*
X102743000Y-54656970D01*
X102743000Y-54656970D02*
X106477201Y-54656971D01*
X106477201Y-54656971D02*
X106472971Y-54656971D01*
X144315001Y-100341251D02*
X145415000Y-101441250D01*
X144283251Y-100341251D02*
X144315001Y-100341251D01*
X130175000Y-86233000D02*
X144283251Y-100341251D01*
X125349000Y-70612000D02*
X130175000Y-75438000D01*
X130175000Y-75438000D02*
X130175000Y-86233000D01*
X107950000Y-56129770D02*
X109850770Y-56129770D01*
X125349000Y-56388000D02*
X125349000Y-70612000D01*
X125095000Y-56134000D02*
X125349000Y-56388000D01*
X106477201Y-54656971D02*
X107950000Y-56129770D01*
X109850770Y-56129770D02*
X109855000Y-56134000D01*
X109855000Y-56134000D02*
X125095000Y-56134000D01*
X127000000Y-52947724D02*
X127000000Y-49530000D01*
X164349020Y-58431020D02*
X164349020Y-56015200D01*
X164349020Y-56015200D02*
X163567800Y-55233980D01*
X169227500Y-63341250D02*
X168127501Y-62241251D01*
X168127501Y-62241251D02*
X168127501Y-62209501D01*
X147561570Y-55229750D02*
X146422798Y-55229750D01*
X163567800Y-55233980D02*
X147565800Y-55233980D01*
X146422798Y-55229750D02*
X145076996Y-53883951D01*
X168127501Y-62209501D02*
X164349020Y-58431020D01*
X145076996Y-53883951D02*
X127936227Y-53883951D01*
X147565800Y-55233980D02*
X147561570Y-55229750D01*
X127936227Y-53883951D02*
X127000000Y-52947724D01*
X123825000Y-52832000D02*
X123825000Y-50165000D01*
X123976931Y-52983931D02*
X123825000Y-52832000D01*
X126399797Y-52983931D02*
X123976931Y-52983931D01*
X127749827Y-54333961D02*
X126399797Y-52983931D01*
X163899009Y-56201599D02*
X163381400Y-55683990D01*
X146236400Y-55679760D02*
X144890600Y-54333962D01*
X163899010Y-70425600D02*
X163899009Y-56201599D01*
X173990000Y-82391250D02*
X168725010Y-77126260D01*
X163381400Y-55683990D02*
X147379400Y-55683990D01*
X168725009Y-75251599D02*
X163899010Y-70425600D01*
X147379400Y-55683990D02*
X147375170Y-55679760D01*
X168725010Y-77126260D02*
X168725009Y-75251599D01*
X144890600Y-54333962D02*
X144018000Y-54333961D01*
X147375170Y-55679760D02*
X146236400Y-55679760D01*
X144018000Y-54333961D02*
X127749827Y-54333961D01*
X163365001Y-100341251D02*
X164465000Y-101441250D01*
X149225000Y-86233000D02*
X163333251Y-100341251D01*
X110663970Y-54783970D02*
X125654201Y-54783971D01*
X110490000Y-54610000D02*
X110663970Y-54783970D01*
X126873000Y-56007000D02*
X127000000Y-56134000D01*
X163333251Y-100341251D02*
X163365001Y-100341251D01*
X127000000Y-56134000D02*
X144145000Y-56134000D01*
X144145000Y-56134000D02*
X144399000Y-56388000D01*
X110490000Y-50800000D02*
X110490000Y-54610000D01*
X144399000Y-56388000D02*
X144399000Y-70612000D01*
X126873000Y-56002770D02*
X126873000Y-56007000D01*
X144399000Y-70612000D02*
X149225000Y-75438000D01*
X125654201Y-54783971D02*
X126873000Y-56002770D01*
X149225000Y-75438000D02*
X149225000Y-86233000D01*
X184780770Y-56002770D02*
X184785000Y-56007000D01*
X184023000Y-56002770D02*
X184780770Y-56002770D01*
X165663427Y-54783970D02*
X182804201Y-54783971D01*
X163762400Y-53397990D02*
X163798353Y-53433943D01*
X140970000Y-51816000D02*
X141237911Y-52083911D01*
X145822597Y-52083912D02*
X147168395Y-53429710D01*
X164313400Y-53433943D02*
X165663427Y-54783970D01*
X163798353Y-53433943D02*
X164313400Y-53433943D01*
X153864600Y-53397990D02*
X163762400Y-53397990D01*
X140970000Y-50165000D02*
X140970000Y-51816000D01*
X148425710Y-53429710D02*
X148429942Y-53433942D01*
X184785000Y-56007000D02*
X184658000Y-56007000D01*
X182804201Y-54783971D02*
X184023000Y-56002770D01*
X147168395Y-53429710D02*
X148425710Y-53429710D01*
X141237911Y-52083911D02*
X145822597Y-52083912D01*
X148429942Y-53433942D02*
X153828648Y-53433942D01*
X153828648Y-53433942D02*
X153864600Y-53397990D01*
X199517000Y-56007000D02*
X184785000Y-56007000D01*
X201041000Y-56007000D02*
X199517000Y-56007000D01*
X212090000Y-113538000D02*
X215900000Y-109728000D01*
X201225990Y-56191990D02*
X201041000Y-56007000D01*
X179200490Y-122428000D02*
X179200490Y-113538000D01*
X176057240Y-125571250D02*
X179200490Y-122428000D01*
X174466250Y-125571250D02*
X176057240Y-125571250D01*
X215900000Y-94488000D02*
X206375000Y-84963000D01*
X179200490Y-113538000D02*
X212090000Y-113538000D01*
X206375000Y-84963000D02*
X206375000Y-77344410D01*
X215900000Y-109728000D02*
X215900000Y-94488000D01*
X201225990Y-72195400D02*
X201225990Y-56191990D01*
X206375000Y-77344410D02*
X201225990Y-72195400D01*
X192166172Y-46450006D02*
X173990000Y-46450006D01*
X241121229Y-39771021D02*
X209528569Y-39771021D01*
X244062250Y-36830000D02*
X241121229Y-39771021D01*
X207585600Y-41713990D02*
X196902188Y-41713990D01*
X209528569Y-39771021D02*
X207585600Y-41713990D01*
X196902188Y-41713990D02*
X192166172Y-46450006D01*
X188277500Y-63341250D02*
X183399020Y-58462770D01*
X183399020Y-58462770D02*
X183399020Y-56503980D01*
X183399020Y-56503980D02*
X183399020Y-56388000D01*
X137160000Y-52197000D02*
X137160000Y-49530000D01*
X137496921Y-52533921D02*
X137160000Y-52197000D01*
X145636196Y-52533921D02*
X137496921Y-52533921D01*
X146981995Y-53879720D02*
X145636196Y-52533921D01*
X165477029Y-55233980D02*
X164127000Y-53883953D01*
X148120770Y-53879720D02*
X146981995Y-53879720D01*
X182617800Y-55233980D02*
X165477029Y-55233980D01*
X148125002Y-53883952D02*
X148120770Y-53879720D01*
X164127000Y-53883953D02*
X163611953Y-53883953D01*
X183399020Y-56503980D02*
X183399020Y-56015200D01*
X183399020Y-56015200D02*
X182617800Y-55233980D01*
X163576000Y-53848000D02*
X154051000Y-53848000D01*
X163611953Y-53883953D02*
X163576000Y-53848000D01*
X154051000Y-53848000D02*
X154015048Y-53883952D01*
X154015048Y-53883952D02*
X148125002Y-53883952D01*
X134263931Y-52983931D02*
X133985000Y-52705000D01*
X145449796Y-52983931D02*
X134263931Y-52983931D01*
X146795595Y-54329730D02*
X145449796Y-52983931D01*
X147934370Y-54329730D02*
X146795595Y-54329730D01*
X187775009Y-75124599D02*
X182949010Y-70298600D01*
X133985000Y-52705000D02*
X133985000Y-50165000D01*
X188499750Y-77851000D02*
X188468000Y-77851000D01*
X188468000Y-77851000D02*
X187775010Y-77158010D01*
X187775010Y-77158010D02*
X187775009Y-75124599D01*
X147938602Y-54333962D02*
X147934370Y-54329730D01*
X193040000Y-82391250D02*
X188499750Y-77851000D01*
X182431400Y-55683990D02*
X165290630Y-55683990D01*
X182949010Y-70298600D02*
X182949009Y-56201599D01*
X182949009Y-56201599D02*
X182431400Y-55683990D01*
X165290630Y-55683990D02*
X163940600Y-54333962D01*
X163940600Y-54333962D02*
X147938602Y-54333962D01*
X168275000Y-75438000D02*
X168275000Y-86233000D01*
X163449000Y-70612000D02*
X168275000Y-75438000D01*
X127563426Y-54783970D02*
X144704201Y-54783971D01*
X172878750Y-90805000D02*
X183515000Y-101441250D01*
X126213397Y-53433941D02*
X127563426Y-54783970D01*
X147188770Y-56129770D02*
X147193000Y-56134000D01*
X120743941Y-53433941D02*
X126213397Y-53433941D01*
X172847000Y-90805000D02*
X172878750Y-90805000D01*
X120650000Y-50800000D02*
X120650000Y-53340000D01*
X120650000Y-53340000D02*
X120743941Y-53433941D01*
X147193000Y-56134000D02*
X163195000Y-56134000D01*
X144704201Y-54783971D02*
X146050000Y-56129770D01*
X163195000Y-56134000D02*
X163449000Y-56388000D01*
X146050000Y-56129770D02*
X147188770Y-56129770D01*
X168275000Y-86233000D02*
X172847000Y-90805000D01*
X163449000Y-56388000D02*
X163449000Y-70612000D01*
X147541195Y-52529690D02*
X147320000Y-52308495D01*
X153460080Y-52529690D02*
X147541195Y-52529690D01*
X153491800Y-52497970D02*
X153460080Y-52529690D01*
X147320000Y-52308495D02*
X147320000Y-48895000D01*
X164650247Y-52497970D02*
X153491800Y-52497970D01*
X166036230Y-53883953D02*
X164650247Y-52497970D01*
X183177001Y-53883953D02*
X166036230Y-53883953D01*
X207327500Y-63341250D02*
X206227501Y-62241251D01*
X202126010Y-58108010D02*
X202126009Y-55819189D01*
X206227501Y-62241251D02*
X206227501Y-62209501D01*
X201413800Y-55106982D02*
X199390000Y-55106981D01*
X199390000Y-55106981D02*
X185283391Y-55106981D01*
X202126009Y-55819189D02*
X201413800Y-55106982D01*
X184395800Y-55102750D02*
X183177001Y-53883953D01*
X185283391Y-55106981D02*
X185279160Y-55102750D01*
X206227501Y-62209501D02*
X202126010Y-58108010D01*
X185279160Y-55102750D02*
X184395800Y-55102750D01*
X201676000Y-72009000D02*
X210958251Y-81291251D01*
X201227401Y-55556991D02*
X201676000Y-56005590D01*
X185096990Y-55556990D02*
X201227401Y-55556991D01*
X201676000Y-56005590D02*
X201676000Y-72009000D01*
X185092760Y-55552760D02*
X185096990Y-55556990D01*
X146008998Y-51633903D02*
X147354795Y-52979700D01*
X210958251Y-81291251D02*
X210990001Y-81291251D01*
X165849828Y-54333961D02*
X182990602Y-54333962D01*
X147354795Y-52979700D02*
X153646480Y-52979700D01*
X144526000Y-51633902D02*
X146008998Y-51633903D01*
X210990001Y-81291251D02*
X212090000Y-82391250D01*
X144145000Y-51252902D02*
X144526000Y-51633902D01*
X144145000Y-49530000D02*
X144145000Y-51252902D01*
X182990602Y-54333962D02*
X184209400Y-55552760D01*
X153646480Y-52979700D02*
X153678200Y-52947980D01*
X164463847Y-52947980D02*
X165849828Y-54333961D01*
X184209400Y-55552760D02*
X185092760Y-55552760D01*
X153678200Y-52947980D02*
X164463847Y-52947980D01*
X187325000Y-86106000D02*
X201465001Y-100246001D01*
X182499000Y-70485000D02*
X187325000Y-75311000D01*
X182499000Y-56388000D02*
X182499000Y-70485000D01*
X145263396Y-53433941D02*
X146609196Y-54779740D01*
X164799029Y-55828799D02*
X164799029Y-55833029D01*
X201465001Y-100341251D02*
X202565000Y-101441250D01*
X130903941Y-53433941D02*
X145263396Y-53433941D01*
X130810000Y-50800000D02*
X130810000Y-53340000D01*
X146609196Y-54779740D02*
X147747970Y-54779740D01*
X164799029Y-55833029D02*
X165100000Y-56134000D01*
X201465001Y-100246001D02*
X201465001Y-100341251D01*
X130810000Y-53340000D02*
X130903941Y-53433941D01*
X187325000Y-75311000D02*
X187325000Y-86106000D01*
X182245000Y-56134000D02*
X182499000Y-56388000D01*
X147747970Y-54779740D02*
X147752200Y-54783970D01*
X147752200Y-54783970D02*
X163754201Y-54783971D01*
X163754201Y-54783971D02*
X164799029Y-55828799D01*
X165100000Y-56134000D02*
X182245000Y-56134000D01*
X154305000Y-51435000D02*
X154305000Y-49403000D01*
X154467952Y-51597952D02*
X154305000Y-51435000D01*
X165023047Y-51597952D02*
X154467952Y-51597952D01*
X184768598Y-54202730D02*
X183549801Y-52983933D01*
X221049009Y-56201599D02*
X220531400Y-55683990D01*
X226377500Y-63341250D02*
X226155250Y-63341250D01*
X226155250Y-63341250D02*
X221049010Y-58235010D01*
X220531400Y-55683990D02*
X204529400Y-55683990D01*
X204529400Y-55683990D02*
X204525174Y-55679764D01*
X201786599Y-54206964D02*
X197972374Y-54206964D01*
X166409030Y-52983933D02*
X165023047Y-51597952D01*
X221049010Y-58235010D02*
X221049009Y-56201599D01*
X204525174Y-55679764D02*
X203259401Y-55679764D01*
X183549801Y-52983933D02*
X166409030Y-52983933D01*
X203259401Y-55679764D02*
X201786599Y-54206964D01*
X197972374Y-54206964D02*
X197968140Y-54202730D01*
X197968140Y-54202730D02*
X184768598Y-54202730D01*
X231140000Y-82391250D02*
X225933000Y-77184250D01*
X225933000Y-77184250D02*
X225901250Y-77184250D01*
X225901250Y-77184250D02*
X220726000Y-72009000D01*
X220726000Y-72009000D02*
X220599000Y-71882000D01*
X220599000Y-71882000D02*
X220599000Y-56388000D01*
X220599000Y-56388000D02*
X220345000Y-56134000D01*
X220345000Y-56134000D02*
X219329000Y-56134000D01*
X204338773Y-56129773D02*
X204343000Y-56134000D01*
X203073000Y-56129773D02*
X204338773Y-56129773D01*
X201600200Y-54656973D02*
X203073000Y-56129773D01*
X197785971Y-54656971D02*
X201600200Y-54656973D01*
X197781740Y-54652740D02*
X197785971Y-54656971D01*
X151266680Y-52079680D02*
X153273680Y-52079680D01*
X153305400Y-52047960D02*
X164836648Y-52047961D01*
X204343000Y-56134000D02*
X204216000Y-56134000D01*
X164836648Y-52047961D02*
X166222630Y-53433943D01*
X151130000Y-51943000D02*
X151266680Y-52079680D01*
X183363401Y-53433943D02*
X184582198Y-54652740D01*
X151130000Y-50165000D02*
X151130000Y-51943000D01*
X166222630Y-53433943D02*
X183363401Y-53433943D01*
X153273680Y-52079680D02*
X153305400Y-52047960D01*
X219329000Y-56134000D02*
X204343000Y-56134000D01*
X184582198Y-54652740D02*
X197781740Y-54652740D01*
X239776000Y-56388000D02*
X239776000Y-57785000D01*
X220717801Y-55233981D02*
X221499018Y-56015198D01*
X209538980Y-55233980D02*
X220717801Y-55233981D01*
X209534754Y-55229754D02*
X209538980Y-55233980D01*
X165209447Y-51147942D02*
X166595428Y-52533923D01*
X183736202Y-52533924D02*
X184954998Y-53752720D01*
X239403198Y-56015198D02*
X239776000Y-56388000D01*
X157700942Y-51147942D02*
X165209447Y-51147942D01*
X157480000Y-48768000D02*
X157480000Y-50927000D01*
X199929720Y-53752720D02*
X199933954Y-53756954D01*
X221499018Y-56015198D02*
X239403198Y-56015198D01*
X166595428Y-52533923D02*
X183736202Y-52533924D01*
X199933954Y-53756954D02*
X201972999Y-53756954D01*
X244232251Y-62241251D02*
X244327501Y-62241251D01*
X244327501Y-62241251D02*
X245427500Y-63341250D01*
X203445799Y-55229754D02*
X209534754Y-55229754D01*
X239776000Y-57785000D02*
X244232251Y-62241251D01*
X184954998Y-53752720D02*
X199929720Y-53752720D01*
X201972999Y-53756954D02*
X203445799Y-55229754D01*
X157480000Y-50927000D02*
X157700942Y-51147942D01*
X197612000Y-50072000D02*
X197612000Y-49022000D01*
X196993001Y-50690999D02*
X197612000Y-50072000D01*
X185051911Y-50690999D02*
X196993001Y-50690999D01*
X166968230Y-51633905D02*
X184109004Y-51633906D01*
X184109004Y-51633906D02*
X185051911Y-50690999D01*
X169926000Y-39173685D02*
X168713685Y-40386000D01*
X169926000Y-38608000D02*
X169926000Y-39173685D01*
X165227000Y-41239990D02*
X165227000Y-49657000D01*
X168713685Y-40386000D02*
X168713685Y-40455315D01*
X167929010Y-41239990D02*
X165227000Y-41239990D01*
X168713685Y-40455315D02*
X167929010Y-41239990D01*
X166968230Y-51633905D02*
X166968230Y-50963770D01*
X165661460Y-49657000D02*
X165227000Y-49657000D01*
X166968230Y-50963770D02*
X165661460Y-49657000D01*
X199898000Y-51816000D02*
X199898000Y-51689000D01*
X199898000Y-51816000D02*
X201295000Y-50419000D01*
X201295000Y-50419000D02*
X201295000Y-48604000D01*
X204851000Y-43561000D02*
X204978000Y-43434000D01*
X203045000Y-43561000D02*
X204851000Y-43561000D01*
X164483999Y-40839991D02*
X164084000Y-41239990D01*
X165376980Y-39947010D02*
X164483999Y-40839991D01*
X167607990Y-39947010D02*
X165376980Y-39947010D01*
X168910000Y-38645000D02*
X167607990Y-39947010D01*
X164084000Y-41805675D02*
X164084000Y-41239990D01*
X185141398Y-53302710D02*
X183922603Y-52083915D01*
X166781829Y-52083914D02*
X166497000Y-51799085D01*
X197175290Y-53302710D02*
X185141398Y-53302710D01*
X165042010Y-50107010D02*
X164788010Y-50107010D01*
X183922603Y-52083915D02*
X166781829Y-52083914D01*
X166497000Y-51799085D02*
X166497000Y-51562000D01*
X197612000Y-52866000D02*
X197175290Y-53302710D01*
X197612000Y-51816000D02*
X197612000Y-52866000D01*
X166497000Y-51562000D02*
X165042010Y-50107010D01*
X164788010Y-50107010D02*
X164084000Y-49403000D01*
X164084000Y-49403000D02*
X164084000Y-41805675D01*
X157072949Y-39507000D02*
X157082949Y-39497000D01*
X156083000Y-39507000D02*
X157072949Y-39507000D01*
X161387500Y-38600000D02*
X161387500Y-37850000D01*
X160490500Y-39497000D02*
X161387500Y-38600000D01*
X161382500Y-37845000D02*
X161387500Y-37850000D01*
X161382500Y-36525000D02*
X161382500Y-37845000D01*
X165632500Y-37845000D02*
X165637500Y-37850000D01*
X165632500Y-36525000D02*
X165632500Y-37845000D01*
X164740500Y-39497000D02*
X160528000Y-39497000D01*
X165637500Y-38600000D02*
X164740500Y-39497000D01*
X165637500Y-37850000D02*
X165637500Y-38600000D01*
X157082949Y-39497000D02*
X160528000Y-39497000D01*
X160528000Y-39497000D02*
X160490500Y-39497000D01*
X197358000Y-40640000D02*
X199898000Y-40640000D01*
X169329990Y-35344990D02*
X171323000Y-37338000D01*
X162662510Y-35344990D02*
X169329990Y-35344990D01*
X162232500Y-36525000D02*
X162232500Y-35775000D01*
X162232500Y-35775000D02*
X162662510Y-35344990D01*
X197923685Y-37846000D02*
X199898000Y-37846000D01*
X197358000Y-37846000D02*
X197923685Y-37846000D01*
X144304001Y-35527999D02*
X148176999Y-35527999D01*
X143129000Y-36703000D02*
X144304001Y-35527999D01*
X148176999Y-35527999D02*
X151130000Y-38481000D01*
X151130000Y-38481000D02*
X154813000Y-42164000D01*
X158141002Y-42164000D02*
X159131000Y-43153998D01*
X154813000Y-42164000D02*
X158141002Y-42164000D01*
X159131000Y-43153998D02*
X159131000Y-48768000D01*
X160579603Y-50403003D02*
X162179000Y-50403003D01*
X159131000Y-48768000D02*
X159131001Y-48954401D01*
X159131001Y-48954401D02*
X160579603Y-50403003D01*
X173424315Y-50450018D02*
X173990000Y-50450018D01*
X173264999Y-44101999D02*
X173264999Y-50290702D01*
X173264999Y-50290702D02*
X173424315Y-50450018D01*
X234851259Y-38420991D02*
X207838991Y-38420991D01*
X236442250Y-36830000D02*
X234851259Y-38420991D01*
X207838991Y-38420991D02*
X205867000Y-36449000D01*
X205867000Y-36449000D02*
X180917998Y-36449000D01*
X180917998Y-36449000D02*
X173264999Y-44101999D01*
X117469213Y-34743000D02*
X122555000Y-34743000D01*
X116055000Y-34743000D02*
X117469213Y-34743000D01*
X122555000Y-34743000D02*
X124515000Y-36703000D01*
X124515000Y-36703000D02*
X140589000Y-36703000D01*
X208661000Y-44450000D02*
X213582250Y-44450000D01*
X206883000Y-46228000D02*
X208661000Y-44450000D01*
X142214011Y-35077989D02*
X148363399Y-35077989D01*
X140589000Y-36703000D02*
X142214011Y-35077989D01*
X148363399Y-35077989D02*
X148363399Y-35079399D01*
X148363399Y-35077989D02*
X154999400Y-41713990D01*
X158327403Y-41713991D02*
X159581010Y-42967598D01*
X154999400Y-41713990D02*
X158327403Y-41713991D01*
X159581010Y-42967598D02*
X159581010Y-48768000D01*
X159581010Y-48768000D02*
X160216010Y-49403000D01*
X160216010Y-49403000D02*
X162179000Y-49403000D01*
X206375000Y-47879000D02*
X206883000Y-47371000D01*
X206883000Y-47371000D02*
X206883000Y-46228000D01*
X174555685Y-49450015D02*
X175252671Y-50147001D01*
X173990000Y-49450015D02*
X174555685Y-49450015D01*
X196569998Y-47879000D02*
X206375000Y-47879000D01*
X175252671Y-50147001D02*
X194301997Y-50147001D01*
X194301997Y-50147001D02*
X196569998Y-47879000D01*
X216376250Y-51816000D02*
X223742250Y-44450000D01*
X204978000Y-51816000D02*
X216376250Y-51816000D01*
X216630250Y-49022000D02*
X221202250Y-44450000D01*
X204978000Y-49022000D02*
X216630250Y-49022000D01*
X134620000Y-34743000D02*
X128120000Y-34743000D01*
X136149234Y-34627979D02*
X142027611Y-34627979D01*
X134620000Y-34743000D02*
X136034213Y-34743000D01*
X136034213Y-34743000D02*
X136149234Y-34627979D01*
X142027611Y-34627979D02*
X148336000Y-34627979D01*
X148336000Y-34627979D02*
X148549800Y-34627980D01*
X148549800Y-34627980D02*
X150559910Y-36638090D01*
X150559910Y-36638090D02*
X155185801Y-41263981D01*
X155185801Y-41263981D02*
X155702000Y-41263981D01*
X158513804Y-41263982D02*
X160031020Y-42781198D01*
X155702000Y-41263981D02*
X158513804Y-41263982D01*
X160031020Y-42781198D02*
X160031020Y-46284454D01*
X160031020Y-46284454D02*
X162147153Y-48400587D01*
X235203291Y-40671041D02*
X238982250Y-44450000D01*
X173990000Y-48450012D02*
X191438986Y-48450012D01*
X205995410Y-44577000D02*
X209901369Y-40671041D01*
X205613000Y-44958000D02*
X205994000Y-44577000D01*
X209901369Y-40671041D02*
X235203291Y-40671041D01*
X191438986Y-48450012D02*
X194930998Y-44958000D01*
X194930998Y-44958000D02*
X205613000Y-44958000D01*
X205994000Y-44577000D02*
X205995410Y-44577000D01*
M02*
