G04 #@! TF.GenerationSoftware,KiCad,Pcbnew,(5.1.5)-3*
G04 #@! TF.CreationDate,2020-11-11T12:05:21-06:00*
G04 #@! TF.ProjectId,masochist,6d61736f-6368-4697-9374-2e6b69636164,rev?*
G04 #@! TF.SameCoordinates,Original*
G04 #@! TF.FileFunction,Copper,L2,Bot*
G04 #@! TF.FilePolarity,Positive*
%FSLAX46Y46*%
G04 Gerber Fmt 4.6, Leading zero omitted, Abs format (unit mm)*
G04 Created by KiCad (PCBNEW (5.1.5)-3) date 2020-11-11 12:05:21*
%MOMM*%
%LPD*%
G04 APERTURE LIST*
%ADD10C,4.400000*%
%ADD11C,1.500000*%
%ADD12O,1.600000X1.600000*%
%ADD13R,1.600000X1.600000*%
%ADD14C,2.200000*%
%ADD15C,2.250000*%
%ADD16C,2.000000*%
%ADD17C,1.400000*%
%ADD18O,1.400000X1.400000*%
%ADD19C,1.800000*%
%ADD20R,1.800000X1.800000*%
%ADD21R,1.700000X1.700000*%
%ADD22C,1.700000*%
%ADD23O,0.650000X1.000000*%
%ADD24O,0.900000X2.400000*%
%ADD25O,0.900000X1.700000*%
%ADD26C,1.600000*%
%ADD27R,1.200000X1.200000*%
%ADD28C,1.200000*%
%ADD29C,0.800000*%
%ADD30C,0.250000*%
%ADD31C,0.380000*%
%ADD32C,0.254000*%
G04 APERTURE END LIST*
D10*
X68834000Y-74930000D03*
X73660000Y-93853000D03*
X83185000Y-112903000D03*
X111633000Y-129667000D03*
X229616000Y-129540000D03*
X229616000Y-114046000D03*
X243967000Y-93853000D03*
X158750000Y-123031250D03*
X61722000Y-53086000D03*
X61722000Y-34671000D03*
X258191000Y-53181250D03*
X258191000Y-34671000D03*
X163449000Y-74803000D03*
X258191000Y-74803000D03*
X196850000Y-103981250D03*
X101600000Y-103981250D03*
X87249000Y-75311000D03*
D11*
X233934000Y-49911000D03*
X238814000Y-49911000D03*
D12*
X213582250Y-36830000D03*
X246602250Y-44450000D03*
X216122250Y-36830000D03*
X244062250Y-44450000D03*
X218662250Y-36830000D03*
X241522250Y-44450000D03*
X221202250Y-36830000D03*
X238982250Y-44450000D03*
X223742250Y-36830000D03*
X236442250Y-44450000D03*
X226282250Y-36830000D03*
X233902250Y-44450000D03*
X228822250Y-36830000D03*
X231362250Y-44450000D03*
X231362250Y-36830000D03*
X228822250Y-44450000D03*
X233902250Y-36830000D03*
X226282250Y-44450000D03*
X236442250Y-36830000D03*
X223742250Y-44450000D03*
X238982250Y-36830000D03*
X221202250Y-44450000D03*
X241522250Y-36830000D03*
X218662250Y-44450000D03*
X244062250Y-36830000D03*
X216122250Y-44450000D03*
X246602250Y-36830000D03*
D13*
X213582250Y-44450000D03*
D14*
X213677500Y-60801250D03*
X207327500Y-63341250D03*
X80327500Y-60801250D03*
X73977500Y-63341250D03*
D15*
X168116250Y-128111250D03*
X174466250Y-125571250D03*
D16*
X128120000Y-39243000D03*
X128120000Y-34743000D03*
X134620000Y-39243000D03*
X134620000Y-34743000D03*
X116055000Y-39243000D03*
X116055000Y-34743000D03*
X122555000Y-39243000D03*
X122555000Y-34743000D03*
D17*
X204978000Y-49022000D03*
D18*
X199898000Y-49022000D03*
X199898000Y-51816000D03*
D17*
X204978000Y-51816000D03*
D18*
X204978000Y-46228000D03*
D17*
X199898000Y-46228000D03*
D18*
X204978000Y-43434000D03*
D17*
X199898000Y-43434000D03*
D18*
X199898000Y-37846000D03*
D17*
X204978000Y-37846000D03*
D18*
X199898000Y-40640000D03*
D17*
X204978000Y-40640000D03*
D18*
X204978000Y-35052000D03*
D17*
X199898000Y-35052000D03*
D19*
X172466000Y-34417000D03*
D20*
X175006000Y-34417000D03*
D14*
X94615000Y-98901250D03*
X88265000Y-101441250D03*
X175577500Y-60801250D03*
X169227500Y-63341250D03*
X113665000Y-98901250D03*
X107315000Y-101441250D03*
X99377500Y-60801250D03*
X93027500Y-63341250D03*
X151765000Y-98901250D03*
X145415000Y-101441250D03*
X194627500Y-60801250D03*
X188277500Y-63341250D03*
X156527500Y-60801250D03*
X150177500Y-63341250D03*
X104140000Y-79851250D03*
X97790000Y-82391250D03*
X137477500Y-60801250D03*
X131127500Y-63341250D03*
X251777500Y-60801250D03*
X245427500Y-63341250D03*
X232727500Y-60801250D03*
X226377500Y-63341250D03*
X189865000Y-98901250D03*
X183515000Y-101441250D03*
X208915000Y-98901250D03*
X202565000Y-101441250D03*
X237490000Y-79851250D03*
X231140000Y-82391250D03*
X218440000Y-79851250D03*
X212090000Y-82391250D03*
X199390000Y-79851250D03*
X193040000Y-82391250D03*
X180340000Y-79851250D03*
X173990000Y-82391250D03*
X161290000Y-79851250D03*
X154940000Y-82391250D03*
X142240000Y-79851250D03*
X135890000Y-82391250D03*
X118427500Y-60801250D03*
X112077500Y-63341250D03*
X123190000Y-79851250D03*
X116840000Y-82391250D03*
X132715000Y-98901250D03*
X126365000Y-101441250D03*
X170815000Y-98901250D03*
X164465000Y-101441250D03*
X85090000Y-79851250D03*
X78740000Y-82391250D03*
D21*
X145669000Y-36703000D03*
D22*
X145669000Y-39243000D03*
X143129000Y-36703000D03*
X143129000Y-39243000D03*
X140589000Y-36703000D03*
X140589000Y-39243000D03*
D23*
X164787500Y-37850000D03*
X166487500Y-37850000D03*
X165637500Y-37850000D03*
X163937500Y-37850000D03*
X163087500Y-37850000D03*
X162237500Y-37850000D03*
X161387500Y-37850000D03*
X160537500Y-37850000D03*
X166487500Y-36525000D03*
X165632500Y-36525000D03*
X164782500Y-36525000D03*
X163932500Y-36525000D03*
X163082500Y-36525000D03*
X162232500Y-36525000D03*
X161382500Y-36525000D03*
X160532500Y-36525000D03*
D24*
X167837500Y-36870000D03*
X159187500Y-36870000D03*
D25*
X167837500Y-33490000D03*
X159187500Y-33490000D03*
D17*
X156083000Y-39507000D03*
X156083000Y-34407000D03*
D12*
X192532000Y-51816000D03*
D13*
X197612000Y-51816000D03*
D12*
X192532000Y-49022000D03*
D13*
X197612000Y-49022000D03*
D12*
X157480000Y-48768000D03*
D13*
X157480000Y-43688000D03*
D12*
X151130000Y-50165000D03*
D13*
X151130000Y-45085000D03*
D12*
X154305000Y-49403000D03*
D13*
X154305000Y-44323000D03*
D12*
X130810000Y-50165000D03*
D13*
X130810000Y-45085000D03*
D12*
X144145000Y-49530000D03*
D13*
X144145000Y-44450000D03*
D12*
X147320000Y-48895000D03*
D13*
X147320000Y-43815000D03*
D12*
X120650000Y-50165000D03*
D13*
X120650000Y-45085000D03*
D12*
X133985000Y-49530000D03*
D13*
X133985000Y-44450000D03*
D12*
X137160000Y-48895000D03*
D13*
X137160000Y-43815000D03*
D12*
X140970000Y-50165000D03*
D13*
X140970000Y-45085000D03*
D12*
X110490000Y-50165000D03*
D13*
X110490000Y-45085000D03*
D12*
X123825000Y-49530000D03*
D13*
X123825000Y-44450000D03*
D12*
X127000000Y-48895000D03*
D13*
X127000000Y-43815000D03*
D12*
X100330000Y-50165000D03*
D13*
X100330000Y-45085000D03*
D12*
X113665000Y-49530000D03*
D13*
X113665000Y-44450000D03*
D12*
X116840000Y-48895000D03*
D13*
X116840000Y-43815000D03*
X90170000Y-45085000D03*
D12*
X90170000Y-50165000D03*
X103505000Y-49530000D03*
D13*
X103505000Y-44450000D03*
D12*
X106680000Y-48895000D03*
D13*
X106680000Y-43815000D03*
D12*
X80010000Y-50165000D03*
D13*
X80010000Y-45085000D03*
X93345000Y-44450000D03*
D12*
X93345000Y-49530000D03*
D13*
X96520000Y-43815000D03*
D12*
X96520000Y-48895000D03*
X69850000Y-50165000D03*
D13*
X69850000Y-45085000D03*
D12*
X83185000Y-49403000D03*
D13*
X83185000Y-44323000D03*
D12*
X86360000Y-48768000D03*
D13*
X86360000Y-43688000D03*
D12*
X73025000Y-49530000D03*
D13*
X73025000Y-44450000D03*
D12*
X76200000Y-48895000D03*
D13*
X76200000Y-43815000D03*
D26*
X228934000Y-34163000D03*
X233934000Y-34163000D03*
X225552000Y-52498000D03*
X225552000Y-47498000D03*
D27*
X173609000Y-39624000D03*
D28*
X173609000Y-41124000D03*
D26*
X243713000Y-48554000D03*
X243713000Y-51054000D03*
X228981000Y-48554000D03*
X228981000Y-51054000D03*
D29*
X206883000Y-53213000D03*
X167844347Y-38645000D03*
X170053000Y-37211000D03*
X233934000Y-41529000D03*
X197395000Y-43561000D03*
X173990000Y-44450000D03*
X173990000Y-45450003D03*
X173990000Y-47450009D03*
X173990000Y-46450006D03*
X169926000Y-38608000D03*
X165227000Y-41239990D03*
X201295000Y-48604000D03*
X203045000Y-43561000D03*
X168910000Y-38645000D03*
X164084000Y-41239990D03*
X197358000Y-40640000D03*
X171323000Y-37338000D03*
X197358000Y-37846000D03*
X162179000Y-50403003D03*
X173990000Y-50450018D03*
X206883000Y-46228000D03*
X162179000Y-49403000D03*
X173990000Y-49450015D03*
X162147153Y-48400587D03*
X173990000Y-48450012D03*
D30*
X228822250Y-34274750D02*
X228934000Y-34163000D01*
D31*
X228934000Y-36718250D02*
X228822250Y-36830000D01*
X228934000Y-34163000D02*
X228934000Y-36718250D01*
X231362250Y-45029750D02*
X231362250Y-44450000D01*
X160537500Y-36530000D02*
X160532500Y-36525000D01*
X160537500Y-37850000D02*
X160537500Y-36530000D01*
X166487500Y-37850000D02*
X166487500Y-36525000D01*
X160537500Y-39741500D02*
X160537500Y-37850000D01*
X140716000Y-39243000D02*
X143502990Y-42029990D01*
X140589000Y-39243000D02*
X140716000Y-39243000D01*
X159543000Y-40736000D02*
X160537500Y-39741500D01*
X143502990Y-42029990D02*
X158211010Y-42029990D01*
X158211010Y-42029990D02*
X159505000Y-40736000D01*
X159505000Y-40736000D02*
X159543000Y-40736000D01*
X192532000Y-49022000D02*
X192532000Y-51816000D01*
X192532000Y-50153370D02*
X192797630Y-50419000D01*
X192532000Y-49022000D02*
X192532000Y-50153370D01*
X200787000Y-50419000D02*
X204978000Y-46228000D01*
X192797630Y-50419000D02*
X200787000Y-50419000D01*
X203835000Y-38989000D02*
X204978000Y-37846000D01*
X204978000Y-46228000D02*
X203835000Y-45085000D01*
X204978000Y-40640000D02*
X203988051Y-40640000D01*
X203861051Y-40767000D02*
X203835000Y-40767000D01*
X203988051Y-40640000D02*
X203861051Y-40767000D01*
X203835000Y-45085000D02*
X203835000Y-40767000D01*
X203835000Y-40767000D02*
X203835000Y-38989000D01*
X172703010Y-42029990D02*
X173609000Y-41124000D01*
X158211010Y-42029990D02*
X172703010Y-42029990D01*
X231362250Y-45581370D02*
X231394000Y-45613120D01*
X231362250Y-44450000D02*
X231362250Y-45581370D01*
X228822250Y-36830000D02*
X231362250Y-39370000D01*
X231362250Y-39370000D02*
X231362250Y-44450000D01*
X174780001Y-42295001D02*
X174780001Y-48034001D01*
X173609000Y-41124000D02*
X174780001Y-42295001D01*
X175768000Y-49022000D02*
X192532000Y-49022000D01*
X174780001Y-48034001D02*
X175768000Y-49022000D01*
X206883000Y-48133000D02*
X204978000Y-46228000D01*
X206883000Y-53213000D02*
X206883000Y-48133000D01*
X228981000Y-49069000D02*
X228981000Y-48554000D01*
X225552000Y-52498000D02*
X228981000Y-49069000D01*
X231362250Y-45581370D02*
X231648000Y-45867120D01*
X231648000Y-45867120D02*
X231648000Y-46482000D01*
X231648000Y-46482000D02*
X232283000Y-47117000D01*
X226351999Y-53297999D02*
X230208999Y-53297999D01*
X225552000Y-52498000D02*
X226351999Y-53297999D01*
X167837500Y-36870000D02*
X167837500Y-37267500D01*
X167255000Y-37850000D02*
X166487500Y-37850000D01*
X167837500Y-37267500D02*
X167255000Y-37850000D01*
X167837500Y-36870000D02*
X167837500Y-38638153D01*
X167837500Y-38638153D02*
X167844347Y-38645000D01*
X170053000Y-37211000D02*
X170053000Y-36830000D01*
D30*
X232791000Y-51054000D02*
X233934000Y-49911000D01*
X228981000Y-51054000D02*
X232791000Y-51054000D01*
X233934000Y-44481750D02*
X233902250Y-44450000D01*
X233934000Y-49911000D02*
X233934000Y-44481750D01*
X239957000Y-51054000D02*
X238814000Y-49911000D01*
X243713000Y-51054000D02*
X239957000Y-51054000D01*
X236442250Y-47539250D02*
X236442250Y-44450000D01*
X238814000Y-49911000D02*
X236442250Y-47539250D01*
X172456000Y-34407000D02*
X172466000Y-34417000D01*
X228822250Y-45116750D02*
X228822250Y-44450000D01*
X233902250Y-34194750D02*
X233934000Y-34163000D01*
D31*
X145669000Y-39243000D02*
X150505000Y-34407000D01*
X233934000Y-36798250D02*
X233902250Y-36830000D01*
X233934000Y-34163000D02*
X233934000Y-36798250D01*
X228822250Y-44608750D02*
X228822250Y-44450000D01*
X150505000Y-34407000D02*
X156083000Y-34407000D01*
X228600000Y-44450000D02*
X228822250Y-44450000D01*
X225552000Y-47498000D02*
X228600000Y-44450000D01*
X233934000Y-36861750D02*
X233902250Y-36830000D01*
X233934000Y-41529000D02*
X233934000Y-36861750D01*
X200988001Y-42343999D02*
X200597999Y-42734001D01*
X200597999Y-42734001D02*
X199898000Y-43434000D01*
X200988001Y-35152052D02*
X200988001Y-42343999D01*
X200887949Y-35052000D02*
X200988001Y-35152052D01*
X199898000Y-35052000D02*
X200887949Y-35052000D01*
X174589000Y-39624000D02*
X175387000Y-40422000D01*
X173609000Y-39624000D02*
X174589000Y-39624000D01*
X175387000Y-40422000D02*
X175387000Y-43180000D01*
X175387000Y-43180000D02*
X175387000Y-43307000D01*
X175387000Y-43307000D02*
X175641000Y-43561000D01*
X175641000Y-43561000D02*
X197395000Y-43561000D01*
D30*
X77250000Y-43815000D02*
X78647000Y-42418000D01*
X76200000Y-43815000D02*
X77250000Y-43815000D01*
X86360000Y-43688000D02*
X86360000Y-42638000D01*
X78647000Y-42418000D02*
X86360000Y-42545000D01*
X86360000Y-42638000D02*
X86360000Y-42545000D01*
X96520000Y-42765000D02*
X96520000Y-42545000D01*
X96520000Y-43815000D02*
X96520000Y-42765000D01*
X86360000Y-42545000D02*
X96520000Y-42545000D01*
X106680000Y-43815000D02*
X106680000Y-42545000D01*
X96520000Y-42545000D02*
X106680000Y-42545000D01*
X116840000Y-42765000D02*
X116840000Y-42545000D01*
X116840000Y-43815000D02*
X116840000Y-42765000D01*
X106680000Y-42545000D02*
X116840000Y-42545000D01*
X127000000Y-42765000D02*
X127000000Y-42545000D01*
X127000000Y-43815000D02*
X127000000Y-42765000D01*
X116840000Y-42545000D02*
X127000000Y-42545000D01*
X137160000Y-42765000D02*
X137160000Y-42545000D01*
X137160000Y-43815000D02*
X137160000Y-42765000D01*
X127000000Y-42545000D02*
X137160000Y-42545000D01*
X137160000Y-42545000D02*
X147320000Y-42545000D01*
X147320000Y-42765000D02*
X147320000Y-42545000D01*
X147320000Y-43815000D02*
X147320000Y-42765000D01*
X154305000Y-44323000D02*
X154305000Y-43273000D01*
X154305000Y-43273000D02*
X154305000Y-42545000D01*
X147320000Y-42545000D02*
X154305000Y-42545000D01*
X157480000Y-43688000D02*
X157480000Y-42545000D01*
X154305000Y-42545000D02*
X157480000Y-42545000D01*
X157480000Y-42545000D02*
X163068000Y-42545000D01*
X163068000Y-42545000D02*
X172085000Y-42545000D01*
X172085000Y-42545000D02*
X173990000Y-44450000D01*
X73025000Y-44450000D02*
X73787000Y-45212000D01*
X73787000Y-45212000D02*
X74098990Y-45523990D01*
X82135000Y-44323000D02*
X81754000Y-43942000D01*
X83185000Y-44323000D02*
X82135000Y-44323000D01*
X78258002Y-43942000D02*
X76676012Y-45523990D01*
X81754000Y-43942000D02*
X78258002Y-43942000D01*
X76676012Y-45523990D02*
X74098990Y-45523990D01*
X83185000Y-44323000D02*
X83947000Y-45085000D01*
X83947000Y-45085000D02*
X84385990Y-45523990D01*
X84385990Y-45523990D02*
X87376000Y-45523990D01*
X88939991Y-43959999D02*
X87376000Y-45523990D01*
X91804999Y-43959999D02*
X88939991Y-43959999D01*
X92295000Y-44450000D02*
X91804999Y-43959999D01*
X93345000Y-44450000D02*
X92295000Y-44450000D01*
X102455000Y-44450000D02*
X101947000Y-43942000D01*
X103505000Y-44450000D02*
X102455000Y-44450000D01*
X99287998Y-43942000D02*
X97706008Y-45523990D01*
X101947000Y-43942000D02*
X99287998Y-43942000D01*
X97706008Y-45523990D02*
X95377000Y-45523990D01*
X94418990Y-45523990D02*
X95631000Y-45523990D01*
X93345000Y-44450000D02*
X94418990Y-45523990D01*
X112124999Y-43959999D02*
X109429999Y-43959999D01*
X113665000Y-44450000D02*
X112615000Y-44450000D01*
X112615000Y-44450000D02*
X112124999Y-43959999D01*
X109429999Y-43959999D02*
X107866008Y-45523990D01*
X107866008Y-45523990D02*
X104578990Y-45523990D01*
X104578990Y-45523990D02*
X103505000Y-44450000D01*
X122775000Y-44450000D02*
X123825000Y-44450000D01*
X119607998Y-43942000D02*
X122267000Y-43942000D01*
X118052010Y-45523990D02*
X118110000Y-45466000D01*
X114738990Y-45523990D02*
X118052010Y-45523990D01*
X113665000Y-44450000D02*
X114738990Y-45523990D01*
X122267000Y-43942000D02*
X122775000Y-44450000D01*
X118110000Y-45466000D02*
X118110000Y-45439998D01*
X118110000Y-45439998D02*
X119607998Y-43942000D01*
X124898990Y-45523990D02*
X123825000Y-44450000D01*
X132935000Y-44450000D02*
X132444999Y-43959999D01*
X128186008Y-45523990D02*
X124898990Y-45523990D01*
X133985000Y-44450000D02*
X132935000Y-44450000D01*
X132444999Y-43959999D02*
X129749999Y-43959999D01*
X129749999Y-43959999D02*
X128186008Y-45523990D01*
X142604999Y-43959999D02*
X143095000Y-44450000D01*
X138929997Y-44940001D02*
X139909999Y-43959999D01*
X143095000Y-44450000D02*
X144145000Y-44450000D01*
X135525001Y-44940001D02*
X138929997Y-44940001D01*
X135035000Y-44450000D02*
X135525001Y-44940001D01*
X139909999Y-43959999D02*
X142604999Y-43959999D01*
X133985000Y-44450000D02*
X135035000Y-44450000D01*
X145830000Y-45085000D02*
X150080000Y-45085000D01*
X150080000Y-45085000D02*
X151130000Y-45085000D01*
X145195000Y-44450000D02*
X145830000Y-45085000D01*
X144145000Y-44450000D02*
X145195000Y-44450000D01*
X157905001Y-45448001D02*
X160357992Y-42995010D01*
X152543001Y-45448001D02*
X157905001Y-45448001D01*
X151130000Y-45085000D02*
X152180000Y-45085000D01*
X152180000Y-45085000D02*
X152543001Y-45448001D01*
X160357992Y-42995010D02*
X163068000Y-42995010D01*
X173917001Y-45450003D02*
X173990000Y-45450003D01*
X163068000Y-42995010D02*
X171462008Y-42995010D01*
X171462008Y-42995010D02*
X173917001Y-45450003D01*
X70866000Y-45974000D02*
X79121000Y-45974000D01*
X79121000Y-45974000D02*
X80010000Y-45085000D01*
X69850000Y-45085000D02*
X69977000Y-45085000D01*
X69977000Y-45085000D02*
X70866000Y-45974000D01*
X80899000Y-45974000D02*
X80010000Y-45085000D01*
X90170000Y-45085000D02*
X89281000Y-45974000D01*
X89281000Y-45974000D02*
X80899000Y-45974000D01*
X90932000Y-45847000D02*
X90170000Y-45085000D01*
X91059000Y-45974000D02*
X90932000Y-45847000D01*
X100330000Y-45085000D02*
X99441000Y-45974000D01*
X99441000Y-45974000D02*
X91059000Y-45974000D01*
X101092000Y-45847000D02*
X100330000Y-45085000D01*
X101219000Y-45974000D02*
X101092000Y-45847000D01*
X110490000Y-45085000D02*
X109601000Y-45974000D01*
X109601000Y-45974000D02*
X101219000Y-45974000D01*
X111252000Y-45847000D02*
X110490000Y-45085000D01*
X111379000Y-45974000D02*
X111252000Y-45847000D01*
X120650000Y-45085000D02*
X119761000Y-45974000D01*
X119761000Y-45974000D02*
X111379000Y-45974000D01*
X121412000Y-45847000D02*
X120650000Y-45085000D01*
X130810000Y-45085000D02*
X129921000Y-45974000D01*
X121539000Y-45974000D02*
X121412000Y-45847000D01*
X129921000Y-45974000D02*
X121539000Y-45974000D01*
X131860000Y-45085000D02*
X133435011Y-46660011D01*
X130810000Y-45085000D02*
X131860000Y-45085000D01*
X133435011Y-46660011D02*
X152376402Y-46660010D01*
X152376402Y-46660010D02*
X152688391Y-46348021D01*
X152688391Y-46348021D02*
X158277802Y-46348020D01*
X158277802Y-46348020D02*
X160034411Y-44591411D01*
X160034411Y-44591411D02*
X160415411Y-44210411D01*
X160415411Y-44210411D02*
X160730792Y-43895030D01*
X160730792Y-43895030D02*
X163068000Y-43895030D01*
X163068000Y-43895030D02*
X170180000Y-43895030D01*
X170180000Y-43895030D02*
X173734979Y-47450009D01*
X173734979Y-47450009D02*
X173990000Y-47450009D01*
X152501991Y-45898011D02*
X158091401Y-45898011D01*
X152190001Y-46210001D02*
X152501991Y-45898011D01*
X140970000Y-45085000D02*
X142020000Y-45085000D01*
X143145001Y-46210001D02*
X152190001Y-46210001D01*
X142020000Y-45085000D02*
X143145001Y-46210001D01*
X158091401Y-45898011D02*
X160544392Y-43445020D01*
X160544392Y-43445020D02*
X163068000Y-43445020D01*
X173917001Y-46450006D02*
X173990000Y-46450006D01*
X163068000Y-43445020D02*
X170912015Y-43445020D01*
X170912015Y-43445020D02*
X173917001Y-46450006D01*
X197612000Y-49022000D02*
X199898000Y-49022000D01*
X163962520Y-34894980D02*
X168373391Y-34894981D01*
X163082500Y-36525000D02*
X163082500Y-35775000D01*
X168373391Y-34894981D02*
X169106010Y-35627600D01*
X163082500Y-35775000D02*
X163962520Y-34894980D01*
X169106010Y-35627600D02*
X169106010Y-37788010D01*
X169106010Y-37788010D02*
X169926000Y-38608000D01*
X163937500Y-37850000D02*
X163961000Y-37850000D01*
X163937500Y-37850000D02*
X163937500Y-39950490D01*
X163937500Y-39950490D02*
X165227000Y-41239990D01*
X197612000Y-51816000D02*
X199898000Y-51816000D01*
X163087500Y-37850000D02*
X163072000Y-37850000D01*
X163072000Y-37850000D02*
X163068000Y-37854000D01*
X201295000Y-48038315D02*
X203200000Y-46133315D01*
X201295000Y-48604000D02*
X201295000Y-48038315D01*
X203200000Y-46133315D02*
X203200000Y-43716000D01*
X203200000Y-43716000D02*
X203045000Y-43561000D01*
X163932500Y-36525000D02*
X163932500Y-36473500D01*
X164868258Y-35344990D02*
X168186990Y-35344990D01*
X168186990Y-35344990D02*
X168656000Y-35814000D01*
X163932500Y-36473500D02*
X163932500Y-36280748D01*
X163932500Y-36280748D02*
X164868258Y-35344990D01*
X168656000Y-35814000D02*
X168656000Y-38227000D01*
X168656000Y-38227000D02*
X168656000Y-38391000D01*
X168656000Y-38391000D02*
X168910000Y-38645000D01*
X163087500Y-37850000D02*
X163087500Y-40243490D01*
X163087500Y-40243490D02*
X164084000Y-41239990D01*
X164787500Y-38600000D02*
X165557500Y-39370000D01*
X164787500Y-37850000D02*
X164787500Y-38600000D01*
X170307000Y-39370000D02*
X171450000Y-39370000D01*
X170307000Y-39370000D02*
X170561000Y-39370000D01*
X165557500Y-39370000D02*
X170307000Y-39370000D01*
X171450000Y-39370000D02*
X172847000Y-37973000D01*
X172847000Y-37973000D02*
X176149000Y-37973000D01*
X176149000Y-37973000D02*
X194691000Y-37973000D01*
X194691000Y-37973000D02*
X197358000Y-40640000D01*
X171323000Y-37338000D02*
X196850000Y-37338000D01*
X196850000Y-37338000D02*
X197358000Y-37846000D01*
X162179000Y-50403003D02*
X173942985Y-50403003D01*
X173942985Y-50403003D02*
X173990000Y-50450018D01*
X204978000Y-35052000D02*
X205232000Y-35306000D01*
X204978000Y-35052000D02*
X206883000Y-36957000D01*
X206883000Y-36957000D02*
X206883000Y-46228000D01*
X162179000Y-49403000D02*
X173942985Y-49403000D01*
X173942985Y-49403000D02*
X173990000Y-49450015D01*
X85090000Y-79851250D02*
X80264000Y-75025250D01*
X80327500Y-74961750D02*
X80327500Y-60801250D01*
X80264000Y-75025250D02*
X80327500Y-74961750D01*
X207899000Y-42513250D02*
X213582250Y-36830000D01*
X207899000Y-56007000D02*
X207899000Y-42513250D01*
X81427499Y-59701251D02*
X81427499Y-59669501D01*
X80327500Y-60801250D02*
X81427499Y-59701251D01*
X81427499Y-59669501D02*
X84709000Y-56388000D01*
X207518000Y-56388000D02*
X207899000Y-56007000D01*
X84709000Y-56388000D02*
X207518000Y-56388000D01*
X170815000Y-98901250D02*
X178911250Y-90805000D01*
X178911250Y-90805000D02*
X178911250Y-90709750D01*
X178911250Y-90709750D02*
X180340000Y-89281000D01*
X180340000Y-89281000D02*
X180340000Y-79851250D01*
X175577500Y-75088750D02*
X175577500Y-60801250D01*
X180340000Y-79851250D02*
X175577500Y-75088750D01*
X223212210Y-39900040D02*
X226282250Y-36830000D01*
X213694260Y-39900040D02*
X223212210Y-39900040D01*
X210149050Y-57061770D02*
X210149050Y-43445250D01*
X208442952Y-58638048D02*
X208572772Y-58638048D01*
X175577500Y-60801250D02*
X177740702Y-58638048D01*
X195199000Y-58674000D02*
X208407000Y-58674000D01*
X210149050Y-43445250D02*
X213694260Y-39900040D01*
X195163048Y-58638048D02*
X195199000Y-58674000D01*
X208572772Y-58638048D02*
X210149050Y-57061770D01*
X177740702Y-58638048D02*
X195163048Y-58638048D01*
X208407000Y-58674000D02*
X208442952Y-58638048D01*
X167640000Y-127635000D02*
X168116250Y-128111250D01*
X167640000Y-119761000D02*
X167640000Y-127635000D01*
X170815000Y-98901250D02*
X170815000Y-116586000D01*
X170815000Y-116586000D02*
X167640000Y-119761000D01*
X137477500Y-62356884D02*
X137541000Y-62420384D01*
X137477500Y-60801250D02*
X137477500Y-62356884D01*
X137541000Y-62420384D02*
X137541000Y-75184000D01*
X137572750Y-75184000D02*
X142240000Y-79851250D01*
X137541000Y-75184000D02*
X137572750Y-75184000D01*
X142240000Y-89376250D02*
X142240000Y-79851250D01*
X132715000Y-98901250D02*
X142240000Y-89376250D01*
X213321460Y-39000020D02*
X219032230Y-39000020D01*
X209249030Y-56566200D02*
X209249030Y-43072450D01*
X138577499Y-59701251D02*
X138577499Y-59669501D01*
X140508972Y-57738028D02*
X208077203Y-57738027D01*
X208077203Y-57738027D02*
X209249030Y-56566200D01*
X209249030Y-43072450D02*
X213321460Y-39000020D01*
X137477500Y-60801250D02*
X138577499Y-59701251D01*
X219032230Y-39000020D02*
X221202250Y-36830000D01*
X138577499Y-59669501D02*
X140508972Y-57738028D01*
X114764999Y-97801251D02*
X114796749Y-97801251D01*
X113665000Y-98901250D02*
X114764999Y-97801251D01*
X114796749Y-97801251D02*
X123190000Y-89408000D01*
X123190000Y-89408000D02*
X123190000Y-79851250D01*
X122090001Y-78751251D02*
X121804251Y-78751251D01*
X123190000Y-79851250D02*
X122090001Y-78751251D01*
X118427500Y-75374500D02*
X118427500Y-60801250D01*
X121804251Y-78751251D02*
X118427500Y-75374500D01*
X118427500Y-60801250D02*
X118586250Y-60801250D01*
X216942240Y-38550010D02*
X218662250Y-36830000D01*
X213135060Y-38550010D02*
X216942240Y-38550010D01*
X208799020Y-42886050D02*
X213135060Y-38550010D01*
X119527499Y-59701251D02*
X119527499Y-59669501D01*
X118427500Y-60801250D02*
X119527499Y-59701251D01*
X208799020Y-56379800D02*
X208799020Y-42886050D01*
X121908982Y-57288018D02*
X207890802Y-57288018D01*
X119527499Y-59669501D02*
X121908982Y-57288018D01*
X207890802Y-57288018D02*
X208799020Y-56379800D01*
X152864999Y-97801251D02*
X152896749Y-97801251D01*
X151765000Y-98901250D02*
X152864999Y-97801251D01*
X152896749Y-97801251D02*
X161290000Y-89408000D01*
X161290000Y-85598000D02*
X161290000Y-79851250D01*
X161290000Y-89408000D02*
X161290000Y-85598000D01*
X160158251Y-78751251D02*
X156527500Y-75120500D01*
X161290000Y-79851250D02*
X160190001Y-78751251D01*
X156527500Y-75120500D02*
X156527500Y-60801250D01*
X160190001Y-78751251D02*
X160158251Y-78751251D01*
X156527500Y-60801250D02*
X159140712Y-58188038D01*
X159140712Y-58188038D02*
X208386372Y-58188038D01*
X208386372Y-58188038D02*
X208386372Y-58186628D01*
X221122220Y-39450030D02*
X223742250Y-36830000D01*
X208386372Y-58065268D02*
X209699040Y-56752600D01*
X208386372Y-58188038D02*
X208386372Y-58065268D01*
X209699040Y-56752600D02*
X209699040Y-43258850D01*
X213507860Y-39450030D02*
X221122220Y-39450030D01*
X209699040Y-43258850D02*
X213507860Y-39450030D01*
X210014999Y-97801251D02*
X210046749Y-97801251D01*
X208915000Y-98901250D02*
X210014999Y-97801251D01*
X210046749Y-97801251D02*
X218440000Y-89408000D01*
X218440000Y-89408000D02*
X218440000Y-79851250D01*
X213677500Y-75120500D02*
X213677500Y-60801250D01*
X217308251Y-78751251D02*
X213677500Y-75120500D01*
X218440000Y-79851250D02*
X217340001Y-78751251D01*
X217340001Y-78751251D02*
X217308251Y-78751251D01*
X213677500Y-49434750D02*
X218662250Y-44450000D01*
X213677500Y-60801250D02*
X213677500Y-49434750D01*
X189865000Y-98901250D02*
X199390000Y-89376250D01*
X199390000Y-89376250D02*
X199390000Y-79851250D01*
X198258251Y-78751251D02*
X194627500Y-75120500D01*
X199390000Y-79851250D02*
X198290001Y-78751251D01*
X194627500Y-75120500D02*
X194627500Y-60801250D01*
X198290001Y-78751251D02*
X198258251Y-78751251D01*
X210599060Y-57248170D02*
X210599060Y-49973190D01*
X208723220Y-59124010D02*
X210599060Y-57248170D01*
X210599060Y-49973190D02*
X216122250Y-44450000D01*
X194627500Y-60801250D02*
X196304740Y-59124010D01*
X196304740Y-59124010D02*
X208723220Y-59124010D01*
X232727500Y-75088750D02*
X232727500Y-60801250D01*
X237490000Y-79851250D02*
X232727500Y-75088750D01*
X231171866Y-60801250D02*
X224028000Y-53657384D01*
X232727500Y-60801250D02*
X231171866Y-60801250D01*
X224028000Y-46704250D02*
X226282250Y-44450000D01*
X224028000Y-53657384D02*
X224028000Y-46704250D01*
X251777500Y-49625250D02*
X246602250Y-44450000D01*
X251777500Y-60801250D02*
X251777500Y-49625250D01*
X94615000Y-98901250D02*
X104140000Y-89376250D01*
X104140000Y-89376250D02*
X104140000Y-79851250D01*
X103981250Y-79851250D02*
X104140000Y-79851250D01*
X99441000Y-75311000D02*
X103981250Y-79851250D01*
X99441000Y-62420384D02*
X99441000Y-75311000D01*
X99377500Y-60801250D02*
X99377500Y-62356884D01*
X99377500Y-62356884D02*
X99441000Y-62420384D01*
X214852250Y-38100000D02*
X216122250Y-36830000D01*
X212948660Y-38100000D02*
X214852250Y-38100000D01*
X103340740Y-56838010D02*
X207704401Y-56838009D01*
X207704401Y-56838009D02*
X208349010Y-56193400D01*
X99377500Y-60801250D02*
X103340740Y-56838010D01*
X208349010Y-56193400D02*
X208349010Y-42699650D01*
X208349010Y-42699650D02*
X212948660Y-38100000D01*
X175006000Y-34417000D02*
X196723000Y-34417000D01*
X196723000Y-34417000D02*
X198120000Y-35814000D01*
X198120000Y-44450000D02*
X199898000Y-46228000D01*
X198120000Y-35814000D02*
X198120000Y-44450000D01*
X162147153Y-48400587D02*
X173940575Y-48400587D01*
X173940575Y-48400587D02*
X173990000Y-48450012D01*
D32*
G36*
X235682251Y-46284729D02*
G01*
X235682250Y-47501927D01*
X235678574Y-47539250D01*
X235682250Y-47576572D01*
X235682250Y-47576582D01*
X235693247Y-47688235D01*
X235731773Y-47815241D01*
X235736704Y-47831496D01*
X235807276Y-47963526D01*
X235847121Y-48012076D01*
X235902249Y-48079251D01*
X235931253Y-48103054D01*
X237457833Y-49629635D01*
X237429000Y-49774589D01*
X237429000Y-50047411D01*
X237482225Y-50314989D01*
X237586629Y-50567043D01*
X237738201Y-50793886D01*
X237931114Y-50986799D01*
X238157957Y-51138371D01*
X238410011Y-51242775D01*
X238677589Y-51296000D01*
X238950411Y-51296000D01*
X239095365Y-51267167D01*
X239393201Y-51565003D01*
X239416999Y-51594001D01*
X239445997Y-51617799D01*
X239532723Y-51688974D01*
X239659028Y-51756486D01*
X239664753Y-51759546D01*
X239808014Y-51803003D01*
X239919667Y-51814000D01*
X239919676Y-51814000D01*
X239956999Y-51817676D01*
X239994322Y-51814000D01*
X242494957Y-51814000D01*
X242598363Y-51968759D01*
X242798241Y-52168637D01*
X243033273Y-52325680D01*
X243294426Y-52433853D01*
X243571665Y-52489000D01*
X243854335Y-52489000D01*
X244131574Y-52433853D01*
X244392727Y-52325680D01*
X244627759Y-52168637D01*
X244827637Y-51968759D01*
X244984680Y-51733727D01*
X245092853Y-51472574D01*
X245148000Y-51195335D01*
X245148000Y-50912665D01*
X245092853Y-50635426D01*
X244984680Y-50374273D01*
X244827637Y-50139241D01*
X244627759Y-49939363D01*
X244427131Y-49805308D01*
X244454514Y-49790671D01*
X244526097Y-49546702D01*
X243713000Y-48733605D01*
X242899903Y-49546702D01*
X242971486Y-49790671D01*
X243000341Y-49804324D01*
X242798241Y-49939363D01*
X242598363Y-50139241D01*
X242494957Y-50294000D01*
X240271802Y-50294000D01*
X240170167Y-50192365D01*
X240199000Y-50047411D01*
X240199000Y-49774589D01*
X240145775Y-49507011D01*
X240041371Y-49254957D01*
X239889799Y-49028114D01*
X239696886Y-48835201D01*
X239470043Y-48683629D01*
X239327322Y-48624512D01*
X242272783Y-48624512D01*
X242314213Y-48904130D01*
X242409397Y-49170292D01*
X242476329Y-49295514D01*
X242720298Y-49367097D01*
X243533395Y-48554000D01*
X243892605Y-48554000D01*
X244705702Y-49367097D01*
X244949671Y-49295514D01*
X245070571Y-49040004D01*
X245139300Y-48765816D01*
X245153217Y-48483488D01*
X245111787Y-48203870D01*
X245016603Y-47937708D01*
X244949671Y-47812486D01*
X244705702Y-47740903D01*
X243892605Y-48554000D01*
X243533395Y-48554000D01*
X242720298Y-47740903D01*
X242476329Y-47812486D01*
X242355429Y-48067996D01*
X242286700Y-48342184D01*
X242272783Y-48624512D01*
X239327322Y-48624512D01*
X239217989Y-48579225D01*
X238950411Y-48526000D01*
X238677589Y-48526000D01*
X238532635Y-48554833D01*
X237539100Y-47561298D01*
X242899903Y-47561298D01*
X243713000Y-48374395D01*
X244526097Y-47561298D01*
X244454514Y-47317329D01*
X244199004Y-47196429D01*
X243924816Y-47127700D01*
X243642488Y-47113783D01*
X243362870Y-47155213D01*
X243096708Y-47250397D01*
X242971486Y-47317329D01*
X242899903Y-47561298D01*
X237539100Y-47561298D01*
X237202250Y-47224449D01*
X237202250Y-46295212D01*
X245745000Y-46354127D01*
X245745000Y-53848000D01*
X227584000Y-53848000D01*
X227584000Y-51386371D01*
X227601147Y-51472574D01*
X227709320Y-51733727D01*
X227866363Y-51968759D01*
X228066241Y-52168637D01*
X228301273Y-52325680D01*
X228562426Y-52433853D01*
X228839665Y-52489000D01*
X229122335Y-52489000D01*
X229399574Y-52433853D01*
X229660727Y-52325680D01*
X229895759Y-52168637D01*
X230095637Y-51968759D01*
X230199043Y-51814000D01*
X232753678Y-51814000D01*
X232791000Y-51817676D01*
X232828322Y-51814000D01*
X232828333Y-51814000D01*
X232939986Y-51803003D01*
X233083247Y-51759546D01*
X233215276Y-51688974D01*
X233331001Y-51594001D01*
X233354804Y-51564998D01*
X233652635Y-51267167D01*
X233797589Y-51296000D01*
X234070411Y-51296000D01*
X234337989Y-51242775D01*
X234590043Y-51138371D01*
X234816886Y-50986799D01*
X235009799Y-50793886D01*
X235161371Y-50567043D01*
X235265775Y-50314989D01*
X235319000Y-50047411D01*
X235319000Y-49774589D01*
X235265775Y-49507011D01*
X235161371Y-49254957D01*
X235009799Y-49028114D01*
X234816886Y-48835201D01*
X234694000Y-48753091D01*
X234694000Y-46277913D01*
X235682251Y-46284729D01*
G37*
X235682251Y-46284729D02*
X235682250Y-47501927D01*
X235678574Y-47539250D01*
X235682250Y-47576572D01*
X235682250Y-47576582D01*
X235693247Y-47688235D01*
X235731773Y-47815241D01*
X235736704Y-47831496D01*
X235807276Y-47963526D01*
X235847121Y-48012076D01*
X235902249Y-48079251D01*
X235931253Y-48103054D01*
X237457833Y-49629635D01*
X237429000Y-49774589D01*
X237429000Y-50047411D01*
X237482225Y-50314989D01*
X237586629Y-50567043D01*
X237738201Y-50793886D01*
X237931114Y-50986799D01*
X238157957Y-51138371D01*
X238410011Y-51242775D01*
X238677589Y-51296000D01*
X238950411Y-51296000D01*
X239095365Y-51267167D01*
X239393201Y-51565003D01*
X239416999Y-51594001D01*
X239445997Y-51617799D01*
X239532723Y-51688974D01*
X239659028Y-51756486D01*
X239664753Y-51759546D01*
X239808014Y-51803003D01*
X239919667Y-51814000D01*
X239919676Y-51814000D01*
X239956999Y-51817676D01*
X239994322Y-51814000D01*
X242494957Y-51814000D01*
X242598363Y-51968759D01*
X242798241Y-52168637D01*
X243033273Y-52325680D01*
X243294426Y-52433853D01*
X243571665Y-52489000D01*
X243854335Y-52489000D01*
X244131574Y-52433853D01*
X244392727Y-52325680D01*
X244627759Y-52168637D01*
X244827637Y-51968759D01*
X244984680Y-51733727D01*
X245092853Y-51472574D01*
X245148000Y-51195335D01*
X245148000Y-50912665D01*
X245092853Y-50635426D01*
X244984680Y-50374273D01*
X244827637Y-50139241D01*
X244627759Y-49939363D01*
X244427131Y-49805308D01*
X244454514Y-49790671D01*
X244526097Y-49546702D01*
X243713000Y-48733605D01*
X242899903Y-49546702D01*
X242971486Y-49790671D01*
X243000341Y-49804324D01*
X242798241Y-49939363D01*
X242598363Y-50139241D01*
X242494957Y-50294000D01*
X240271802Y-50294000D01*
X240170167Y-50192365D01*
X240199000Y-50047411D01*
X240199000Y-49774589D01*
X240145775Y-49507011D01*
X240041371Y-49254957D01*
X239889799Y-49028114D01*
X239696886Y-48835201D01*
X239470043Y-48683629D01*
X239327322Y-48624512D01*
X242272783Y-48624512D01*
X242314213Y-48904130D01*
X242409397Y-49170292D01*
X242476329Y-49295514D01*
X242720298Y-49367097D01*
X243533395Y-48554000D01*
X243892605Y-48554000D01*
X244705702Y-49367097D01*
X244949671Y-49295514D01*
X245070571Y-49040004D01*
X245139300Y-48765816D01*
X245153217Y-48483488D01*
X245111787Y-48203870D01*
X245016603Y-47937708D01*
X244949671Y-47812486D01*
X244705702Y-47740903D01*
X243892605Y-48554000D01*
X243533395Y-48554000D01*
X242720298Y-47740903D01*
X242476329Y-47812486D01*
X242355429Y-48067996D01*
X242286700Y-48342184D01*
X242272783Y-48624512D01*
X239327322Y-48624512D01*
X239217989Y-48579225D01*
X238950411Y-48526000D01*
X238677589Y-48526000D01*
X238532635Y-48554833D01*
X237539100Y-47561298D01*
X242899903Y-47561298D01*
X243713000Y-48374395D01*
X244526097Y-47561298D01*
X244454514Y-47317329D01*
X244199004Y-47196429D01*
X243924816Y-47127700D01*
X243642488Y-47113783D01*
X243362870Y-47155213D01*
X243096708Y-47250397D01*
X242971486Y-47317329D01*
X242899903Y-47561298D01*
X237539100Y-47561298D01*
X237202250Y-47224449D01*
X237202250Y-46295212D01*
X245745000Y-46354127D01*
X245745000Y-53848000D01*
X227584000Y-53848000D01*
X227584000Y-51386371D01*
X227601147Y-51472574D01*
X227709320Y-51733727D01*
X227866363Y-51968759D01*
X228066241Y-52168637D01*
X228301273Y-52325680D01*
X228562426Y-52433853D01*
X228839665Y-52489000D01*
X229122335Y-52489000D01*
X229399574Y-52433853D01*
X229660727Y-52325680D01*
X229895759Y-52168637D01*
X230095637Y-51968759D01*
X230199043Y-51814000D01*
X232753678Y-51814000D01*
X232791000Y-51817676D01*
X232828322Y-51814000D01*
X232828333Y-51814000D01*
X232939986Y-51803003D01*
X233083247Y-51759546D01*
X233215276Y-51688974D01*
X233331001Y-51594001D01*
X233354804Y-51564998D01*
X233652635Y-51267167D01*
X233797589Y-51296000D01*
X234070411Y-51296000D01*
X234337989Y-51242775D01*
X234590043Y-51138371D01*
X234816886Y-50986799D01*
X235009799Y-50793886D01*
X235161371Y-50567043D01*
X235265775Y-50314989D01*
X235319000Y-50047411D01*
X235319000Y-49774589D01*
X235265775Y-49507011D01*
X235161371Y-49254957D01*
X235009799Y-49028114D01*
X234816886Y-48835201D01*
X234694000Y-48753091D01*
X234694000Y-46277913D01*
X235682251Y-46284729D01*
G36*
X233174001Y-46267431D02*
G01*
X233174000Y-48753091D01*
X233051114Y-48835201D01*
X232858201Y-49028114D01*
X232706629Y-49254957D01*
X232602225Y-49507011D01*
X232549000Y-49774589D01*
X232549000Y-50047411D01*
X232577833Y-50192365D01*
X232476199Y-50294000D01*
X230199043Y-50294000D01*
X230095637Y-50139241D01*
X229895759Y-49939363D01*
X229695131Y-49805308D01*
X229722514Y-49790671D01*
X229794097Y-49546702D01*
X228981000Y-48733605D01*
X228167903Y-49546702D01*
X228239486Y-49790671D01*
X228268341Y-49804324D01*
X228066241Y-49939363D01*
X227866363Y-50139241D01*
X227709320Y-50374273D01*
X227601147Y-50635426D01*
X227584000Y-50721629D01*
X227584000Y-48909127D01*
X227677397Y-49170292D01*
X227744329Y-49295514D01*
X227988298Y-49367097D01*
X228801395Y-48554000D01*
X229160605Y-48554000D01*
X229973702Y-49367097D01*
X230217671Y-49295514D01*
X230338571Y-49040004D01*
X230407300Y-48765816D01*
X230421217Y-48483488D01*
X230379787Y-48203870D01*
X230284603Y-47937708D01*
X230217671Y-47812486D01*
X229973702Y-47740903D01*
X229160605Y-48554000D01*
X228801395Y-48554000D01*
X227988298Y-47740903D01*
X227744329Y-47812486D01*
X227623429Y-48067996D01*
X227584000Y-48225294D01*
X227584000Y-47561298D01*
X228167903Y-47561298D01*
X228981000Y-48374395D01*
X229794097Y-47561298D01*
X229722514Y-47317329D01*
X229467004Y-47196429D01*
X229192816Y-47127700D01*
X228910488Y-47113783D01*
X228630870Y-47155213D01*
X228364708Y-47250397D01*
X228239486Y-47317329D01*
X228167903Y-47561298D01*
X227584000Y-47561298D01*
X227584000Y-46632725D01*
X227985080Y-46231645D01*
X233174001Y-46267431D01*
G37*
X233174001Y-46267431D02*
X233174000Y-48753091D01*
X233051114Y-48835201D01*
X232858201Y-49028114D01*
X232706629Y-49254957D01*
X232602225Y-49507011D01*
X232549000Y-49774589D01*
X232549000Y-50047411D01*
X232577833Y-50192365D01*
X232476199Y-50294000D01*
X230199043Y-50294000D01*
X230095637Y-50139241D01*
X229895759Y-49939363D01*
X229695131Y-49805308D01*
X229722514Y-49790671D01*
X229794097Y-49546702D01*
X228981000Y-48733605D01*
X228167903Y-49546702D01*
X228239486Y-49790671D01*
X228268341Y-49804324D01*
X228066241Y-49939363D01*
X227866363Y-50139241D01*
X227709320Y-50374273D01*
X227601147Y-50635426D01*
X227584000Y-50721629D01*
X227584000Y-48909127D01*
X227677397Y-49170292D01*
X227744329Y-49295514D01*
X227988298Y-49367097D01*
X228801395Y-48554000D01*
X229160605Y-48554000D01*
X229973702Y-49367097D01*
X230217671Y-49295514D01*
X230338571Y-49040004D01*
X230407300Y-48765816D01*
X230421217Y-48483488D01*
X230379787Y-48203870D01*
X230284603Y-47937708D01*
X230217671Y-47812486D01*
X229973702Y-47740903D01*
X229160605Y-48554000D01*
X228801395Y-48554000D01*
X227988298Y-47740903D01*
X227744329Y-47812486D01*
X227623429Y-48067996D01*
X227584000Y-48225294D01*
X227584000Y-47561298D01*
X228167903Y-47561298D01*
X228981000Y-48374395D01*
X229794097Y-47561298D01*
X229722514Y-47317329D01*
X229467004Y-47196429D01*
X229192816Y-47127700D01*
X228910488Y-47113783D01*
X228630870Y-47155213D01*
X228364708Y-47250397D01*
X228239486Y-47317329D01*
X228167903Y-47561298D01*
X227584000Y-47561298D01*
X227584000Y-46632725D01*
X227985080Y-46231645D01*
X233174001Y-46267431D01*
G36*
X166883691Y-32557455D02*
G01*
X166798124Y-32753767D01*
X166752500Y-32963000D01*
X166752500Y-33363000D01*
X167710500Y-33363000D01*
X167710500Y-33343000D01*
X167964500Y-33343000D01*
X167964500Y-33363000D01*
X168922500Y-33363000D01*
X168922500Y-32963000D01*
X168876876Y-32753767D01*
X168791309Y-32557455D01*
X168688820Y-32410000D01*
X170323857Y-32410000D01*
X170462064Y-36763531D01*
X170405795Y-36847744D01*
X170327774Y-37036102D01*
X170288000Y-37236061D01*
X170288000Y-37439939D01*
X170327774Y-37639898D01*
X170334897Y-37657095D01*
X170227898Y-37612774D01*
X170027939Y-37573000D01*
X169965801Y-37573000D01*
X169866010Y-37473209D01*
X169866010Y-35664925D01*
X169869686Y-35627600D01*
X169866010Y-35590275D01*
X169866010Y-35590267D01*
X169855013Y-35478614D01*
X169811556Y-35335353D01*
X169740984Y-35203324D01*
X169646011Y-35087599D01*
X169617014Y-35063802D01*
X168937190Y-34383979D01*
X168913392Y-34354981D01*
X168884392Y-34331181D01*
X168845164Y-34298987D01*
X168876876Y-34226233D01*
X168922500Y-34017000D01*
X168922500Y-33617000D01*
X167964500Y-33617000D01*
X167964500Y-33637000D01*
X167710500Y-33637000D01*
X167710500Y-33617000D01*
X166752500Y-33617000D01*
X166752500Y-34017000D01*
X166778226Y-34134981D01*
X163999842Y-34134980D01*
X163962519Y-34131304D01*
X163925196Y-34134980D01*
X163925188Y-34134980D01*
X163813535Y-34145977D01*
X163732652Y-34170512D01*
X163670273Y-34189434D01*
X163538243Y-34260007D01*
X163451517Y-34331181D01*
X163451513Y-34331185D01*
X163422520Y-34354979D01*
X163398726Y-34383972D01*
X162571498Y-35211201D01*
X162542500Y-35234999D01*
X162518702Y-35263997D01*
X162518701Y-35263998D01*
X162447526Y-35350724D01*
X162419187Y-35403742D01*
X162232500Y-35385355D01*
X162044308Y-35403890D01*
X161863347Y-35458784D01*
X161807501Y-35488635D01*
X161751654Y-35458784D01*
X161570693Y-35403890D01*
X161382500Y-35385355D01*
X161194308Y-35403890D01*
X161013347Y-35458784D01*
X160959147Y-35487754D01*
X160806794Y-35430020D01*
X160659500Y-35558879D01*
X160659500Y-35717722D01*
X160580427Y-35814072D01*
X160491284Y-35980846D01*
X160436390Y-36161807D01*
X160422500Y-36302838D01*
X160422500Y-36672000D01*
X160405500Y-36672000D01*
X160405500Y-36652000D01*
X160385500Y-36652000D01*
X160385500Y-36398000D01*
X160405500Y-36398000D01*
X160405500Y-35558879D01*
X160258206Y-35430020D01*
X160085669Y-35495403D01*
X160079938Y-35499157D01*
X160019087Y-35411609D01*
X159864908Y-35262986D01*
X159684697Y-35147298D01*
X159481501Y-35075592D01*
X159314500Y-35202498D01*
X159314500Y-36743000D01*
X159334500Y-36743000D01*
X159334500Y-36997000D01*
X159314500Y-36997000D01*
X159314500Y-38537502D01*
X159481501Y-38664408D01*
X159684697Y-38592702D01*
X159739165Y-38557736D01*
X159797642Y-38643550D01*
X159932531Y-38776004D01*
X160090669Y-38879597D01*
X160263206Y-38944980D01*
X160410500Y-38816121D01*
X160410500Y-37977000D01*
X160390500Y-37977000D01*
X160390500Y-37723000D01*
X160410500Y-37723000D01*
X160410500Y-37703000D01*
X160427500Y-37703000D01*
X160427500Y-38072161D01*
X160441390Y-38213192D01*
X160496284Y-38394153D01*
X160585427Y-38560928D01*
X160664500Y-38657279D01*
X160664500Y-38816121D01*
X160811794Y-38944980D01*
X160964147Y-38887246D01*
X161018346Y-38916216D01*
X161199307Y-38971110D01*
X161387500Y-38989645D01*
X161575692Y-38971110D01*
X161756653Y-38916216D01*
X161812500Y-38886365D01*
X161868346Y-38916216D01*
X162049307Y-38971110D01*
X162237500Y-38989645D01*
X162327500Y-38980781D01*
X162327501Y-39751000D01*
X158242000Y-39751000D01*
X158242000Y-38164500D01*
X158355913Y-38328391D01*
X158510092Y-38477014D01*
X158690303Y-38592702D01*
X158893499Y-38664408D01*
X159060500Y-38537502D01*
X159060500Y-36997000D01*
X159040500Y-36997000D01*
X159040500Y-36743000D01*
X159060500Y-36743000D01*
X159060500Y-35202498D01*
X158893499Y-35075592D01*
X158690303Y-35147298D01*
X158510092Y-35262986D01*
X158355913Y-35411609D01*
X158242000Y-35575500D01*
X158242000Y-34434500D01*
X158355913Y-34598391D01*
X158510092Y-34747014D01*
X158690303Y-34862702D01*
X158893499Y-34934408D01*
X159060500Y-34807502D01*
X159060500Y-33617000D01*
X159314500Y-33617000D01*
X159314500Y-34807502D01*
X159481501Y-34934408D01*
X159684697Y-34862702D01*
X159864908Y-34747014D01*
X160019087Y-34598391D01*
X160141309Y-34422545D01*
X160226876Y-34226233D01*
X160272500Y-34017000D01*
X160272500Y-33617000D01*
X159314500Y-33617000D01*
X159060500Y-33617000D01*
X159040500Y-33617000D01*
X159040500Y-33363000D01*
X159060500Y-33363000D01*
X159060500Y-33343000D01*
X159314500Y-33343000D01*
X159314500Y-33363000D01*
X160272500Y-33363000D01*
X160272500Y-32963000D01*
X160226876Y-32753767D01*
X160141309Y-32557455D01*
X160038820Y-32410000D01*
X166986180Y-32410000D01*
X166883691Y-32557455D01*
G37*
X166883691Y-32557455D02*
X166798124Y-32753767D01*
X166752500Y-32963000D01*
X166752500Y-33363000D01*
X167710500Y-33363000D01*
X167710500Y-33343000D01*
X167964500Y-33343000D01*
X167964500Y-33363000D01*
X168922500Y-33363000D01*
X168922500Y-32963000D01*
X168876876Y-32753767D01*
X168791309Y-32557455D01*
X168688820Y-32410000D01*
X170323857Y-32410000D01*
X170462064Y-36763531D01*
X170405795Y-36847744D01*
X170327774Y-37036102D01*
X170288000Y-37236061D01*
X170288000Y-37439939D01*
X170327774Y-37639898D01*
X170334897Y-37657095D01*
X170227898Y-37612774D01*
X170027939Y-37573000D01*
X169965801Y-37573000D01*
X169866010Y-37473209D01*
X169866010Y-35664925D01*
X169869686Y-35627600D01*
X169866010Y-35590275D01*
X169866010Y-35590267D01*
X169855013Y-35478614D01*
X169811556Y-35335353D01*
X169740984Y-35203324D01*
X169646011Y-35087599D01*
X169617014Y-35063802D01*
X168937190Y-34383979D01*
X168913392Y-34354981D01*
X168884392Y-34331181D01*
X168845164Y-34298987D01*
X168876876Y-34226233D01*
X168922500Y-34017000D01*
X168922500Y-33617000D01*
X167964500Y-33617000D01*
X167964500Y-33637000D01*
X167710500Y-33637000D01*
X167710500Y-33617000D01*
X166752500Y-33617000D01*
X166752500Y-34017000D01*
X166778226Y-34134981D01*
X163999842Y-34134980D01*
X163962519Y-34131304D01*
X163925196Y-34134980D01*
X163925188Y-34134980D01*
X163813535Y-34145977D01*
X163732652Y-34170512D01*
X163670273Y-34189434D01*
X163538243Y-34260007D01*
X163451517Y-34331181D01*
X163451513Y-34331185D01*
X163422520Y-34354979D01*
X163398726Y-34383972D01*
X162571498Y-35211201D01*
X162542500Y-35234999D01*
X162518702Y-35263997D01*
X162518701Y-35263998D01*
X162447526Y-35350724D01*
X162419187Y-35403742D01*
X162232500Y-35385355D01*
X162044308Y-35403890D01*
X161863347Y-35458784D01*
X161807501Y-35488635D01*
X161751654Y-35458784D01*
X161570693Y-35403890D01*
X161382500Y-35385355D01*
X161194308Y-35403890D01*
X161013347Y-35458784D01*
X160959147Y-35487754D01*
X160806794Y-35430020D01*
X160659500Y-35558879D01*
X160659500Y-35717722D01*
X160580427Y-35814072D01*
X160491284Y-35980846D01*
X160436390Y-36161807D01*
X160422500Y-36302838D01*
X160422500Y-36672000D01*
X160405500Y-36672000D01*
X160405500Y-36652000D01*
X160385500Y-36652000D01*
X160385500Y-36398000D01*
X160405500Y-36398000D01*
X160405500Y-35558879D01*
X160258206Y-35430020D01*
X160085669Y-35495403D01*
X160079938Y-35499157D01*
X160019087Y-35411609D01*
X159864908Y-35262986D01*
X159684697Y-35147298D01*
X159481501Y-35075592D01*
X159314500Y-35202498D01*
X159314500Y-36743000D01*
X159334500Y-36743000D01*
X159334500Y-36997000D01*
X159314500Y-36997000D01*
X159314500Y-38537502D01*
X159481501Y-38664408D01*
X159684697Y-38592702D01*
X159739165Y-38557736D01*
X159797642Y-38643550D01*
X159932531Y-38776004D01*
X160090669Y-38879597D01*
X160263206Y-38944980D01*
X160410500Y-38816121D01*
X160410500Y-37977000D01*
X160390500Y-37977000D01*
X160390500Y-37723000D01*
X160410500Y-37723000D01*
X160410500Y-37703000D01*
X160427500Y-37703000D01*
X160427500Y-38072161D01*
X160441390Y-38213192D01*
X160496284Y-38394153D01*
X160585427Y-38560928D01*
X160664500Y-38657279D01*
X160664500Y-38816121D01*
X160811794Y-38944980D01*
X160964147Y-38887246D01*
X161018346Y-38916216D01*
X161199307Y-38971110D01*
X161387500Y-38989645D01*
X161575692Y-38971110D01*
X161756653Y-38916216D01*
X161812500Y-38886365D01*
X161868346Y-38916216D01*
X162049307Y-38971110D01*
X162237500Y-38989645D01*
X162327500Y-38980781D01*
X162327501Y-39751000D01*
X158242000Y-39751000D01*
X158242000Y-38164500D01*
X158355913Y-38328391D01*
X158510092Y-38477014D01*
X158690303Y-38592702D01*
X158893499Y-38664408D01*
X159060500Y-38537502D01*
X159060500Y-36997000D01*
X159040500Y-36997000D01*
X159040500Y-36743000D01*
X159060500Y-36743000D01*
X159060500Y-35202498D01*
X158893499Y-35075592D01*
X158690303Y-35147298D01*
X158510092Y-35262986D01*
X158355913Y-35411609D01*
X158242000Y-35575500D01*
X158242000Y-34434500D01*
X158355913Y-34598391D01*
X158510092Y-34747014D01*
X158690303Y-34862702D01*
X158893499Y-34934408D01*
X159060500Y-34807502D01*
X159060500Y-33617000D01*
X159314500Y-33617000D01*
X159314500Y-34807502D01*
X159481501Y-34934408D01*
X159684697Y-34862702D01*
X159864908Y-34747014D01*
X160019087Y-34598391D01*
X160141309Y-34422545D01*
X160226876Y-34226233D01*
X160272500Y-34017000D01*
X160272500Y-33617000D01*
X159314500Y-33617000D01*
X159060500Y-33617000D01*
X159040500Y-33617000D01*
X159040500Y-33363000D01*
X159060500Y-33363000D01*
X159060500Y-33343000D01*
X159314500Y-33343000D01*
X159314500Y-33363000D01*
X160272500Y-33363000D01*
X160272500Y-32963000D01*
X160226876Y-32753767D01*
X160141309Y-32557455D01*
X160038820Y-32410000D01*
X166986180Y-32410000D01*
X166883691Y-32557455D01*
G36*
X166614500Y-37723000D02*
G01*
X166634500Y-37723000D01*
X166634500Y-37977000D01*
X166614500Y-37977000D01*
X166614500Y-37997000D01*
X166597500Y-37997000D01*
X166597500Y-37703000D01*
X166614500Y-37703000D01*
X166614500Y-37723000D01*
G37*
X166614500Y-37723000D02*
X166634500Y-37723000D01*
X166634500Y-37977000D01*
X166614500Y-37977000D01*
X166614500Y-37997000D01*
X166597500Y-37997000D01*
X166597500Y-37703000D01*
X166614500Y-37703000D01*
X166614500Y-37723000D01*
G36*
X167896000Y-37017000D02*
G01*
X167710500Y-37017000D01*
X167710500Y-36997000D01*
X167690500Y-36997000D01*
X167690500Y-36743000D01*
X167710500Y-36743000D01*
X167710500Y-36723000D01*
X167896000Y-36723000D01*
X167896000Y-37017000D01*
G37*
X167896000Y-37017000D02*
X167710500Y-37017000D01*
X167710500Y-36997000D01*
X167690500Y-36997000D01*
X167690500Y-36743000D01*
X167710500Y-36743000D01*
X167710500Y-36723000D01*
X167896000Y-36723000D01*
X167896000Y-37017000D01*
G36*
X166614500Y-36398000D02*
G01*
X166634500Y-36398000D01*
X166634500Y-36652000D01*
X166614500Y-36652000D01*
X166614500Y-36672000D01*
X166592500Y-36672000D01*
X166592500Y-36378000D01*
X166614500Y-36378000D01*
X166614500Y-36398000D01*
G37*
X166614500Y-36398000D02*
X166634500Y-36398000D01*
X166634500Y-36652000D01*
X166614500Y-36652000D01*
X166614500Y-36672000D01*
X166592500Y-36672000D01*
X166592500Y-36378000D01*
X166614500Y-36378000D01*
X166614500Y-36398000D01*
G36*
X248528215Y-45301164D02*
G01*
X248000938Y-44773887D01*
X248037250Y-44591335D01*
X248037250Y-44308665D01*
X247982103Y-44031426D01*
X247873930Y-43770273D01*
X247716887Y-43535241D01*
X247517009Y-43335363D01*
X247281977Y-43178320D01*
X247020824Y-43070147D01*
X246743585Y-43015000D01*
X246460915Y-43015000D01*
X246183676Y-43070147D01*
X245922523Y-43178320D01*
X245687491Y-43335363D01*
X245487613Y-43535241D01*
X245332250Y-43767759D01*
X245176887Y-43535241D01*
X244977009Y-43335363D01*
X244741977Y-43178320D01*
X244480824Y-43070147D01*
X244203585Y-43015000D01*
X243920915Y-43015000D01*
X243643676Y-43070147D01*
X243382523Y-43178320D01*
X243147491Y-43335363D01*
X242947613Y-43535241D01*
X242792250Y-43767759D01*
X242636887Y-43535241D01*
X242437009Y-43335363D01*
X242201977Y-43178320D01*
X241940824Y-43070147D01*
X241663585Y-43015000D01*
X241380915Y-43015000D01*
X241103676Y-43070147D01*
X240842523Y-43178320D01*
X240607491Y-43335363D01*
X240407613Y-43535241D01*
X240252250Y-43767759D01*
X240096887Y-43535241D01*
X239897009Y-43335363D01*
X239661977Y-43178320D01*
X239400824Y-43070147D01*
X239123585Y-43015000D01*
X238840915Y-43015000D01*
X238563676Y-43070147D01*
X238302523Y-43178320D01*
X238067491Y-43335363D01*
X237867613Y-43535241D01*
X237712250Y-43767759D01*
X237556887Y-43535241D01*
X237357009Y-43335363D01*
X237121977Y-43178320D01*
X236860824Y-43070147D01*
X236583585Y-43015000D01*
X236300915Y-43015000D01*
X236023676Y-43070147D01*
X235762523Y-43178320D01*
X235527491Y-43335363D01*
X235327613Y-43535241D01*
X235172250Y-43767759D01*
X235016887Y-43535241D01*
X234817009Y-43335363D01*
X234581977Y-43178320D01*
X234320824Y-43070147D01*
X234043585Y-43015000D01*
X233760915Y-43015000D01*
X233483676Y-43070147D01*
X233222523Y-43178320D01*
X232987491Y-43335363D01*
X232787613Y-43535241D01*
X232630570Y-43770273D01*
X232626183Y-43780865D01*
X232514635Y-43594869D01*
X232325664Y-43386481D01*
X232099670Y-43218963D01*
X231845337Y-43098754D01*
X231711289Y-43058096D01*
X231489250Y-43180085D01*
X231489250Y-44323000D01*
X231509250Y-44323000D01*
X231509250Y-44577000D01*
X231489250Y-44577000D01*
X231489250Y-45719915D01*
X231711289Y-45841904D01*
X231845337Y-45801246D01*
X232099670Y-45681037D01*
X232325664Y-45513519D01*
X232514635Y-45305131D01*
X232626183Y-45119135D01*
X232630570Y-45129727D01*
X232787613Y-45364759D01*
X232987491Y-45564637D01*
X233174001Y-45689259D01*
X233174001Y-46047944D01*
X228185863Y-46030862D01*
X228391794Y-45824931D01*
X228403676Y-45829853D01*
X228680915Y-45885000D01*
X228963585Y-45885000D01*
X229240824Y-45829853D01*
X229501977Y-45721680D01*
X229737009Y-45564637D01*
X229936887Y-45364759D01*
X230093930Y-45129727D01*
X230098317Y-45119135D01*
X230209865Y-45305131D01*
X230398836Y-45513519D01*
X230624830Y-45681037D01*
X230879163Y-45801246D01*
X231013211Y-45841904D01*
X231235250Y-45719915D01*
X231235250Y-44577000D01*
X231215250Y-44577000D01*
X231215250Y-44323000D01*
X231235250Y-44323000D01*
X231235250Y-43180085D01*
X231013211Y-43058096D01*
X230879163Y-43098754D01*
X230624830Y-43218963D01*
X230398836Y-43386481D01*
X230209865Y-43594869D01*
X230098317Y-43780865D01*
X230093930Y-43770273D01*
X229936887Y-43535241D01*
X229737009Y-43335363D01*
X229501977Y-43178320D01*
X229240824Y-43070147D01*
X228963585Y-43015000D01*
X228680915Y-43015000D01*
X228403676Y-43070147D01*
X228142523Y-43178320D01*
X227907491Y-43335363D01*
X227707613Y-43535241D01*
X227552250Y-43767759D01*
X227396887Y-43535241D01*
X227197009Y-43335363D01*
X226961977Y-43178320D01*
X226700824Y-43070147D01*
X226423585Y-43015000D01*
X226140915Y-43015000D01*
X225863676Y-43070147D01*
X225602523Y-43178320D01*
X225367491Y-43335363D01*
X225167613Y-43535241D01*
X225012250Y-43767759D01*
X224856887Y-43535241D01*
X224657009Y-43335363D01*
X224421977Y-43178320D01*
X224160824Y-43070147D01*
X223883585Y-43015000D01*
X223600915Y-43015000D01*
X223323676Y-43070147D01*
X223062523Y-43178320D01*
X222827491Y-43335363D01*
X222627613Y-43535241D01*
X222472250Y-43767759D01*
X222316887Y-43535241D01*
X222117009Y-43335363D01*
X221881977Y-43178320D01*
X221620824Y-43070147D01*
X221343585Y-43015000D01*
X221060915Y-43015000D01*
X220783676Y-43070147D01*
X220522523Y-43178320D01*
X220287491Y-43335363D01*
X220087613Y-43535241D01*
X219932250Y-43767759D01*
X219776887Y-43535241D01*
X219577009Y-43335363D01*
X219341977Y-43178320D01*
X219080824Y-43070147D01*
X218803585Y-43015000D01*
X218520915Y-43015000D01*
X218243676Y-43070147D01*
X217982523Y-43178320D01*
X217747491Y-43335363D01*
X217547613Y-43535241D01*
X217392250Y-43767759D01*
X217236887Y-43535241D01*
X217037009Y-43335363D01*
X216801977Y-43178320D01*
X216540824Y-43070147D01*
X216263585Y-43015000D01*
X215980915Y-43015000D01*
X215703676Y-43070147D01*
X215442523Y-43178320D01*
X215207491Y-43335363D01*
X215008893Y-43533961D01*
X215008062Y-43525518D01*
X214971752Y-43405820D01*
X214912787Y-43295506D01*
X214833435Y-43198815D01*
X214736744Y-43119463D01*
X214626430Y-43060498D01*
X214506732Y-43024188D01*
X214382250Y-43011928D01*
X212782250Y-43011928D01*
X212657768Y-43024188D01*
X212538070Y-43060498D01*
X212427756Y-43119463D01*
X212331065Y-43198815D01*
X212251713Y-43295506D01*
X212192748Y-43405820D01*
X212156438Y-43525518D01*
X212144178Y-43650000D01*
X212144178Y-45250000D01*
X212156438Y-45374482D01*
X212192748Y-45494180D01*
X212251713Y-45604494D01*
X212331065Y-45701185D01*
X212427756Y-45780537D01*
X212538070Y-45839502D01*
X212657768Y-45875812D01*
X212782250Y-45888072D01*
X213609376Y-45888072D01*
X213516823Y-45980625D01*
X211709000Y-45974434D01*
X211709000Y-42960101D01*
X214009062Y-40660040D01*
X223174888Y-40660040D01*
X223212210Y-40663716D01*
X223249532Y-40660040D01*
X223249543Y-40660040D01*
X223361196Y-40649043D01*
X223504457Y-40605586D01*
X223636486Y-40535014D01*
X223752211Y-40440041D01*
X223776014Y-40411037D01*
X225958364Y-38228688D01*
X226140915Y-38265000D01*
X226423585Y-38265000D01*
X226700824Y-38209853D01*
X226961977Y-38101680D01*
X227197009Y-37944637D01*
X227396887Y-37744759D01*
X227553930Y-37509727D01*
X227558317Y-37499135D01*
X227669865Y-37685131D01*
X227858836Y-37893519D01*
X228084830Y-38061037D01*
X228339163Y-38181246D01*
X228473211Y-38221904D01*
X228695250Y-38099915D01*
X228695250Y-36957000D01*
X228675250Y-36957000D01*
X228675250Y-36703000D01*
X228695250Y-36703000D01*
X228695250Y-36683000D01*
X228949250Y-36683000D01*
X228949250Y-36703000D01*
X228969250Y-36703000D01*
X228969250Y-36957000D01*
X228949250Y-36957000D01*
X228949250Y-38099915D01*
X229171289Y-38221904D01*
X229305337Y-38181246D01*
X229559670Y-38061037D01*
X229785664Y-37893519D01*
X229974635Y-37685131D01*
X230086183Y-37499135D01*
X230090570Y-37509727D01*
X230247613Y-37744759D01*
X230447491Y-37944637D01*
X230682523Y-38101680D01*
X230943676Y-38209853D01*
X231220915Y-38265000D01*
X231503585Y-38265000D01*
X231780824Y-38209853D01*
X232041977Y-38101680D01*
X232277009Y-37944637D01*
X232476887Y-37744759D01*
X232632250Y-37512241D01*
X232787613Y-37744759D01*
X232987491Y-37944637D01*
X233109001Y-38025827D01*
X233109000Y-40900749D01*
X233016795Y-41038744D01*
X232938774Y-41227102D01*
X232899000Y-41427061D01*
X232899000Y-41630939D01*
X232938774Y-41830898D01*
X233016795Y-42019256D01*
X233130063Y-42188774D01*
X233274226Y-42332937D01*
X233443744Y-42446205D01*
X233632102Y-42524226D01*
X233832061Y-42564000D01*
X234035939Y-42564000D01*
X234235898Y-42524226D01*
X234424256Y-42446205D01*
X234593774Y-42332937D01*
X234737937Y-42188774D01*
X234851205Y-42019256D01*
X234929226Y-41830898D01*
X234969000Y-41630939D01*
X234969000Y-41427061D01*
X234929226Y-41227102D01*
X234851205Y-41038744D01*
X234759000Y-40900749D01*
X234759000Y-37983397D01*
X234817009Y-37944637D01*
X235016887Y-37744759D01*
X235172250Y-37512241D01*
X235327613Y-37744759D01*
X235527491Y-37944637D01*
X235762523Y-38101680D01*
X236023676Y-38209853D01*
X236300915Y-38265000D01*
X236583585Y-38265000D01*
X236860824Y-38209853D01*
X237121977Y-38101680D01*
X237357009Y-37944637D01*
X237556887Y-37744759D01*
X237712250Y-37512241D01*
X237867613Y-37744759D01*
X238067491Y-37944637D01*
X238302523Y-38101680D01*
X238563676Y-38209853D01*
X238840915Y-38265000D01*
X239123585Y-38265000D01*
X239400824Y-38209853D01*
X239661977Y-38101680D01*
X239897009Y-37944637D01*
X240096887Y-37744759D01*
X240252250Y-37512241D01*
X240407613Y-37744759D01*
X240607491Y-37944637D01*
X240842523Y-38101680D01*
X241103676Y-38209853D01*
X241380915Y-38265000D01*
X241663585Y-38265000D01*
X241940824Y-38209853D01*
X242201977Y-38101680D01*
X242437009Y-37944637D01*
X242636887Y-37744759D01*
X242792250Y-37512241D01*
X242947613Y-37744759D01*
X243147491Y-37944637D01*
X243382523Y-38101680D01*
X243643676Y-38209853D01*
X243920915Y-38265000D01*
X244203585Y-38265000D01*
X244480824Y-38209853D01*
X244741977Y-38101680D01*
X244977009Y-37944637D01*
X245176887Y-37744759D01*
X245332250Y-37512241D01*
X245487613Y-37744759D01*
X245687491Y-37944637D01*
X245922523Y-38101680D01*
X246183676Y-38209853D01*
X246460915Y-38265000D01*
X246743585Y-38265000D01*
X247020824Y-38209853D01*
X247281977Y-38101680D01*
X247517009Y-37944637D01*
X247716887Y-37744759D01*
X247873930Y-37509727D01*
X247982103Y-37248574D01*
X248037250Y-36971335D01*
X248037250Y-36688665D01*
X247982103Y-36411426D01*
X247873930Y-36150273D01*
X247716887Y-35915241D01*
X247517009Y-35715363D01*
X247281977Y-35558320D01*
X247020824Y-35450147D01*
X246934621Y-35433000D01*
X248413469Y-35433000D01*
X248528215Y-45301164D01*
G37*
X248528215Y-45301164D02*
X248000938Y-44773887D01*
X248037250Y-44591335D01*
X248037250Y-44308665D01*
X247982103Y-44031426D01*
X247873930Y-43770273D01*
X247716887Y-43535241D01*
X247517009Y-43335363D01*
X247281977Y-43178320D01*
X247020824Y-43070147D01*
X246743585Y-43015000D01*
X246460915Y-43015000D01*
X246183676Y-43070147D01*
X245922523Y-43178320D01*
X245687491Y-43335363D01*
X245487613Y-43535241D01*
X245332250Y-43767759D01*
X245176887Y-43535241D01*
X244977009Y-43335363D01*
X244741977Y-43178320D01*
X244480824Y-43070147D01*
X244203585Y-43015000D01*
X243920915Y-43015000D01*
X243643676Y-43070147D01*
X243382523Y-43178320D01*
X243147491Y-43335363D01*
X242947613Y-43535241D01*
X242792250Y-43767759D01*
X242636887Y-43535241D01*
X242437009Y-43335363D01*
X242201977Y-43178320D01*
X241940824Y-43070147D01*
X241663585Y-43015000D01*
X241380915Y-43015000D01*
X241103676Y-43070147D01*
X240842523Y-43178320D01*
X240607491Y-43335363D01*
X240407613Y-43535241D01*
X240252250Y-43767759D01*
X240096887Y-43535241D01*
X239897009Y-43335363D01*
X239661977Y-43178320D01*
X239400824Y-43070147D01*
X239123585Y-43015000D01*
X238840915Y-43015000D01*
X238563676Y-43070147D01*
X238302523Y-43178320D01*
X238067491Y-43335363D01*
X237867613Y-43535241D01*
X237712250Y-43767759D01*
X237556887Y-43535241D01*
X237357009Y-43335363D01*
X237121977Y-43178320D01*
X236860824Y-43070147D01*
X236583585Y-43015000D01*
X236300915Y-43015000D01*
X236023676Y-43070147D01*
X235762523Y-43178320D01*
X235527491Y-43335363D01*
X235327613Y-43535241D01*
X235172250Y-43767759D01*
X235016887Y-43535241D01*
X234817009Y-43335363D01*
X234581977Y-43178320D01*
X234320824Y-43070147D01*
X234043585Y-43015000D01*
X233760915Y-43015000D01*
X233483676Y-43070147D01*
X233222523Y-43178320D01*
X232987491Y-43335363D01*
X232787613Y-43535241D01*
X232630570Y-43770273D01*
X232626183Y-43780865D01*
X232514635Y-43594869D01*
X232325664Y-43386481D01*
X232099670Y-43218963D01*
X231845337Y-43098754D01*
X231711289Y-43058096D01*
X231489250Y-43180085D01*
X231489250Y-44323000D01*
X231509250Y-44323000D01*
X231509250Y-44577000D01*
X231489250Y-44577000D01*
X231489250Y-45719915D01*
X231711289Y-45841904D01*
X231845337Y-45801246D01*
X232099670Y-45681037D01*
X232325664Y-45513519D01*
X232514635Y-45305131D01*
X232626183Y-45119135D01*
X232630570Y-45129727D01*
X232787613Y-45364759D01*
X232987491Y-45564637D01*
X233174001Y-45689259D01*
X233174001Y-46047944D01*
X228185863Y-46030862D01*
X228391794Y-45824931D01*
X228403676Y-45829853D01*
X228680915Y-45885000D01*
X228963585Y-45885000D01*
X229240824Y-45829853D01*
X229501977Y-45721680D01*
X229737009Y-45564637D01*
X229936887Y-45364759D01*
X230093930Y-45129727D01*
X230098317Y-45119135D01*
X230209865Y-45305131D01*
X230398836Y-45513519D01*
X230624830Y-45681037D01*
X230879163Y-45801246D01*
X231013211Y-45841904D01*
X231235250Y-45719915D01*
X231235250Y-44577000D01*
X231215250Y-44577000D01*
X231215250Y-44323000D01*
X231235250Y-44323000D01*
X231235250Y-43180085D01*
X231013211Y-43058096D01*
X230879163Y-43098754D01*
X230624830Y-43218963D01*
X230398836Y-43386481D01*
X230209865Y-43594869D01*
X230098317Y-43780865D01*
X230093930Y-43770273D01*
X229936887Y-43535241D01*
X229737009Y-43335363D01*
X229501977Y-43178320D01*
X229240824Y-43070147D01*
X228963585Y-43015000D01*
X228680915Y-43015000D01*
X228403676Y-43070147D01*
X228142523Y-43178320D01*
X227907491Y-43335363D01*
X227707613Y-43535241D01*
X227552250Y-43767759D01*
X227396887Y-43535241D01*
X227197009Y-43335363D01*
X226961977Y-43178320D01*
X226700824Y-43070147D01*
X226423585Y-43015000D01*
X226140915Y-43015000D01*
X225863676Y-43070147D01*
X225602523Y-43178320D01*
X225367491Y-43335363D01*
X225167613Y-43535241D01*
X225012250Y-43767759D01*
X224856887Y-43535241D01*
X224657009Y-43335363D01*
X224421977Y-43178320D01*
X224160824Y-43070147D01*
X223883585Y-43015000D01*
X223600915Y-43015000D01*
X223323676Y-43070147D01*
X223062523Y-43178320D01*
X222827491Y-43335363D01*
X222627613Y-43535241D01*
X222472250Y-43767759D01*
X222316887Y-43535241D01*
X222117009Y-43335363D01*
X221881977Y-43178320D01*
X221620824Y-43070147D01*
X221343585Y-43015000D01*
X221060915Y-43015000D01*
X220783676Y-43070147D01*
X220522523Y-43178320D01*
X220287491Y-43335363D01*
X220087613Y-43535241D01*
X219932250Y-43767759D01*
X219776887Y-43535241D01*
X219577009Y-43335363D01*
X219341977Y-43178320D01*
X219080824Y-43070147D01*
X218803585Y-43015000D01*
X218520915Y-43015000D01*
X218243676Y-43070147D01*
X217982523Y-43178320D01*
X217747491Y-43335363D01*
X217547613Y-43535241D01*
X217392250Y-43767759D01*
X217236887Y-43535241D01*
X217037009Y-43335363D01*
X216801977Y-43178320D01*
X216540824Y-43070147D01*
X216263585Y-43015000D01*
X215980915Y-43015000D01*
X215703676Y-43070147D01*
X215442523Y-43178320D01*
X215207491Y-43335363D01*
X215008893Y-43533961D01*
X215008062Y-43525518D01*
X214971752Y-43405820D01*
X214912787Y-43295506D01*
X214833435Y-43198815D01*
X214736744Y-43119463D01*
X214626430Y-43060498D01*
X214506732Y-43024188D01*
X214382250Y-43011928D01*
X212782250Y-43011928D01*
X212657768Y-43024188D01*
X212538070Y-43060498D01*
X212427756Y-43119463D01*
X212331065Y-43198815D01*
X212251713Y-43295506D01*
X212192748Y-43405820D01*
X212156438Y-43525518D01*
X212144178Y-43650000D01*
X212144178Y-45250000D01*
X212156438Y-45374482D01*
X212192748Y-45494180D01*
X212251713Y-45604494D01*
X212331065Y-45701185D01*
X212427756Y-45780537D01*
X212538070Y-45839502D01*
X212657768Y-45875812D01*
X212782250Y-45888072D01*
X213609376Y-45888072D01*
X213516823Y-45980625D01*
X211709000Y-45974434D01*
X211709000Y-42960101D01*
X214009062Y-40660040D01*
X223174888Y-40660040D01*
X223212210Y-40663716D01*
X223249532Y-40660040D01*
X223249543Y-40660040D01*
X223361196Y-40649043D01*
X223504457Y-40605586D01*
X223636486Y-40535014D01*
X223752211Y-40440041D01*
X223776014Y-40411037D01*
X225958364Y-38228688D01*
X226140915Y-38265000D01*
X226423585Y-38265000D01*
X226700824Y-38209853D01*
X226961977Y-38101680D01*
X227197009Y-37944637D01*
X227396887Y-37744759D01*
X227553930Y-37509727D01*
X227558317Y-37499135D01*
X227669865Y-37685131D01*
X227858836Y-37893519D01*
X228084830Y-38061037D01*
X228339163Y-38181246D01*
X228473211Y-38221904D01*
X228695250Y-38099915D01*
X228695250Y-36957000D01*
X228675250Y-36957000D01*
X228675250Y-36703000D01*
X228695250Y-36703000D01*
X228695250Y-36683000D01*
X228949250Y-36683000D01*
X228949250Y-36703000D01*
X228969250Y-36703000D01*
X228969250Y-36957000D01*
X228949250Y-36957000D01*
X228949250Y-38099915D01*
X229171289Y-38221904D01*
X229305337Y-38181246D01*
X229559670Y-38061037D01*
X229785664Y-37893519D01*
X229974635Y-37685131D01*
X230086183Y-37499135D01*
X230090570Y-37509727D01*
X230247613Y-37744759D01*
X230447491Y-37944637D01*
X230682523Y-38101680D01*
X230943676Y-38209853D01*
X231220915Y-38265000D01*
X231503585Y-38265000D01*
X231780824Y-38209853D01*
X232041977Y-38101680D01*
X232277009Y-37944637D01*
X232476887Y-37744759D01*
X232632250Y-37512241D01*
X232787613Y-37744759D01*
X232987491Y-37944637D01*
X233109001Y-38025827D01*
X233109000Y-40900749D01*
X233016795Y-41038744D01*
X232938774Y-41227102D01*
X232899000Y-41427061D01*
X232899000Y-41630939D01*
X232938774Y-41830898D01*
X233016795Y-42019256D01*
X233130063Y-42188774D01*
X233274226Y-42332937D01*
X233443744Y-42446205D01*
X233632102Y-42524226D01*
X233832061Y-42564000D01*
X234035939Y-42564000D01*
X234235898Y-42524226D01*
X234424256Y-42446205D01*
X234593774Y-42332937D01*
X234737937Y-42188774D01*
X234851205Y-42019256D01*
X234929226Y-41830898D01*
X234969000Y-41630939D01*
X234969000Y-41427061D01*
X234929226Y-41227102D01*
X234851205Y-41038744D01*
X234759000Y-40900749D01*
X234759000Y-37983397D01*
X234817009Y-37944637D01*
X235016887Y-37744759D01*
X235172250Y-37512241D01*
X235327613Y-37744759D01*
X235527491Y-37944637D01*
X235762523Y-38101680D01*
X236023676Y-38209853D01*
X236300915Y-38265000D01*
X236583585Y-38265000D01*
X236860824Y-38209853D01*
X237121977Y-38101680D01*
X237357009Y-37944637D01*
X237556887Y-37744759D01*
X237712250Y-37512241D01*
X237867613Y-37744759D01*
X238067491Y-37944637D01*
X238302523Y-38101680D01*
X238563676Y-38209853D01*
X238840915Y-38265000D01*
X239123585Y-38265000D01*
X239400824Y-38209853D01*
X239661977Y-38101680D01*
X239897009Y-37944637D01*
X240096887Y-37744759D01*
X240252250Y-37512241D01*
X240407613Y-37744759D01*
X240607491Y-37944637D01*
X240842523Y-38101680D01*
X241103676Y-38209853D01*
X241380915Y-38265000D01*
X241663585Y-38265000D01*
X241940824Y-38209853D01*
X242201977Y-38101680D01*
X242437009Y-37944637D01*
X242636887Y-37744759D01*
X242792250Y-37512241D01*
X242947613Y-37744759D01*
X243147491Y-37944637D01*
X243382523Y-38101680D01*
X243643676Y-38209853D01*
X243920915Y-38265000D01*
X244203585Y-38265000D01*
X244480824Y-38209853D01*
X244741977Y-38101680D01*
X244977009Y-37944637D01*
X245176887Y-37744759D01*
X245332250Y-37512241D01*
X245487613Y-37744759D01*
X245687491Y-37944637D01*
X245922523Y-38101680D01*
X246183676Y-38209853D01*
X246460915Y-38265000D01*
X246743585Y-38265000D01*
X247020824Y-38209853D01*
X247281977Y-38101680D01*
X247517009Y-37944637D01*
X247716887Y-37744759D01*
X247873930Y-37509727D01*
X247982103Y-37248574D01*
X248037250Y-36971335D01*
X248037250Y-36688665D01*
X247982103Y-36411426D01*
X247873930Y-36150273D01*
X247716887Y-35915241D01*
X247517009Y-35715363D01*
X247281977Y-35558320D01*
X247020824Y-35450147D01*
X246934621Y-35433000D01*
X248413469Y-35433000D01*
X248528215Y-45301164D01*
M02*
